<?xml version="1.0" encoding="UTF-8"?>
<svg width="59px" height="92px" viewBox="0 0 59 92" version="1.1" xmlns="http://www.w3.org/2000/svg" xmlns:xlink="http://www.w3.org/1999/xlink">
    <!-- Generator: sketchtool 56.3 (101010) - https://sketch.com -->
    <title>77D3622C-CECD-42B8-A143-B5DC04AB7263@1x</title>
    <desc>Created with sketchtool.</desc>
    <g id="Mobile" stroke="none" stroke-width="1" fill="none" fill-rule="evenodd">
        <g id="Step-6_3" transform="translate(-164.000000, -201.000000)">
            <g id="Group" transform="translate(164.000000, 201.000000)">
                <g id="Dots" fill="#FFFFFF">
                    <circle id="Oval" cx="20" cy="38" r="2"></circle>
                    <circle id="Oval-Copy-21" cx="29.5" cy="38.5" r="2.5"></circle>
                    <circle id="Oval-Copy-30" cx="38.5" cy="38.5" r="2.5"></circle>
                    <circle id="Oval-Copy-34" cx="46.5" cy="37.5" r="1.5"></circle>
                    <circle id="Oval-Copy-44" cx="55" cy="37" r="1"></circle>
                    <circle id="Oval-Copy-23" cx="29.5" cy="47.5" r="2.5"></circle>
                    <circle id="Oval-Copy-31" cx="38" cy="47" r="2"></circle>
                    <circle id="Oval-Copy-38" cx="46.5" cy="46.5" r="1.5"></circle>
                    <circle id="Oval-Copy-45" cx="55" cy="46" r="1"></circle>
                    <circle id="Oval-Copy-24" cx="29" cy="56" r="2"></circle>
                    <circle id="Oval-Copy-32" cx="38" cy="56" r="2"></circle>
                    <circle id="Oval-Copy-39" cx="46.5" cy="55.5" r="1.5"></circle>
                    <circle id="Oval-Copy-46" cx="54.5" cy="54.5" r="1"></circle>
                    <circle id="Oval-Copy-25" cx="28.5" cy="64.5" r="1.5"></circle>
                    <circle id="Oval-Copy-33" cx="37.5" cy="64.5" r="1.5"></circle>
                    <circle id="Oval-Copy-40" cx="45.5" cy="63.5" r="1"></circle>
                    <circle id="Oval-Copy-26" cx="27.5" cy="72.5" r="1"></circle>
                    <circle id="Oval-Copy-7" cx="11" cy="38" r="2"></circle>
                    <circle id="Oval-Copy-14" cx="1" cy="37" r="1"></circle>
                    <circle id="Oval-Copy-4" cx="20" cy="29" r="2"></circle>
                    <circle id="Oval-Copy-22" cx="29.5" cy="29.5" r="2.5"></circle>
                    <circle id="Oval-Copy-35" cx="38" cy="29" r="2"></circle>
                    <circle id="Oval-Copy-41" cx="46.5" cy="28.5" r="1.5"></circle>
                    <circle id="Oval-Copy-48" cx="55" cy="28" r="1"></circle>
                    <circle id="Oval-Copy-27" cx="29" cy="20" r="2"></circle>
                    <circle id="Oval-Copy-36" cx="37.5" cy="19.5" r="1.5"></circle>
                    <circle id="Oval-Copy-42" cx="46.5" cy="19.5" r="1.5"></circle>
                    <circle id="Oval-Copy-49" cx="54.5" cy="18.5" r="1"></circle>
                    <circle id="Oval-Copy-28" cx="28" cy="10" r="1"></circle>
                    <circle id="Oval-Copy-37" cx="37" cy="10" r="1"></circle>
                    <circle id="Oval-Copy-43" cx="45.5" cy="9.5" r="1"></circle>
                    <circle id="Oval-Copy-29" cx="27.5" cy="0.5" r="1"></circle>
                    <circle id="Oval-Copy-8" cx="10.5" cy="28.5" r="1.5"></circle>
                    <circle id="Oval-Copy-15" cx="1" cy="28" r="1"></circle>
                    <circle id="Oval-Copy-5" cx="19.5" cy="19.5" r="1.5"></circle>
                    <circle id="Oval-Copy-9" cx="10" cy="19" r="1"></circle>
                    <circle id="Oval-Copy-16" cx="0.5" cy="18.5" r="1"></circle>
                    <circle id="Oval-Copy-6" cx="19" cy="10" r="1"></circle>
                    <circle id="Oval-Copy-10" cx="9.5" cy="9.5" r="1"></circle>
                    <circle id="Oval-Copy" cx="20" cy="47" r="2"></circle>
                    <circle id="Oval-Copy-11" cx="11" cy="47" r="2"></circle>
                    <circle id="Oval-Copy-18" cx="1" cy="46" r="1"></circle>
                    <circle id="Oval-Copy-2" cx="20" cy="56" r="2"></circle>
                    <circle id="Oval-Copy-12" cx="10.5" cy="55.5" r="1.5"></circle>
                    <circle id="Oval-Copy-19" cx="0.5" cy="54.5" r="1"></circle>
                    <circle id="Oval-Copy-3" cx="19.5" cy="64.5" r="1.5"></circle>
                    <circle id="Oval-Copy-13" cx="10" cy="64" r="1"></circle>
                </g>
                <g id="Phone" transform="translate(25.000000, 26.000000)">
                    <rect id="Rectangle" fill="#FFFFFF" x="0" y="0" width="34" height="66" rx="5"></rect>
                    <rect id="Rectangle-Copy-2" fill="#433D3E" x="2" y="2" width="30" height="62" rx="4"></rect>
                    <path d="M8,0 L26,0 L25.1893661,3.24253563 C25.0780743,3.68770263 24.6780912,4 24.2192236,4 L9.78077641,4 C9.32190876,4 8.92192566,3.68770263 8.81063391,3.24253563 L8,0 Z" id="Rectangle" fill="#FFFFFF"></path>
                    <polygon id="Path-13" fill="#FFFFFF" opacity="0.50125558" points="13 3.367208 33.2423404 41.2662662 33.2423404 4.19520707 32.4185636 2.19520707 29.8721685 1 13 1 13 2.19520707"></polygon>
                </g>
            </g>
        </g>
    </g>
</svg>