<?xml version="1.0" encoding="UTF-8"?>
<svg width="160px" height="527px" viewBox="0 0 160 527" version="1.1" xmlns="http://www.w3.org/2000/svg" xmlns:xlink="http://www.w3.org/1999/xlink">
    <!-- Generator: sketchtool 56.3 (101010) - https://sketch.com -->
    <title>F245FB06-4006-41FF-A009-20FF459B4214@1x</title>
    <desc>Created with sketchtool.</desc>
    <g id="Mobile" stroke="none" stroke-width="1" fill="none" fill-rule="evenodd" opacity="0.4">
        <g id="Step-6_2" transform="translate(-107.000000, -61.000000)" stroke="#FFFFFF" stroke-width="5">
            <path d="M262.599866,335.54579 C262.77117,332.431804 261.524301,330.081572 261.569233,322.472101 C261.611357,314.865439 258.828368,287.224247 257.940957,273.530007 C257.053545,259.835768 253.658354,253.475822 253.130401,243.586318 C252.605255,233.696814 246.559063,209.689074 247.387501,187.486829 C247.693602,179.296118 244.054092,173.958257 240.456706,170.914468 C234.6436,165.997796 227.954315,165.888287 221.829492,164.346737 C216.322487,162.962431 212.705443,160.047807 209.321485,159.146464 C207.644951,158.700004 204.744015,157.512253 203.648792,156.259919 C202.427197,154.864382 200.48107,152.898836 199.15557,143.292932 C201.351632,141.274035 203.306184,138.890109 204.873195,136.511798 C207.058024,133.198449 208.616611,130.241707 209.784849,127.130528 C210.352118,125.619866 211.433299,124.392804 212.767225,123.485844 C212.772841,123.480229 212.781266,123.474613 212.786883,123.471805 C215.561447,121.565225 215.628846,120.936251 216.064126,117.830688 C216.271938,116.348105 218.729169,109.614706 216.637012,107.682855 C215.216031,106.371555 213.657444,107.576154 213.413125,106.730969 C213.590046,102.328146 213.283945,97.9477866 211.972486,93.8089084 C209.26532,85.278439 206.153763,78.0255744 196.917384,75.1502614 C196.959508,73.8221139 196.819094,72.4855427 196.459637,71.2332091 C195.631199,68.3438566 193.727196,65.9458905 191.393529,64.8508006 C189.995013,64.1937467 188.506634,64 187.001404,64 C185.496175,64 184.007795,64.1937467 182.60928,64.8508006 C180.272804,65.9458905 178.371609,68.3438566 177.543172,71.2332091 C177.183714,72.4855427 177.040492,73.8221139 177.085425,75.1502614 C167.849045,78.0255744 164.73468,85.278439 162.027514,93.8089084 C160.716055,97.9477866 160.409954,102.328146 160.589683,106.730969 C160.345364,107.576154 158.783969,106.371555 157.362988,107.682855 C155.270831,109.614706 157.728062,116.348105 157.935874,117.830688 C158.371154,120.936251 158.438553,121.565225 161.213117,123.471805 C161.221542,123.474613 161.227159,123.480229 161.235584,123.485844 C162.569509,124.392804 163.647882,125.619866 164.215151,127.130528 C165.386197,130.241707 166.941976,133.198449 169.126805,136.511798 C170.693816,138.890109 172.648368,141.274035 174.847238,143.292932 C173.51893,152.898836 171.572803,154.864382 170.354016,156.259919 C169.258793,157.512253 166.355049,158.700004 164.681323,159.146464 C161.297365,160.047807 157.680322,162.962431 152.170508,164.346737 C146.045685,165.888287 139.3564,165.997796 133.546102,170.914468 C129.948716,173.958257 126.309206,179.296118 126.615307,187.486829 C127.440937,209.689074 121.397553,233.696814 120.869599,243.586318 C120.341646,253.475822 116.946455,259.835768 116.059043,273.530007 C115.17444,287.224247 112.388643,314.865439 112.433575,322.472101 C112.475699,330.081572 111.22883,332.431804 111.402942,335.54579 C111.577054,338.656968 110.956428,338.31721 110.288061,344.149265 C109.619695,349.981321 110.125182,357.67503 111.692193,364.444931 C112.677894,368.701742 114.376893,371.473162 117.367694,374.362515 C117.867565,374.845478 120.352879,376.690283 122.883125,377.852763 C123.922182,378.327302 124.424861,377.73483 125.340355,377.838723 C126.393454,377.956656 127.820052,378.69514 128.336773,377.925769 C129.47412,376.226976 122.967372,370.883498 121.908657,368.741053 C120.85275,366.598608 120.951039,363.911426 121.411594,359.623728 C121.87215,355.338838 123.27909,351.764352 124.110336,353.791672 C124.593357,354.968192 124.489451,357.175219 124.042938,360.544727 C123.719987,362.979196 123.360529,365.733768 124.290065,367.112458 C125.755978,369.294214 127.575733,367.089995 127.842518,365.537213 C128.856302,359.629344 128.788903,358.834702 129.726863,355.799337 C131.411822,350.351967 131.288258,346.437723 128.982674,342.632987 C126.679897,338.83106 125.222408,336.548218 125.093228,331.982536 C124.966856,327.419661 124.315339,328.051444 125.126927,321.584798 C125.941324,315.118152 131.939775,300.662965 138.196587,280.7576 C144.456207,260.849428 142.378092,259.816112 142.7207,247.391054 C142.976252,238.169835 145.051559,224.048792 146.127124,212.870451 C146.298428,218.250431 147.831018,225.250013 149.600786,232.728081 C152.170508,243.586318 152.838714,260.366465 152.858372,268.939053 C152.878029,278.617963 148.230514,291.927517 145.495265,297.096903 C140.342101,306.843203 135.596135,318.880768 134.571119,330.654389 C132.785063,351.155033 135.660725,360.48576 140.114631,378.097052 C145.253754,398.415181 149.123542,420.069882 149.895814,431.026397 C150.516441,439.834851 145.391359,448.707887 145.391359,469.772924 C145.391359,495.075116 149.842457,495.386795 157.520251,552.74985 C159.047946,564.155633 155.986938,567.949136 154.25424,570.860952 C152.521541,573.772768 147.418926,578.891611 147.29817,580.534246 C147.174607,582.174073 145.045943,584.701204 152.95963,584.701204 C161.142911,584.701204 165.346882,585.302099 167.006566,584.131195 C167.385681,583.864443 167.924868,583.931833 168.256243,584.26036 C168.809471,584.807905 169.750239,585.27402 171.746915,584.810713 C173.653726,584.367061 174.608536,583.013642 174.532713,580.652179 C174.487781,579.208907 174.588878,578.374954 174.872513,575.805704 C175.203888,572.789995 173.92332,571.635939 174.625385,567.873322 C175.630744,562.498958 166.941976,558.281458 177.391525,507.581604 C183.187782,479.465873 177.984069,471.977143 176.18678,460.908311 C173.774482,446.023513 174.76299,439.624256 178.026193,422.495927 C179.444366,415.063356 187.001404,374.362515 184.645432,352.474757 C184.645432,352.474757 185.192882,351.000597 187.001404,351.000597 C188.809926,351.000597 189.354568,352.474757 189.354568,352.474757 C187.001404,374.362515 194.558442,415.063356 195.973807,422.495927 C199.239818,439.624256 200.228327,446.023513 197.81322,460.908311 C196.018739,471.977143 190.815026,479.465873 196.611283,507.581604 C207.060833,558.281458 198.369256,562.498958 199.374615,567.873322 C200.07668,571.635939 198.796112,572.789995 199.130296,575.805704 C199.411122,578.374954 199.515028,579.208907 199.467287,580.652179 C199.391464,583.013642 200.349082,584.367061 202.253085,584.810713 C204.249761,585.27402 205.190529,584.807905 205.743757,584.26036 C206.075132,583.931833 206.614319,583.864443 206.996243,584.131195 C208.653118,585.302099 212.857089,584.701204 221.04037,584.701204 C228.954057,584.701204 226.825393,582.174073 226.704638,580.534246 C226.581074,578.891611 221.478459,573.772768 219.74576,570.860952 C218.01587,567.949136 214.954862,564.155633 216.479749,552.74985 C224.157543,495.386795 228.611449,495.075116 228.611449,469.772924 C228.611449,448.707887 223.483559,439.834851 224.104186,431.026397 C224.879267,420.069882 228.749054,398.415181 233.888177,378.097052 C238.342083,360.48576 241.217745,351.155033 239.428881,330.654389 C238.403865,318.880768 233.657899,306.843203 228.504735,297.096903 C225.772294,291.927517 221.121971,278.617963 221.141628,268.939053 C221.161286,260.366465 221.829492,243.586318 224.402023,232.728081 C226.171746,225.258364 227.701572,218.250431 227.872876,212.870451 C228.948441,224.048792 231.023748,238.169835 231.2793,247.391054 C231.624716,259.816112 229.546601,260.849428 235.803413,280.7576 C242.060225,300.662965 248.058676,315.118152 248.873073,321.584798 C249.684661,328.051444 249.035952,327.419661 248.906772,331.982536 C248.7804,336.548218 247.320103,338.83106 245.017326,342.632987 C242.711742,346.437723 242.588178,350.351967 244.273137,355.799337 C245.213905,358.834702 245.143698,359.629344 246.157482,365.537213 C246.424267,367.089995 248.244022,369.294214 249.712744,367.112458 C250.639471,365.733768 250.280013,362.979196 249.957062,360.544727 C249.513357,357.175219 249.409451,354.968192 249.892472,353.791672 C250.723719,351.764352 252.12785,355.338838 252.588406,359.623728 C253.048961,363.911426 253.150058,366.598608 252.091343,368.741053 C251.032628,370.883498 244.528689,376.226976 245.666035,377.925769 C246.179948,378.69514 247.606546,377.956656 248.659645,377.838723 C249.577947,377.73483 250.080626,378.327302 251.116875,377.852763 C253.647121,376.690283 256.132435,374.845478 256.632306,374.362515 C259.623107,371.473162 261.322106,368.701742 262.307807,364.444931 C263.874818,357.67503 264.380305,349.981321 263.711939,344.149265 C263.043572,338.31721 262.425754,338.656968 262.599866,335.54579 Z" id="Fill-6"></path>
        </g>
    </g>
</svg>