<?xml version="1.0" encoding="UTF-8"?>
<svg width="28px" height="28px" viewBox="0 0 28 28" version="1.1" xmlns="http://www.w3.org/2000/svg" xmlns:xlink="http://www.w3.org/1999/xlink">
    <!-- Generator: Sketch 63 (92445) - https://sketch.com -->
    <title>loader</title>
    <desc>Created with Sketch.</desc>
    <g id="loader" stroke="none" stroke-width="1" fill="none" fill-rule="evenodd">
        <g id="Group-7">
            <rect id="Rectangle" x="0" y="0" width="28" height="28"></rect>
            <path d="M14.5895843,23.4914611 C15.5653841,23.4914611 16.3564262,24.2768743 16.3564262,25.2457306 C16.3564262,26.2145868 15.5653841,27 14.5895843,27 C13.6137845,27 12.8227425,26.2145868 12.8227425,25.2457306 C12.8227425,24.2768743 13.6137845,23.4914611 14.5895843,23.4914611 Z M5.89584329,20.8235294 C6.70138557,20.0151803 8.0057334,20.0227704 8.81032011,20.8235294 C9.6158624,21.6233397 9.6158624,22.9174573 8.81032011,23.7172676 C8.0057334,24.5170778 6.70043,24.5170778 5.89584329,23.7172676 C5.090301,22.9174573 5.090301,21.6233397 5.89584329,20.8235294 Z M21.826087,20.8064516 C22.6393414,20.8064516 23.2986144,21.4610334 23.2986144,22.2685009 C23.2986144,23.0759685 22.6393414,23.7305503 21.826087,23.7305503 C21.0128325,23.7305503 20.3535595,23.0759685 20.3535595,22.2685009 C20.3535595,21.4610334 21.0128325,20.8064516 21.826087,20.8064516 Z M4.35547062,12.7466793 C5.65636112,12.7466793 6.71094123,13.7937553 6.71094123,15.085389 C6.71094123,16.3770227 5.65636112,17.4240987 4.35547062,17.4240987 C3.05458012,17.4240987 2,16.3770227 2,15.085389 C2,13.7937553 3.05458012,12.7466793 4.35547062,12.7466793 Z M24.8227425,13.9155598 C25.4729239,13.9155598 26,14.4388854 26,15.0844402 C26,15.7299951 25.4729239,16.2533207 24.8227425,16.2533207 C24.1725611,16.2533207 23.6454849,15.7299951 23.6454849,15.0844402 C23.6454849,14.4388854 24.1725611,13.9155598 24.8227425,13.9155598 Z M7.3530817,5.26755218 C8.81704529,5.26755218 10.0038223,6.44588435 10.0038223,7.89943074 C10.0038223,9.35297713 8.81704529,10.5313093 7.3530817,10.5313093 C5.88911811,10.5313093 4.70234114,9.35297713 4.70234114,7.89943074 C4.70234114,6.44588435 5.88911811,5.26755218 7.3530817,5.26755218 Z M21.8251314,7.0227704 C22.3127674,7.0227704 22.7080745,7.4152646 22.7080745,7.89943074 C22.7080745,8.38359688 22.3127674,8.77609108 21.8251314,8.77609108 C21.3374954,8.77609108 20.9421882,8.38359688 20.9421882,7.89943074 C20.9421882,7.4152646 21.3374954,7.0227704 21.8251314,7.0227704 Z M14.5895843,2 C16.2160933,2 17.5346393,3.30916357 17.5346393,4.92409867 C17.5346393,6.53903378 16.2160933,7.84819734 14.5895843,7.84819734 C12.9630754,7.84819734 11.6445294,6.53903378 11.6445294,4.92409867 C11.6445294,3.30916357 12.9630754,2 14.5895843,2 Z" id="Combined-Shape" fill="#396EC5" fill-rule="nonzero"></path>
        </g>
    </g>
</svg>