<?xml version="1.0" encoding="UTF-8"?>
<svg width="90px" height="37px" viewBox="0 0 90 37" version="1.1" xmlns="http://www.w3.org/2000/svg" xmlns:xlink="http://www.w3.org/1999/xlink">
    <g id="Enterprise-admin" stroke="none" stroke-width="1" fill="none" fill-rule="evenodd">
        <g id="registation" transform="translate(-65.000000, -29.000000)" fill="#000000">
            <g id="logo" transform="translate(65.000000, 29.000000)">
                <g>
                    <path d="M7.24195739,11.6439649 C9.06934869,8.28085965 11.6004356,7.78947368 13.7545661,7.78947368 C16.127827,7.78947368 16.6560878,7.78947368 16.6560878,7.78947368 L16.6560878,12.7286491 C16.6560878,12.7286491 16.7010878,12.7286491 15.5519574,12.7286491 C14.4021748,12.7286491 13.075653,12.8052456 12.3523922,14.1898246 C12.1658704,14.5468421 11.882827,15.0895088 11.5560878,15.714614 C11.5560878,15.714614 9.33087043,20.0319298 8.98717478,20.5551228 C7.20543565,23.2723509 4.89282695,23.6923333 2.90174,23.6923333 C0.529131302,23.6923333 0.000218258495,23.6923333 0.000218258495,23.6923333 L0.000218258495,18.7525088 C0.000218258495,18.7525088 -0.0434773937,18.7525088 1.10565304,18.7525088 C2.25478348,18.7525088 3.58065304,18.6765614 4.30456608,17.2919825 C4.30456608,17.2919825 7.05543565,11.9867018 7.24195739,11.6439649 Z M34.8243487,18.1657018 C33.8434791,18.6142456 32.7908704,18.7135614 31.7350009,18.7830175 C31.3404356,18.8070351 30.9426096,18.785614 30.54674,18.785614 C29.2071748,18.7992456 27.8773922,18.7447193 26.5873922,18.315 C24.7241313,17.6937895 24.4123922,16.0495614 24.8923922,14.699386 C25.1754356,13.9042105 25.8302183,13.4900702 26.5893487,13.2174386 C27.5630443,12.8662632 28.58174,12.7695439 29.6050009,12.7403333 C31.0821748,12.6994386 32.5626096,12.6948947 34.007827,13.0791754 C34.7363052,13.272614 35.4210878,13.5569298 35.8802183,14.1969649 C36.8486965,15.5438947 36.3308704,17.474386 34.8243487,18.1657018 Z M45.0086965,18.7843158 C44.5358704,18.7512105 44.0565226,18.6979825 43.5993487,18.5811404 C42.6504356,18.3377193 42.2421748,17.7892105 42.1854356,16.8142281 C42.1254356,15.7970526 42.1202183,14.7707895 41.9734791,13.7665965 C41.6134791,11.3077193 40.2210878,9.64466667 37.8850009,8.76185965 C36.3230443,8.17050877 34.68674,7.95954386 33.03674,7.86801754 C30.730653,7.73819298 28.4258704,7.75377193 26.1289139,8.05821053 C24.7495661,8.24061404 23.4113052,8.54829825 22.1780443,9.213 C20.7269574,9.99454386 19.765653,11.1772456 19.29674,12.7539649 C18.8252183,14.3391228 18.7926096,15.947 19.0260878,17.5737018 C19.390653,20.1117719 20.7413052,21.8585614 23.1693487,22.7718772 C24.6889139,23.341807 26.2750009,23.5566667 27.8780443,23.6540351 C30.2310878,23.7974912 32.5847835,23.8000877 34.9234791,23.4463158 C36.1789139,23.2574211 37.4089139,22.9607719 38.4882617,22.2428421 C38.6800009,22.1162632 38.8176096,22.1058772 39.0080443,22.2629649 C39.5982617,22.749807 40.2895661,23.0464561 41.0252183,23.2470351 C42.797827,23.7299825 44.612827,23.7455614 46.4304356,23.7247895 C46.4604356,23.7247895 46.4904356,23.6968772 46.5139139,23.6845439 C46.5139139,22.0669298 46.5139139,20.4551579 46.5139139,18.7921053 C45.9850009,18.7921053 45.4952183,18.8174211 45.0086965,18.7843158 Z" id="Fill-1"></path>
                    <path d="M56.1932609,3.2787193 C56.1932609,5.08977193 54.7186957,6.5574386 52.8991304,6.5574386 C51.0802174,6.5574386 49.605,5.08977193 49.605,3.2787193 C49.605,1.46766667 51.0802174,0 52.8991304,0 C54.7186957,0 56.1932609,1.46766667 56.1932609,3.2787193 Z M45.6521739,7.91994737 C47.6158696,7.9322807 49.5423913,7.95564912 51.431087,8.46001754 C53.7547826,9.08057895 55.2430435,10.4989123 55.6030435,12.8961228 C55.7804348,14.0690877 55.7497826,15.2732105 55.8143478,16.4630526 C55.8319565,16.7746316 55.8208696,17.0927018 55.8834783,17.3958421 C56.0334783,18.1325965 56.5356522,18.5752982 57.2478261,18.7083684 C57.9286957,18.8362456 58.6284783,18.8680526 59.3197826,18.9264737 C59.5852174,18.949193 59.8532609,18.9297193 60.1454348,18.9297193 C60.1454348,20.5707018 60.1454348,22.189614 60.1454348,23.8215088 C60.1343478,23.8273509 60.105,23.8552632 60.075,23.8552632 C58.1863043,23.8844737 56.3028261,23.8429298 54.4623913,23.3638772 C52.9943478,22.9795965 51.7121739,22.2960702 50.9093478,20.9381053 C50.3243478,19.948193 50.0856522,18.8563684 50.0315217,17.7255965 C49.9858696,16.7532105 49.9936957,15.7782281 49.9591304,14.8045439 C49.9271739,13.8873333 49.4536957,13.2544386 48.5406522,13.0843684 C47.7476087,12.9363684 46.9278261,12.9266316 46.1191304,12.8610702 C45.9704348,12.8480877 45.8191304,12.8591228 45.6521739,12.8591228 C45.6521739,11.2032105 45.6521739,9.56936842 45.6521739,7.91994737 Z M77.5702174,18.2974737 C76.5886957,18.7460175 75.5367391,18.8440351 74.4808696,18.9134912 C74.0863043,18.9375088 73.6891304,18.917386 73.2926087,18.917386 C71.9530435,18.9297193 70.6232609,18.875193 69.3332609,18.4428772 C67.47,17.8203684 67.1647826,16.1722456 67.6447826,14.8240175 C67.923913,14.0418246 68.5682609,13.626386 69.3123913,13.3557018 C70.2952174,12.9986842 71.3269565,12.8980702 72.3619565,12.8701579 C73.8391304,12.8312105 75.3202174,12.8260175 76.7647826,13.2109474 C77.4926087,13.4050351 78.176087,13.6906491 78.6352174,14.3313333 C79.6004348,15.6815088 79.0806522,17.6061579 77.5702174,18.2974737 Z M87.761087,18.9147895 C87.2876087,18.8816842 86.808913,18.8284561 86.3517391,18.711614 C85.4021739,18.468193 84.9932609,17.9196842 84.9365217,16.9447018 C84.8771739,15.9275263 84.8719565,14.9025614 84.7252174,13.8977193 C84.3645652,11.4394912 82.9728261,9.77514035 80.6367391,8.89233333 C79.0754348,8.30098246 77.4391304,8.09066667 75.7884783,7.99849123 C73.4823913,7.86866667 71.1776087,7.88424561 68.8806522,8.18803509 C67.5013043,8.3704386 66.1630435,8.67877193 64.9297826,9.34347368 C63.4793478,10.1250175 62.5173913,11.3070702 62.0484783,12.8837895 C61.5763043,14.4689474 61.5436957,16.0774737 61.7771739,17.7028772 C62.1417391,20.2422456 63.4923913,21.9890351 65.9204348,22.9010526 C67.44,23.4722807 69.0254348,23.6871404 70.6284783,23.7845088 C72.9815217,23.9279649 75.3358696,23.9292632 77.673913,23.5767895 C78.93,23.389193 80.16,23.0899474 81.2386957,22.374614 C81.431087,22.2480351 81.5673913,22.2350526 81.7591304,22.3934386 C82.3493478,22.8789825 83.0406522,23.1769298 83.7756522,23.3775088 C85.5482609,23.8604561 87.363913,23.8760351 89.1815217,23.8552632 C89.2115217,23.8552632 89.2402174,23.8273509 89.2656522,23.8150175 C89.2656522,22.1974035 89.2656522,20.5856316 89.2656522,18.9225789 C88.7373913,18.9225789 88.2469565,18.9478947 87.761087,18.9147895 Z" id="Fill-2"></path>
                    <path d="M1.22086957,33.4947368 L2.03478261,33.4947368 C2.14434783,33.4947368 2.25,33.4843509 2.3523913,33.4635789 C2.45413043,33.4434561 2.54543478,33.4077544 2.62630435,33.3584211 C2.70717391,33.3097368 2.77173913,33.2415789 2.82130435,33.1558947 C2.87152174,33.0702105 2.89630435,32.9624561 2.89630435,32.8326316 C2.89630435,32.6924211 2.86369565,32.5801228 2.79782609,32.4937895 C2.73326087,32.4081053 2.64978261,32.3418947 2.54804348,32.2951579 C2.44565217,32.2484211 2.33217391,32.2185614 2.2076087,32.2055789 C2.0823913,32.1925965 1.9623913,32.1861053 1.84695652,32.1861053 L1.22086957,32.1861053 L1.22086957,33.4947368 Z M0,31.1578947 L2.05891304,31.1578947 C2.34586957,31.1578947 2.61717391,31.1838596 2.87282609,31.2357895 C3.12782609,31.2877193 3.35152174,31.3772982 3.54195652,31.5045263 C3.7323913,31.6324035 3.88304348,31.8031228 3.99586957,32.0186316 C4.10804348,32.2341404 4.16413043,32.5054737 4.16413043,32.8326316 C4.16413043,33.1545965 4.11195652,33.4246316 4.0076087,33.6427368 C3.90326087,33.8608421 3.75978261,34.0354561 3.57717391,34.1646316 C3.39391304,34.2944561 3.1773913,34.3866316 2.9276087,34.4411579 C2.67717391,34.4963333 2.40586957,34.5235965 2.11369565,34.5235965 L1.22086957,34.5235965 L1.22086957,36.6728421 L0,36.6728421 L0,31.1578947 Z" id="Fill-3"></path>
                    <polyline id="Fill-4" points="9.13043478 31.1578947 12.8947826 31.1578947 12.8947826 32.2802281 10.3513043 32.2802281 10.3513043 33.3084386 12.753913 33.3084386 12.753913 34.4294737 10.3513043 34.4294737 10.3513043 35.551807 13.0356522 35.551807 13.0356522 36.6728421 9.13043478 36.6728421 9.13043478 31.1578947"></polyline>
                    <path d="M19.4817391,33.4402105 L20.2017391,33.4402105 C20.3113043,33.4402105 20.4280435,33.4363158 20.55,33.4285263 C20.6732609,33.4207368 20.7834783,33.3973684 20.8826087,33.3584211 C20.9817391,33.3194737 21.063913,33.2584561 21.1297826,33.1760175 C21.1943478,33.0929298 21.2269565,32.9754386 21.2269565,32.8254912 C21.2269565,32.6852807 21.1982609,32.5729825 21.1408696,32.4898947 C21.0834783,32.406807 21.0104348,32.343193 20.9217391,32.2990526 C20.8336957,32.2555614 20.7313043,32.2257018 20.6171739,32.2094737 C20.5017391,32.1938947 20.3895652,32.1861053 20.28,32.1861053 L19.4817391,32.1861053 L19.4817391,33.4402105 Z M18.2608696,31.1578947 L20.4052174,31.1578947 C20.6869565,31.1578947 20.9543478,31.1851579 21.2073913,31.2396842 C21.461087,31.2942105 21.6821739,31.3857368 21.8726087,31.5123158 C22.0630435,31.6395439 22.2143478,31.8109123 22.3271739,32.0264211 C22.4393478,32.2419298 22.4947826,32.5106667 22.4947826,32.8326316 C22.4947826,33.2221053 22.3930435,33.553807 22.1902174,33.8257895 C21.986087,34.0984211 21.6886957,34.2710877 21.2980435,34.3437895 L22.7067391,36.6728421 L21.2432609,36.6728421 L20.0843478,34.4684211 L19.4817391,34.4684211 L19.4817391,36.6728421 L18.2608696,36.6728421 L18.2608696,31.1578947 Z" id="Fill-5"></path>
                    <polyline id="Fill-6" points="27.3913043 31.1578947 31.1086957 31.1578947 31.1086957 32.2802281 28.6128261 32.2802281 28.6128261 33.4012632 30.9215217 33.4012632 30.9215217 34.5235965 28.6128261 34.5235965 28.6128261 36.6728421 27.3913043 36.6728421 27.3913043 31.1578947"></polyline>
                    <polyline id="Fill-7" points="36.5217391 31.1578947 40.2867391 31.1578947 40.2867391 32.2802281 37.7426087 32.2802281 37.7426087 33.3084386 40.1458696 33.3084386 40.1458696 34.4294737 37.7426087 34.4294737 37.7426087 35.551807 40.4269565 35.551807 40.4269565 36.6728421 36.5217391 36.6728421 36.5217391 31.1578947"></polyline>
                    <path d="M48.9208696,32.0822456 C48.8008696,31.9374912 48.6528261,31.8258421 48.4786957,31.7479474 C48.3032609,31.6694035 48.1017391,31.6304561 47.8715217,31.6304561 C47.6426087,31.6304561 47.4293478,31.6745965 47.2343478,31.7628772 C47.0386957,31.851807 46.8691304,31.9744912 46.725,32.1328772 C46.5821739,32.2912632 46.47,32.4795088 46.3891304,32.697614 C46.3082609,32.9157193 46.2671739,33.1526491 46.2671739,33.4064561 C46.2671739,33.6667544 46.3082609,33.9043333 46.3891304,34.119193 C46.47,34.3347018 46.5808696,34.5216491 46.7217391,34.6800351 C46.8619565,34.8384211 47.0276087,34.9624035 47.2180435,35.0500351 C47.4084783,35.1383158 47.613913,35.1831053 47.8330435,35.1831053 C48.0828261,35.1831053 48.3045652,35.1305263 48.4982609,35.0266667 C48.6913043,34.922807 48.8497826,34.7774035 48.9756522,34.5904561 L49.9930435,35.3460351 C49.7582609,35.673193 49.4608696,35.9146667 49.1008696,36.0711053 C48.7402174,36.2262456 48.3704348,36.3041404 47.9895652,36.3041404 C47.5565217,36.3041404 47.1573913,36.2372807 46.7921739,36.1022632 C46.4263043,35.9672456 46.1113043,35.773807 45.8452174,35.5212982 C45.5791304,35.2694386 45.371087,34.965 45.2230435,34.6060351 C45.0743478,34.2477193 45,33.8478596 45,33.4064561 C45,32.9657018 45.0743478,32.565193 45.2230435,32.2075263 C45.371087,31.8485614 45.5791304,31.5434737 45.8452174,31.291614 C46.1113043,31.0404035 46.4263043,30.8469649 46.7921739,30.7112982 C47.1573913,30.5762807 47.5565217,30.5087719 47.9895652,30.5087719 C48.146087,30.5087719 48.3091304,30.5237018 48.4786957,30.551614 C48.6482609,30.5808246 48.8145652,30.625614 48.978913,30.6885789 C49.1432609,30.7502456 49.3017391,30.8333333 49.4530435,30.9378421 C49.6036957,31.0417018 49.7393478,31.1682807 49.86,31.3188772 L48.9208696,32.0822456" id="Fill-8"></path>
                    <polyline id="Fill-9" points="56.3634783 32.2328421 54.7826087 32.2328421 54.7826087 31.1578947 59.1652174 31.1578947 59.1652174 32.2328421 57.5843478 32.2328421 57.5843478 36.6728421 56.3634783 36.6728421 56.3634783 32.2328421"></polyline>
                    <polyline id="Fill-10" points="70.4347826 31.1578947 74.1521739 31.1578947 74.1521739 32.2802281 71.6556522 32.2802281 71.6556522 33.4012632 73.9643478 33.4012632 73.9643478 34.5235965 71.6556522 34.5235965 71.6556522 36.6728421 70.4347826 36.6728421 70.4347826 31.1578947"></polyline>
                    <polygon id="Fill-11" points="78.9130435 36.6728421 80.133913 36.6728421 80.133913 31.1578947 78.9130435 31.1578947"></polygon>
                    <polyline id="Fill-12" points="87.0156522 32.2328421 85.4347826 32.2328421 85.4347826 31.1578947 89.8173913 31.1578947 89.8173913 32.2328421 88.2365217 32.2328421 88.2365217 36.6728421 87.0156522 36.6728421 87.0156522 32.2328421"></polyline>
                </g>
            </g>
        </g>
    </g>
</svg>
