<?xml version="1.0" encoding="UTF-8"?>
<svg width="60px" height="110px" viewBox="0 0 60 110" version="1.1" xmlns="http://www.w3.org/2000/svg" xmlns:xlink="http://www.w3.org/1999/xlink">
    <!-- Generator: Sketch 63 (92445) - https://sketch.com -->
    <title>phone</title>
    <desc>Created with Sketch.</desc>
    <defs>
        <path d="M3.43332931,0.636363636 L49.839398,0.636363636 C50.8119639,0.636363636 51.1646398,0.737627939 51.5201953,0.927781131 C51.8757509,1.11793432 52.1547929,1.3969764 52.3449461,1.75253196 C52.5350993,2.10808752 52.6363636,2.46076341 52.6363636,3.43332931 L52.6363636,99.839398 C52.6363636,100.811964 52.5350993,101.16464 52.3449461,101.520195 C52.1547929,101.875751 51.8757509,102.154793 51.5201953,102.344946 C51.1646398,102.535099 50.8119639,102.636364 49.839398,102.636364 L3.43332931,102.636364 C2.46076341,102.636364 2.10808752,102.535099 1.75253196,102.344946 C1.3969764,102.154793 1.11793432,101.875751 0.927781131,101.520195 C0.737627939,101.16464 0.636363636,100.811964 0.636363636,99.839398 L0.636363636,3.43332931 C0.636363636,2.46076341 0.737627939,2.10808752 0.927781131,1.75253196 C1.11793432,1.3969764 1.3969764,1.11793432 1.75253196,0.927781131 C2.10808752,0.737627939 2.46076341,0.636363636 3.43332931,0.636363636 Z" id="path-1"></path>
    </defs>
    <g id="Desktop" stroke="none" stroke-width="1" fill="none" fill-rule="evenodd">
        <g id="Loading-1" transform="translate(-270.000000, -255.000000)">
            <g id="Group-5" transform="translate(139.000000, 255.000000)">
                <g id="Group-6" transform="translate(131.000000, 0.000000)">
                    <g id="Group">
                        <g id="Group-4">
                            <g id="phone">
                                <path d="M8.39089702,-1.24583642e-15 L51.609103,-1.14414787e-16 C54.5268007,6.64782862e-17 55.5848284,0.303792909 56.651495,0.874252485 C57.7181617,1.44471206 58.5552879,2.2818383 59.1257475,3.34850497 C59.6962071,4.41517164 60,5.47319932 60,8.39089702 L60,101.609103 C60,104.526801 59.6962071,105.584828 59.1257475,106.651495 C58.5552879,107.718162 57.7181617,108.555288 56.651495,109.125748 C55.5848284,109.696207 54.5268007,110 51.609103,110 L8.39089702,110 C5.47319932,110 4.41517164,109.696207 3.34850497,109.125748 C2.2818383,108.555288 1.44471206,107.718162 0.874252485,106.651495 C0.303792909,105.584828 -3.95583357e-16,104.526801 6.80832618e-16,101.609103 L6.79418591e-16,8.39089702 C-3.94761767e-16,5.47319932 0.303792909,4.41517164 0.874252485,3.34850497 C1.44471206,2.2818383 2.2818383,1.44471206 3.34850497,0.874252485 C4.41517164,0.303792909 5.47319932,7.23866839e-16 8.39089702,-1.24583642e-15 Z" id="Rectangle" fill="#343239"></path>
                                <g id="Group-2" transform="translate(3.363636, 3.363636)">
                                    <mask id="mask-2" fill="white">
                                        <use xlink:href="#path-1"></use>
                                    </mask>
                                    <use id="Mask" fill="#F6FAFF" xlink:href="#path-1"></use>
                                </g>
                            </g>
                        </g>
                    </g>
                </g>
            </g>
        </g>
    </g>
</svg>