<?xml version="1.0" encoding="UTF-8"?>
<svg width="133px" height="355px" viewBox="0 0 133 355" version="1.1" xmlns="http://www.w3.org/2000/svg" xmlns:xlink="http://www.w3.org/1999/xlink">
    <!-- Generator: Sketch 58 (84663) - https://sketch.com -->
    <title>Stroke</title>
    <desc>Created with Sketch.</desc>
    <g id="Animation" stroke="none" stroke-width="1" fill="none" fill-rule="evenodd">
        <g id="Loader-1-Copy-3" stroke="#FF931E" stroke-width="3">
            <path d="M95.8686265,103.076407 L93.4534169,125.799482 L98.6205746,171.351514 L98.8543788,176.536974 L98.8504164,176.536974 C99.0749485,180.045518 98.783458,179.586137 98.8504164,183.276829 C99.0200714,192.628063 98.1365126,207.970442 96.1997399,229.303967 C95.1252034,235.442446 94.5879352,245.339881 94.5879352,258.996271 C94.5879352,279.480856 92.7618496,289.083832 91.1357195,296.931098 C89.5095895,304.778365 88.3231202,312.421159 86.5338679,323.798734 C84.7446156,335.17631 84.0611175,335.585749 91.1357195,345.028877 C98.2103216,354.472005 86.9882594,352.846043 76.6024415,352.846043 C66.2166236,352.846043 73.0533021,346.340271 71.8339586,338.553386 C71.3705999,335.594318 71.9827337,334.438909 72.3603064,329.558595 C72.9763282,321.596204 73.1222586,308.492218 71.4380579,296.931098 C68.7215755,278.283928 75.2257861,272.05535 73.6757337,258.996271 C72.6423654,250.290218 71.2218502,240.392784 69.414188,229.303967 C69.4928788,206.034539 68.4252534,194.399825 66.2113116,194.399825 C62.8903991,194.399825 61.9818807,217.656139 61.9818807,229.303967 C61.9818807,240.951794 58.4873227,248.69763 58.4873227,258.996271 C58.4873227,269.294912 63.49839,274.943916 60.0249249,296.931098 C56.5514598,318.918281 60.0249249,320.182931 60.0249249,329.558595 C60.0249249,338.934258 61.2086202,341.427802 61.2086202,347.893821 C61.2086202,354.359839 55.0759083,352.846043 44.2278759,352.846043 C33.3798435,352.846043 43.9727005,342.307694 46.0277649,338.553386 C48.0828294,334.799079 48.0037738,319.691684 42.0471217,296.931098 C36.0904695,274.170513 38.5038238,261.234804 36.2927975,253.27532 C32.7417404,227.823419 31.6795175,202.243971 33.1061285,176.536974 L33.1639283,176.536974 L33.5937813,168.433748 L40.6985708,125.799482 L37.4251927,102.401213 C33.3424249,113.007934 30.7276899,120.032571 29.5809879,123.475124 C27.3547293,130.158651 25.9816412,132.277707 22.8725184,140.278728 C20.9470813,157.976619 11.4907192,174.683789 10.442252,180.623451 C9.39378476,186.563113 14.3447093,187.769354 13.9368366,196.537114 C13.5289639,205.304873 9.78035623,196.537114 9.78035623,198.566613 C9.78035623,200.596113 14.0388315,213.787861 6.80003466,208.714112 C-0.438762233,203.640363 2.43140853,185.018422 3.26410587,180.301116 C4.09680321,175.58381 5.188771,162.408244 7.81551149,150.044933 C9.56667182,141.802726 11.6071135,134.7055 13.9368366,128.753255 C15.7941738,118.913959 18.130922,109.713083 20.9470813,101.150628 C23.6763178,92.8524588 27.927309,83.5483024 33.7000552,73.2381585 C34.0599557,71.7566571 35.0878654,70.4812347 36.544926,69.8405763 L55.8825769,61.3379582 L57.7011163,48.4776956 C52.7688765,44.6663518 49.6908041,38.9194084 49.2588787,32.6804637 L48.7831613,25.8089644 C48.2263293,24.0606267 47.9258533,22.1981137 47.9258533,20.2654973 C47.9258533,10.1777417 56.1125318,2 66.2113116,2 C76.3100914,2 84.4967701,10.1777417 84.4967701,20.2654973 C84.4967701,21.8196903 84.3024451,23.3285457 83.9367418,24.7691423 L83.2016522,32.7716345 C82.6172388,39.1338034 79.3623573,44.9481723 74.2473976,48.7670982 C74.1078918,48.8712559 73.9668772,48.9723843 73.8244416,49.0704832 L75.6571324,60.9623505 L95.9007901,69.8903429 C97.0748272,70.4081245 97.9718582,71.3396998 98.4624356,72.4612483 C104.719389,83.0049134 109.24955,92.5385291 112.052919,101.062095 C114.869079,109.624551 117.205826,118.825427 119.063164,128.664723 C121.392887,134.616968 123.433328,141.714194 125.184489,149.956401 C127.811229,162.319712 128.903197,175.495278 129.735895,180.212584 C130.568591,184.929888 133.438762,203.55183 126.199965,208.62558 C118.961169,213.699329 123.219645,200.507581 123.219645,198.478081 C123.219645,196.448581 119.471036,205.216341 119.063164,196.448581 C118.655292,187.680822 123.606215,186.474581 122.557748,180.534919 C121.509282,174.595257 112.052919,157.888087 110.127482,140.190195 C107.01836,132.189175 105.645271,130.070118 103.419012,123.386592 C102.300059,120.027346 99.7832642,113.257284 95.8686265,103.076407 Z" id="Stroke"></path>
        </g>
    </g>
</svg>
