<?xml version="1.0" encoding="UTF-8"?>
<svg width="126px" height="73px" viewBox="0 0 126 73" version="1.1" xmlns="http://www.w3.org/2000/svg" xmlns:xlink="http://www.w3.org/1999/xlink">
    <!-- Generator: Sketch 58 (84663) - https://sketch.com -->
    <title>Dots</title>
    <desc>Created with Sketch.</desc>
    <g id="Animation" stroke="none" stroke-width="1" fill="none" fill-rule="evenodd">
        <g id="Loader-1-Copy-3" transform="translate(-4.000000, -108.000000)" fill="#FF931E">
            <g id="Dots" transform="translate(4.000000, 108.000000)">
                <circle id="Oval" cx="20" cy="38" r="2"></circle>
                <circle id="Oval-Copy-21" cx="28.5" cy="38.5" r="2.5"></circle>
                <circle id="Oval-Copy-47" cx="38.5" cy="38.5" r="2.5"></circle>
                <circle id="Oval-Copy-76" cx="48.5" cy="38.5" r="2.5"></circle>
                <circle id="Oval-Copy-85" cx="58.5" cy="38.5" r="2.5"></circle>
                <circle id="Oval-Copy-103" cx="68.5" cy="38.5" r="2.5"></circle>
                <circle id="Oval-Copy-94" cx="78.5" cy="38.5" r="2.5"></circle>
                <circle id="Oval-Copy-67" cx="88.5" cy="38.5" r="2.5"></circle>
                <circle id="Oval-Copy-58" cx="98.5" cy="38.5" r="2.5"></circle>
                <circle id="Oval-Copy-30" cx="107.5" cy="38.5" r="2.5"></circle>
                <circle id="Oval-Copy-34" cx="116.5" cy="37.5" r="1.5"></circle>
                <circle id="Oval-Copy-44" cx="125" cy="37" r="1"></circle>
                <circle id="Oval-Copy-23" cx="28.5" cy="47.5" r="2.5"></circle>
                <circle id="Oval-Copy-50" cx="38.5" cy="47.5" r="2.5"></circle>
                <circle id="Oval-Copy-77" cx="48.5" cy="47.5" r="2.5"></circle>
                <circle id="Oval-Copy-86" cx="58.5" cy="47.5" r="2.5"></circle>
                <circle id="Oval-Copy-104" cx="68.5" cy="47.5" r="2.5"></circle>
                <circle id="Oval-Copy-95" cx="78.5" cy="47.5" r="2.5"></circle>
                <circle id="Oval-Copy-68" cx="88.5" cy="47.5" r="2.5"></circle>
                <circle id="Oval-Copy-59" cx="98.5" cy="47.5" r="2.5"></circle>
                <circle id="Oval-Copy-31" cx="108" cy="47" r="2"></circle>
                <circle id="Oval-Copy-38" cx="116.5" cy="46.5" r="1.5"></circle>
                <circle id="Oval-Copy-45" cx="125" cy="46" r="1"></circle>
                <circle id="Oval-Copy-24" cx="29" cy="56" r="2"></circle>
                <circle id="Oval-Copy-51" cx="39" cy="56" r="2"></circle>
                <circle id="Oval-Copy-78" cx="49" cy="56" r="2"></circle>
                <circle id="Oval-Copy-87" cx="59" cy="56" r="2"></circle>
                <circle id="Oval-Copy-105" cx="69" cy="56" r="2"></circle>
                <circle id="Oval-Copy-96" cx="79" cy="56" r="2"></circle>
                <circle id="Oval-Copy-69" cx="89" cy="56" r="2"></circle>
                <circle id="Oval-Copy-60" cx="99" cy="56" r="2"></circle>
                <circle id="Oval-Copy-32" cx="108" cy="56" r="2"></circle>
                <circle id="Oval-Copy-39" cx="116.5" cy="55.5" r="1.5"></circle>
                <circle id="Oval-Copy-46" cx="124.5" cy="54.5" r="1"></circle>
                <circle id="Oval-Copy-25" cx="28.5" cy="64.5" r="1.5"></circle>
                <circle id="Oval-Copy-52" cx="38.5" cy="64.5" r="1.5"></circle>
                <circle id="Oval-Copy-79" cx="48.5" cy="64.5" r="1.5"></circle>
                <circle id="Oval-Copy-88" cx="58.5" cy="64.5" r="1.5"></circle>
                <circle id="Oval-Copy-106" cx="68.5" cy="64.5" r="1.5"></circle>
                <circle id="Oval-Copy-97" cx="78.5" cy="64.5" r="1.5"></circle>
                <circle id="Oval-Copy-70" cx="88.5" cy="64.5" r="1.5"></circle>
                <circle id="Oval-Copy-61" cx="98.5" cy="64.5" r="1.5"></circle>
                <circle id="Oval-Copy-33" cx="107.5" cy="64.5" r="1.5"></circle>
                <circle id="Oval-Copy-40" cx="115.5" cy="63.5" r="1"></circle>
                <circle id="Oval-Copy-26" cx="28.5" cy="72.5" r="1"></circle>
                <circle id="Oval-Copy-53" cx="38.5" cy="72.5" r="1"></circle>
                <circle id="Oval-Copy-80" cx="48.5" cy="72.5" r="1"></circle>
                <circle id="Oval-Copy-89" cx="58.5" cy="72.5" r="1"></circle>
                <circle id="Oval-Copy-107" cx="68.5" cy="72.5" r="1"></circle>
                <circle id="Oval-Copy-98" cx="78.5" cy="72.5" r="1"></circle>
                <circle id="Oval-Copy-71" cx="88.5" cy="72.5" r="1"></circle>
                <circle id="Oval-Copy-62" cx="98.5" cy="72.5" r="1"></circle>
                <circle id="Oval-Copy-7" cx="10" cy="38" r="2"></circle>
                <circle id="Oval-Copy-14" cx="1" cy="37" r="1"></circle>
                <circle id="Oval-Copy-4" cx="20" cy="29" r="2"></circle>
                <circle id="Oval-Copy-22" cx="28.5" cy="29.5" r="2.5"></circle>
                <circle id="Oval-Copy-54" cx="38.5" cy="29.5" r="2.5"></circle>
                <circle id="Oval-Copy-81" cx="48.5" cy="29.5" r="2.5"></circle>
                <circle id="Oval-Copy-90" cx="58.5" cy="29.5" r="2.5"></circle>
                <circle id="Oval-Copy-108" cx="68.5" cy="29.5" r="2.5"></circle>
                <circle id="Oval-Copy-99" cx="78.5" cy="29.5" r="2.5"></circle>
                <circle id="Oval-Copy-72" cx="88.5" cy="29.5" r="2.5"></circle>
                <circle id="Oval-Copy-63" cx="98.5" cy="29.5" r="2.5"></circle>
                <circle id="Oval-Copy-35" cx="108" cy="29" r="2"></circle>
                <circle id="Oval-Copy-41" cx="116.5" cy="28.5" r="1.5"></circle>
                <circle id="Oval-Copy-48" cx="125" cy="28" r="1"></circle>
                <circle id="Oval-Copy-27" cx="29" cy="20" r="2"></circle>
                <circle id="Oval-Copy-55" cx="39" cy="20" r="2"></circle>
                <circle id="Oval-Copy-82" cx="49" cy="20" r="2"></circle>
                <circle id="Oval-Copy-91" cx="59" cy="20" r="2"></circle>
                <circle id="Oval-Copy-109" cx="69" cy="20" r="2"></circle>
                <circle id="Oval-Copy-100" cx="79" cy="20" r="2"></circle>
                <circle id="Oval-Copy-73" cx="89" cy="20" r="2"></circle>
                <circle id="Oval-Copy-64" cx="99" cy="20" r="2"></circle>
                <circle id="Oval-Copy-36" cx="107.5" cy="19.5" r="1.5"></circle>
                <circle id="Oval-Copy-42" cx="116.5" cy="19.5" r="1.5"></circle>
                <circle id="Oval-Copy-49" cx="124.5" cy="18.5" r="1"></circle>
                <circle id="Oval-Copy-28" cx="29" cy="10" r="1"></circle>
                <circle id="Oval-Copy-56" cx="39" cy="10" r="1"></circle>
                <circle id="Oval-Copy-83" cx="49" cy="10" r="1"></circle>
                <circle id="Oval-Copy-92" cx="59" cy="10" r="1"></circle>
                <circle id="Oval-Copy-110" cx="69" cy="10" r="1"></circle>
                <circle id="Oval-Copy-101" cx="79" cy="10" r="1"></circle>
                <circle id="Oval-Copy-74" cx="89" cy="10" r="1"></circle>
                <circle id="Oval-Copy-65" cx="99" cy="10" r="1"></circle>
                <circle id="Oval-Copy-37" cx="108" cy="10" r="1"></circle>
                <circle id="Oval-Copy-43" cx="115.5" cy="9.5" r="1"></circle>
                <circle id="Oval-Copy-29" cx="28.5" cy="0.5" r="1"></circle>
                <circle id="Oval-Copy-57" cx="38.5" cy="0.5" r="1"></circle>
                <circle id="Oval-Copy-84" cx="48.5" cy="0.5" r="1"></circle>
                <circle id="Oval-Copy-93" cx="58.5" cy="0.5" r="1"></circle>
                <circle id="Oval-Copy-111" cx="68.5" cy="0.5" r="1"></circle>
                <circle id="Oval-Copy-102" cx="78.5" cy="0.5" r="1"></circle>
                <circle id="Oval-Copy-75" cx="88.5" cy="0.5" r="1"></circle>
                <circle id="Oval-Copy-66" cx="98.5" cy="0.5" r="1"></circle>
                <circle id="Oval-Copy-8" cx="10.5" cy="28.5" r="1.5"></circle>
                <circle id="Oval-Copy-15" cx="1" cy="28" r="1"></circle>
                <circle id="Oval-Copy-5" cx="19.5" cy="19.5" r="1.5"></circle>
                <circle id="Oval-Copy-9" cx="10" cy="19" r="1"></circle>
                <circle id="Oval-Copy-16" cx="0.5" cy="18.5" r="1"></circle>
                <circle id="Oval-Copy-6" cx="19" cy="10" r="1"></circle>
                <circle id="Oval-Copy-10" cx="10.5" cy="9.5" r="1"></circle>
                <circle id="Oval-Copy" cx="20" cy="47" r="2"></circle>
                <circle id="Oval-Copy-11" cx="10" cy="47" r="2"></circle>
                <circle id="Oval-Copy-18" cx="1" cy="46" r="1"></circle>
                <circle id="Oval-Copy-2" cx="20" cy="56" r="2"></circle>
                <circle id="Oval-Copy-12" cx="10.5" cy="55.5" r="1.5"></circle>
                <circle id="Oval-Copy-19" cx="0.5" cy="54.5" r="1"></circle>
                <circle id="Oval-Copy-3" cx="19.5" cy="64.5" r="1.5"></circle>
                <circle id="Oval-Copy-13" cx="10" cy="64" r="1"></circle>
            </g>
        </g>
    </g>
</svg>
