<?xml version="1.0" encoding="UTF-8"?>
<svg width="133px" height="355px" viewBox="0 0 133 355" version="1.1" xmlns="http://www.w3.org/2000/svg" xmlns:xlink="http://www.w3.org/1999/xlink">
    <!-- Generator: Sketch 58 (84663) - https://sketch.com -->
    <title>Combined Shape</title>
    <desc>Created with Sketch.</desc>
    <g id="Animation" stroke="none" stroke-width="1" fill="none" fill-rule="evenodd">
        <g id="Loader-1-Copy-3" fill="#FFFFFF">
            <path d="M254,-251 L254,561 L-121,561 L-121,-251 L254,-251 Z M66.300431,2 C56.187635,2 47.9895941,10.1777417 47.9895941,20.2654973 C47.9895941,22.1981137 48.2904872,24.0606267 48.848092,25.8089644 L48.848092,25.8089644 L49.3244697,32.6804637 C49.7569945,38.9194084 52.839339,44.6663518 57.7784243,48.4776956 L57.7784243,48.4776956 L55.9573609,61.3379582 L36.5928711,69.8405763 C35.1337883,70.4812347 34.1044519,71.7566571 33.7440519,73.2381585 C27.9632937,83.5483024 23.7064025,92.8524588 20.9733781,101.150628 C18.1533102,109.713083 15.8133188,118.913959 13.9534038,128.753255 C11.6204473,134.7055 9.57717367,141.802726 7.82358289,150.044933 C5.19319672,162.408244 4.09971338,175.58381 3.26586033,180.301116 C2.43200729,185.018422 -0.442147011,203.640363 6.80669667,208.714112 C14.0555403,213.787861 9.79115465,200.596113 9.79115465,198.566613 C9.79115465,196.537114 13.544965,205.304873 13.9534038,196.537114 C14.3618426,187.769354 9.40404666,186.563113 10.4539691,180.623451 C11.5038915,174.683789 20.9733781,157.976619 22.9014875,140.278728 C26.0149255,132.277707 27.3899193,130.158651 29.6192677,123.475124 C30.7675613,120.032571 33.3859253,113.007934 37.4743596,102.401213 L37.4743596,102.401213 L40.7522808,125.799482 L33.6376305,168.433748 L33.2071809,176.536974 L33.1493009,176.536974 C31.7207099,202.243971 32.7844071,227.823419 36.3403927,253.27532 C38.5544877,261.234804 36.1377839,274.170513 42.1027034,296.931098 C48.0676228,319.691684 48.1467881,334.799079 46.0888714,338.553386 C44.0309547,342.307694 33.4233958,352.846043 44.2864843,352.846043 C55.1495728,352.846043 61.2907963,354.359839 61.2907963,347.893821 C61.2907963,341.427802 60.1054581,338.934258 60.1054581,329.558595 C60.1054581,320.182931 56.6271722,318.918281 60.1054581,296.931098 C63.5837441,274.943916 58.5657219,269.294912 58.5657219,258.996271 C58.5657219,248.69763 62.06513,240.951794 62.06513,229.303967 C62.06513,217.656139 62.9749094,194.399825 66.300431,194.399825 C68.5174455,194.399825 69.5865527,206.034539 69.5077527,229.303967 C71.3179237,240.392784 72.7404105,250.290218 73.775213,258.996271 C75.3274167,272.05535 68.8141789,278.283928 71.5344315,296.931098 C73.2209697,308.492218 73.0748368,321.596204 72.45796,329.558595 C72.0798633,334.438909 71.4668799,335.594318 71.9308817,338.553386 C73.1519175,346.340271 66.3057503,352.846043 76.7059828,352.846043 C87.1062153,352.846043 98.3438527,354.472005 91.2594317,345.028877 C84.1750108,335.585749 84.8594575,335.17631 86.6511931,323.798734 C88.4429287,312.421159 89.6310447,304.778365 91.2594317,296.931098 C92.8878187,289.083832 94.7164387,279.480856 94.7164387,258.996271 C94.7164387,245.339881 95.2544526,235.442446 96.3304805,229.303967 C98.2699412,207.970442 99.1547263,192.628063 98.9848359,183.276829 C98.9177845,179.586137 99.2096796,180.045518 98.9848359,176.536974 L98.9848359,176.536974 L98.9888038,176.536974 L98.7546751,171.351514 L93.5803458,125.799482 L95.9989075,103.076407 C99.9189784,113.257284 102.439266,120.027346 103.559772,123.386592 C105.789121,130.070118 107.164115,132.189175 110.277553,140.190195 C112.205662,157.888087 121.675149,174.595257 122.725071,180.534919 C123.774993,186.474581 118.817198,187.680822 119.225636,196.448581 C119.634075,205.216341 123.387886,196.448581 123.387886,198.478081 C123.387886,200.507581 119.1235,213.699329 126.372343,208.62558 C133.621187,203.55183 130.747032,184.929888 129.91318,180.212584 C129.079327,175.495278 127.985843,162.319712 125.355457,149.956401 C123.601866,141.714194 121.558593,134.616968 119.225636,128.664723 C117.365721,118.825427 115.02573,109.624551 112.205662,101.062095 C109.398402,92.5385291 104.861954,83.0049134 98.5963166,72.4612483 C98.1050583,71.3396998 97.2067823,70.4081245 96.0311157,69.8903429 L96.0311157,69.8903429 L75.7593617,60.9623505 L73.9241273,49.0704832 C74.0667606,48.9723843 74.2079709,48.8712559 74.3476703,48.7670982 C79.4697291,44.9481723 82.7291281,39.1338034 83.3143526,32.7716345 L83.3143526,32.7716345 L84.0504624,24.7691423 C84.4166733,23.3285457 84.611268,21.8196903 84.611268,20.2654973 C84.611268,10.1777417 76.413227,2 66.300431,2 Z" id="Combined-Shape"></path>
        </g>
    </g>
</svg>
