<?xml version="1.0" encoding="UTF-8"?>
<svg width="204px" height="183px" viewBox="0 0 204 183" version="1.1" xmlns="http://www.w3.org/2000/svg" xmlns:xlink="http://www.w3.org/1999/xlink">
    <!-- Generator: sketchtool 56.3 (101010) - https://sketch.com -->
    <title>5131C251-5A54-4A4D-A730-5638AE8D14A2@1x</title>
    <desc>Created with sketchtool.</desc>
    <defs>
        <linearGradient x1="96.0718643%" y1="44.3736469%" x2="50%" y2="44.3736469%" id="linearGradient-1">
            <stop stop-color="#A8CCE7" offset="0%"></stop>
            <stop stop-color="#6F9DCA" offset="100%"></stop>
        </linearGradient>
    </defs>
    <g id="Desktop" stroke="none" stroke-width="1" fill="none" fill-rule="evenodd">
        <g id="Result-2" transform="translate(-208.000000, -267.000000)">
            <g id="Onboarding-3" transform="translate(194.000000, 246.000000)">
                <g id="Onboarding-2">
                    <g id="Background">
                        <ellipse id="Oval" fill="#D8B3FF" cx="137.977728" cy="50.9830308" rx="26.8954523" ry="26.960838"></ellipse>
                        <ellipse id="Oval-Copy-2" fill="#FF7748" cx="198.077443" cy="95.9177607" rx="10.6253639" ry="10.6511952"></ellipse>
                        <ellipse id="Oval-Copy-3" fill="#FF7748" cx="213.351403" cy="107.900355" rx="4.64859669" ry="4.65989792"></ellipse>
                        <path d="M95.2280255,20.2900606 L143.457627,48.1374616 C148.904404,51.2823888 152.25923,57.0948016 152.25923,63.3852204 L152.256344,119.085021 C152.256018,125.37544 148.900264,131.1882 143.453161,134.333692 L95.2206737,162.186091 C89.7735705,165.331583 83.0626642,165.331931 77.615887,162.187004 L29.3862854,134.339603 C23.9395085,131.194675 20.5846821,125.382263 20.5846821,119.091844 L20.587568,63.3920433 C20.5878939,57.1016245 23.9436485,51.288864 29.3907513,48.1433723 L77.6232388,20.2909729 C83.070342,17.1454812 89.7812482,17.1451335 95.2280255,20.2900606 Z" id="Polygon" fill="#FFDD88" fill-rule="nonzero" transform="translate(86.421956, 91.238532) rotate(-19.000000) translate(-86.421956, -91.238532) "></path>
                    </g>
                    <g id="Sizes-illustration" transform="translate(38.032900, 30.013490)">
                        <ellipse id="Oval" fill="#EEF1F4" cx="73.7134618" cy="172.416223" rx="73.7134618" ry="1"></ellipse>
                        <g id="Woman" transform="translate(78.848025, 86.500000) scale(-1, 1) translate(-78.848025, -86.500000) translate(32.848025, 0.000000)">
                            <g id="Head" transform="translate(29.219751, 0.000000)">
                                <path d="M25.342666,24.0450381 C25.5718467,26.5712915 25.9546233,28.5197117 26.4909958,29.8902987 L18.5173546,27.9899748 C19.426908,25.9686003 19.966285,23.6134897 20.1354856,20.924643 C19.3220187,20.3120193 18.711019,19.7474531 18.4134857,19.3015355 C17.0137844,17.2037824 16.4861216,13.8224618 17.1918826,11.3543838 C19.0666668,4.79817859 24.930722,1.44619674 29.0682731,4.14899275 C37.6109664,9.72938478 35.5861655,26.1228449 31.8681775,26.1228449 C30.2502561,26.1228449 27.7576567,25.2283705 25.342666,24.0450381 Z" id="Combined-Shape" fill="#B38C68"></path>
                                <path d="M33.5804591,9.90421148 C34.1804885,9.62061696 32.9678045,3.20962357 25.9752864,0.741769388 C19.2310007,-1.31274796 17.6985169,3.39094577 15.5716103,3.39094577 C13.4447036,3.39094577 9.90542365,-1.907407 4.45742954,0.741769388 C-0.990564562,3.39094577 -1.10671445,10.0908414 2.28349862,12.4021612 C2.73451711,12.7096486 -0.80528903,17.7259621 3.97425541,20.4837017 C6.07529875,21.5466875 8.93331375,21.1455872 9.36464481,21.1455872 C9.79597587,21.1455872 15.1818035,26.5380599 19.847525,19.2872206 L19.847525,17.2440814 L20.7212355,17.2440814 C20.5460974,16.9649318 20.3840565,16.7742488 20.2351129,16.6720325 C18.7428686,15.6479419 17.9853736,14.7115993 18.4633663,13.6353461 C19.2877014,11.779265 20.7630871,11.0940325 22.2885537,13.2108989 C23.8140202,15.3277652 24.8577234,16.2723821 28.67186,7.52335275 C29.7579607,7.5604647 30.5210859,7.67836671 30.9612355,7.87705878 C32.7526401,8.68573356 32.9804297,10.187806 33.5804591,9.90421148 Z" id="Path-5" fill="#322413"></path>
                            </g>
                            <g id="Legs" transform="translate(19.258472, 79.218265)">
                                <path d="M13.1996291,1.2393288 C12.1430344,23.8606199 11.1274395,37.5783973 10.1528444,42.3926611 C9.17824936,47.2069248 5.79396789,62.2517222 1.13686838e-13,87.527053 L4.78637878,88.9075574 L6.59981455,86.3871547 C16.9947349,61.0558318 26.4167785,32.2601136 34.8659453,-4.54747351e-13 L13.1996291,1.2393288 Z" id="Path-20" fill="#B38C68"></path>
                                <polygon id="Path-21" fill="#9D7757" points="20.652669 3.2317312 33.251145 43.6274466 40.7835802 88.1747171 46.7968941 88.1747171 43.2644189 44.4537787 39.7987732 3.2317312"></polygon>
                            </g>
                            <g id="Pants" transform="translate(21.250728, 73.226967)">
                                <polygon id="Path-18" fill="#5B8BB9" points="14.9312248 -4.40536496e-13 29.8511636 48.7206098 36.435993 86.3646456 45.1114219 84.9025049 37.1466316 -4.40536496e-13"></polygon>
                                <path d="M7.6446216,7.80107326 C9.73308711,31.6525225 7.18487991,57.2430669 -7.10542736e-15,84.5727064 L7.6446216,86.3646456 L20.8877559,54.0984704 L34.3646157,9.09494702e-13 L7.6446216,9.09494702e-13 L7.6446216,7.80107326 Z" id="Path-16" fill="url(#linearGradient-1)"></path>
                            </g>
                            <g id="Hands" transform="translate(0.000000, 70.564168)">
                                <path d="M73.3801573,6.43413478 L77.6768403,8.98377797 C78.9425495,11.1406503 80.3365392,13.058938 81.8588092,14.738641 C83.3810793,16.418344 83.8068035,15.6823503 83.1359817,12.53066 C83.0835792,11.5911581 84.6021426,11.5918496 87.6916719,12.5327343 C92.3259658,13.9440613 90.510358,10.7897759 81.035812,6.43762051 L76.7366436,1.95168556 L73.3801573,6.43413478 Z" id="Path-12" fill="#B48D69" transform="translate(81.757876, 8.783143) rotate(11.000000) translate(-81.757876, -8.783143) "></path>
                                <path d="M16.3511914,6.21673685 C14.2850737,10.5871988 13.8941142,14.0553121 15.1783128,16.6210767 C16.0267925,18.3162968 16.5013986,19.3831329 16.602131,19.8215851 C15.4752424,20.2901848 14.4487785,19.8739167 13.5227394,18.5727807 C12.1336808,16.6210767 9.1797369,18.2064571 6.45499553,20.1881936 C3.73025417,22.16993 -1.98981883,20.0892064 0.71237334,17.9664668 C3.41456551,15.8437271 8.74345289,12.6096255 9.44861458,9.85949267 C9.91872238,8.02607076 10.2869307,6.51477241 10.5532395,5.32559762 L16.3511914,6.21673685 Z" id="Path-13" fill="#B38C68"></path>
                            </g>
                            <path d="M20.1027777,165.504648 C19.5426851,163.980824 18.8885384,164.497423 18.1403375,167.054445 C17.3921366,169.611468 17.3921366,171.176827 18.1403375,171.750523 L42.2969027,171.750523 C42.7068729,169.963451 42.5005879,168.953667 41.6780479,168.721174 C40.8555079,168.48868 39.6191157,168.323721 37.9688712,168.226297 L27.0052838,163.374855 C26.0513981,164.877562 24.8784103,165.727423 23.4863202,165.924439 C22.0942301,166.121455 20.9663826,165.981525 20.1027777,165.504648 Z" id="Path-19" fill="#E5E4E5"></path>
                            <path d="M59.6349216,165.891921 C59.074829,164.368096 58.4206823,164.884695 57.6724814,167.441718 C56.9242805,169.99874 56.9242805,171.564099 57.6724814,172.137796 L81.8290466,172.137796 C82.2390168,170.350723 82.0327319,169.34094 81.2101919,169.108446 C80.3876519,168.875952 79.1512596,168.710993 77.5010151,168.613569 L66.5374277,163.762127 C65.583542,165.264834 64.4105542,166.114696 63.0184641,166.311712 C61.626374,166.508727 60.4985265,166.368797 59.6349216,165.891921 Z" id="Path-19-Copy" fill="#E5E4E5"></path>
                        </g>
                    </g>
                    <polyline id="Path-22" stroke="#587CA0" opacity="0.504673549" points="120.849905 115.07167 127.965893 154.934979 138.374369 188.53958"></polyline>
                    <path d="M115.997752,114.584598 C116.10211,119.403632 118.045638,121.723992 121.828335,121.545677" id="Path-23" stroke="#587CA0"></path>
                    <polyline id="Path-25" stroke="#729DC5" opacity="0.504673549" points="100.41838 188.773535 105.769594 150.314944 111.608874 120.976581"></polyline>
                    <polygon id="Path-26" stroke="#BFD5E9" points="115.271349 72.9273027 118.75455 74.944565 122.469538 72.9273027 122.469538 71.3119367 115.271349 71.3119367"></polygon>
                    <path d="M128.322252,73.4264412 L129.664879,76.1225038 L134.466922,74.6442096 L133.027884,71.9161885 L128.322252,73.4264412 Z" id="Rectangle" stroke="#A7C2DB" fill="#FFFFFF"></path>
                    <polygon id="Path-27" fill="#484AC7" points="128.514546 73.5402871 130.927343 72.7304997 131.685962 74.0185757 129.212509 74.8203107"></polygon>
                    <path d="M131.402923,73.5505243 L133.387446,72.8665755" id="Path-28" stroke="#FF5A5A"></path>
                    <path d="M129.447826,75.3505791 L133.789737,73.7754052" id="Path-28-Copy" stroke="#FF5A5A"></path>
                    <path d="M117.059043,117.220151 L120.346865,117.220151" id="Path-14" stroke="#587CA0"></path>
                    <g id="Group" transform="translate(117.247817, 86.144379) scale(-1, 1) translate(-117.247817, -86.144379) translate(80.247817, 54.644379)">
                        <path d="M46.7713523,2.66279881 C46.7713523,2.66279881 47.7273822,14.8936989 68.0021319,36.6791575 C73.3493142,42.4247683 74.6068096,47.1215899 73.1529429,49.4926687 C72.4756356,50.5972742 72.2708119,51.3368923 72.5384719,51.7115229 L68.0021319,53.9216759 C67.8504494,53.6117537 66.9713734,53.4567926 65.3649037,53.4567926 C62.9551992,53.4567926 61.7836386,53.7658046 55.5277607,44.5721429 C51.3571755,38.4430352 47.679159,30.4283166 44.4937112,20.5279874 C46.0121386,8.61786166 46.7713523,2.66279881 46.7713523,2.66279881 Z" id="Path-14" fill="#E94843"></path>
                        <path d="M41.5395393,0.432240869 L49.8198527,2.61264604 C51.1168042,3.01807286 51.4410421,4.61414336 50.7925664,7.40085756 C49.8198527,11.5809289 46.4542743,24.2974869 52.5208069,40.5096152 C58.5873395,56.7217435 49.7959023,59.247146 34.3484256,62.0323952 C18.9009489,64.8176445 14.7150687,56.5723179 17.6049046,44.6913346 C16.0966386,47.1177427 14.728058,49.6104489 13.4991628,52.1694531 C11.65582,56.0079595 6.46888629,56.9616294 6.02716954,58.426399 L0.469042523,55.4568412 C0.74262835,54.8528317 0.74262835,54.0300821 0.469042523,52.9885925 C0.0586637831,51.4263581 -1.31040233,49.1812244 3.92389855,38.4108218 C9.15819944,27.6404193 17.2922192,14.9673847 35.3059906,4.31803755 C37.2133992,3.19041936 37.32215,3.29175333 37.5457975,1.27473264 C37.6948959,-0.0699478179 39.0261431,-0.350778408 41.5395393,0.432240869 Z" id="Path-10" fill="#FF665A"></path>
                    </g>
                </g>
            </g>
        </g>
    </g>
</svg>