<?xml version="1.0" encoding="UTF-8"?>
<svg width="92px" height="542px" viewBox="0 0 92 542" version="1.1" xmlns="http://www.w3.org/2000/svg" xmlns:xlink="http://www.w3.org/1999/xlink">
    <!-- Generator: sketchtool 56.3 (101010) - https://sketch.com -->
    <title>4450CF51-7D6D-469A-8A4F-C9BEB2B3D7E7@1x</title>
    <desc>Created with sketchtool.</desc>
    <g id="Mobile" stroke="none" stroke-width="1" fill="none" fill-rule="evenodd" opacity="0.4">
        <g id="Step-7_2" transform="translate(-141.000000, -61.000000)" stroke="#FFFFFF" stroke-width="5">
            <path d="M212.164436,253.471286 C216.136211,226.554583 228.721195,215.17608 222.850127,187.675864 C222.209332,184.665862 221.380917,181.696301 220.552501,178.732517 C219.738518,175.814952 218.91299,172.871389 217.481303,170.202251 C216.032298,167.507114 214.003114,165.178839 212.282781,162.648357 C207.130442,155.077132 201.317103,143.747736 204.428712,134.394197 C205.840193,130.159395 208.764181,130.274942 214.213826,124.237605 C225.944417,111.24433 228.369047,97.410451 221.236593,86.0897215 C220.936401,85.6159783 220.607344,85.1393464 220.260968,84.6627145 C224.665713,83.3888075 227.930304,79.3446581 227.993806,74.5407864 C228.068854,68.7201 223.412987,64 217.593875,64 C211.797855,64 207.038075,68.6854359 206.92839,74.4801242 C200.875474,72.0825213 193.281186,71.2130292 184.185937,73.4199793 C178.831546,74.7169958 171.701979,77.0799345 168.36234,79.8963956 C166.592937,81.3898422 167.637837,82.8024058 166.667985,84.6713805 C163.446691,90.8733724 161.299162,98.5745883 161.218341,100.576442 C161.07979,104.019746 162.915582,106.798655 160.889284,110.363284 C158.744641,114.138786 157.056059,115.438691 154.478447,119.624386 C151.90372,123.81008 157.633352,123.578986 157.959522,124.431146 C159.171838,127.576916 157.260998,129.038588 157.292749,130.436708 C157.353365,133.232948 159.922318,132.588773 159.922318,132.588773 C158.554134,133.056739 157.108016,134.862163 158.926488,136.110072 C160.632388,137.279986 161.94573,136.569371 160.026231,142.106967 C157.442845,149.565534 175.272535,145.015866 177.111213,146.20889 C180.603835,148.479391 180.687543,148.24252 182.913007,156.755454 C183.663487,159.629689 184.067592,161.394671 183.851107,163.295421 C182.875482,171.923903 180.797228,172.833836 175.835396,177.473053 C170.729241,182.250927 165.449897,193.22141 161.391136,199.996077 C155.826056,209.285009 148.054885,223.998103 148.733204,227.831379 C150.710432,239.025006 159.093903,240.885315 165.172797,239.114555 C165.086203,240.882426 164.99095,247.75748 165.449897,255.051393 C165.911732,262.342416 171.886713,268.550185 168.22379,293.415927 C163.706473,324.090799 164.739827,327.40989 165.12084,340.703587 C165.230526,344.493533 164.863945,343.343839 163.515966,350.230448 C159.792427,369.263948 160.37838,386.532465 164.301085,407.200957 C167.871641,426.026472 171.843416,437.436751 175.58716,447.798439 C176.438667,450.155601 176.369392,451.308183 175.702619,453.405363 C172.192678,464.414116 174.475871,471.211175 179.654188,477.427611 C181.588119,479.747219 180.973303,489.874925 181.553482,494.852117 C186.359445,536.119772 184.846938,558.192162 183.181448,570.963008 C182.687862,574.741399 178.837319,579.730146 175.396653,582.774812 C170.772538,586.862292 161.587808,588.24308 157.359138,589.583427 C155.532006,590.161162 153.938678,591.186643 152.504105,591.183754 C150.578833,591.175088 149.204876,591.365741 148.546762,591.533284 C146.231818,592.116797 144.219952,593.139389 144.00924,595.768087 C143.801415,598.396784 147.123735,599.748685 151.499615,599.896008 C155.878382,600.040441 173.127892,599.676468 178.055087,598.434336 C193.731475,594.482625 194.326086,600 201.334422,600 C203.98131,600 209.306836,598.417004 210.192981,596.236052 C211.656418,592.639648 207.834739,585.859921 207.21415,583.502759 C203.308763,568.715616 202.260977,567.323273 205.678551,553.281409 C211.217676,530.518626 214.776686,526.997327 216.116006,498.061438 C216.970399,479.59123 212.929349,475.154221 209.988042,467.663879 C209.257766,465.80357 209.399203,462.250496 208.896958,459.751789 C208.455329,457.562171 207.335381,456.530913 207.199717,453.471803 C207.081372,450.716004 208.902731,447.743554 209.814854,444.473571 C217.706447,416.103863 216.254556,393.248642 215.09997,374.602225 C214.768027,369.235061 219.461418,365.326679 220.613117,363.633914 C226.931587,354.338148 231.694254,342.771881 229.425493,331.8469 C226.074308,315.730965 213.258406,302.003967 211.278291,285.654048 C210.565335,279.758256 211.298497,259.346857 212.164436,253.471286 Z" id="Fill-8"></path>
        </g>
    </g>
</svg>