<?xml version="1.0" encoding="UTF-8"?>
<svg width="317px" height="284px" viewBox="0 0 317 284" version="1.1" xmlns="http://www.w3.org/2000/svg" xmlns:xlink="http://www.w3.org/1999/xlink" style="background: #FFFFFF;">
    <!-- Generator: Sketch 55.2 (78181) - https://sketchapp.com -->
    <title>Onboarding 2</title>
    <desc>Created with Sketch.</desc>
    <g id="Desktop" stroke="none" stroke-width="1" fill="none" fill-rule="evenodd">
        <g id="Onboarding-2" transform="translate(-143.000000, -154.000000)">
            <g transform="translate(143.000000, 154.000000)">
                <g id="Background">
                    <circle id="Oval" fill="#D8B3FF" cx="196.5" cy="55.5" r="40.5"></circle>
                    <circle id="Oval-Copy-2" fill="#FF7748" cx="287" cy="123" r="16"></circle>
                    <circle id="Oval-Copy-3" fill="#FF7748" cx="310" cy="141" r="7"></circle>
                    <path d="M132,32.350853 L192.272413,67.149147 C199.079237,71.0790685 203.272413,78.3418629 203.272413,86.2017059 L203.272413,155.798294 C203.272413,163.658137 199.079237,170.920931 192.272413,174.850853 L132,209.649147 C125.193176,213.579069 116.806824,213.579069 110,209.649147 L49.7275866,174.850853 C42.920763,170.920931 38.7275866,163.658137 38.7275866,155.798294 L38.7275866,86.2017059 C38.7275866,78.3418629 42.920763,71.0790685 49.7275866,67.149147 L110,32.350853 C116.806824,28.4209315 125.193176,28.4209315 132,32.350853 Z" id="Polygon" fill="#FFDD88" transform="translate(121.000000, 121.000000) rotate(-19.000000) translate(-121.000000, -121.000000) "></path>
                </g>
                <g id="Sizes-illustration" transform="translate(46.000000, 22.000000)">
                    <ellipse id="Oval" fill="#EEF1F4" cx="111" cy="261" rx="111" ry="1"></ellipse>
                    <g id="Woman" transform="translate(111.500000, 130.500000) scale(-1, 1) translate(-111.500000, -130.500000) translate(44.000000, 0.000000)">
                        <g id="Head" transform="translate(28.000000, 0.000000)">
                            <path d="M38.1617667,36.1199472 C38.506874,39.9148315 39.0832707,42.8417071 39.8909569,44.9005739 L27.8840026,42.0459475 C29.2536361,39.0094816 30.0658466,35.4716844 30.3206341,31.4325557 C29.0956906,30.5122854 28.1756284,29.664206 27.7275936,28.994358 C25.6198803,25.8431577 24.8253094,20.7638095 25.888066,17.0563149 C28.7111738,7.2077223 37.5414486,2.17244612 43.7719005,6.23252908 C56.6357511,14.6152758 53.5867435,39.2411846 47.9880827,39.2411846 C45.5517668,39.2411846 41.798334,37.897524 38.1617667,36.1199472 Z" id="Combined-Shape" fill="#B38C68"></path>
                            <path d="M50.5664891,14.8778968 C51.4700318,14.4518871 49.6439349,4.82142857 39.114386,1.11427027 C28.958633,-1.9719822 26.6509717,5.09380695 23.4482101,5.09380695 C20.2454485,5.09380695 14.9158919,-2.86526641 6.71213463,1.11427027 C-1.49162261,5.09380695 -1.66652469,15.1582483 3.43856251,18.6302639 C4.11772004,19.0921651 -1.21262901,26.627565 5.98455614,30.770183 C9.14837189,32.3669778 13.4520589,31.7644535 14.1015704,31.7644535 C14.751082,31.7644535 22.8612271,39.8649117 29.8870142,28.9728544 L29.8870142,25.903694 L31.2026743,25.903694 C30.938946,25.4843614 30.6949398,25.1979214 30.4706559,25.0443742 C28.2235885,23.5060071 27.0829293,22.099453 27.8027054,20.4827282 C29.0440145,17.6945625 31.2656957,16.6652208 33.5627903,19.8451326 C35.8598848,23.0250444 37.4315251,24.4440279 43.1749695,11.3014212 C44.8104534,11.35717 45.9595907,11.5342799 46.6223815,11.8327509 C49.3199338,13.0475251 49.6629463,15.3039065 50.5664891,14.8778968 Z" id="Path-5" fill="#1C1849"></path>
                        </g>
                        <g id="Legs" transform="translate(20.000000, 121.000000)">
                            <path d="M19.8764079,1.86169349 C18.285355,35.8429181 16.7560409,56.4494729 15.2884657,63.681358 C13.8208904,70.9132431 8.72473521,93.5132191 1.13686838e-13,131.481286 L7.20747652,133.55505 L9.93820393,129.768955 C25.591195,91.716778 39.7791983,48.4604597 52.5022138,-4.54747351e-13 L19.8764079,1.86169349 Z" id="Path-20" fill="#B38C68"></path>
                            <polygon id="Path-21" fill="#9D7757" points="31.0994248 4.85463819 50.0705978 65.5362266 61.4131706 132.454193 70.4682038 132.454193 65.1488939 66.7775252 59.9302179 4.85463819"></polygon>
                        </g>
                        <g id="Pants" transform="translate(23.000000, 112.000000)">
                            <polygon id="Path-18" fill="#26165C" points="22.483898 -4.40536496e-13 44.9508011 73.1870687 54.8664399 129.735142 67.9301678 127.538745 55.9365414 -4.40536496e-13"></polygon>
                            <path d="M11.5115065,11.7186071 C14.6563822,47.5477492 10.8192134,85.9893232 -7.10542736e-15,127.043329 L11.5115065,129.735142 L31.4534258,81.2655769 L51.7472963,9.09494702e-13 L11.5115065,9.09494702e-13 L11.5115065,11.7186071 Z" id="Path-16" fill="#313478"></path>
                        </g>
                        <g id="Hands" transform="translate(0.000000, 108.000000)">
                            <path d="M109.632532,6.73633223 L116.100294,10.5637522 C118.004594,13.8031812 120.102209,16.6840938 122.393139,19.2064902 C124.684069,21.7288866 125.325584,20.6229034 124.317685,15.8885407 C124.239425,14.4771519 126.525922,14.4771519 131.177176,15.8885407 C138.154057,18.005624 135.422458,13.2681458 121.159632,6.73633223 L114.689452,2.30926389e-13 L109.632532,6.73633223 Z" id="Path-12" fill="#B48D69"></path>
                            <path d="M26.6145132,24.4187339 C23.5032895,30.9839493 22.9145706,36.1936756 24.8483565,40.047913 C26.1260234,42.5944367 26.8406998,44.1970153 26.9923858,44.855649 C25.2954822,45.5595695 23.7498013,44.9342603 22.3553431,42.9797214 C20.2636559,40.047913 15.8155162,42.4294379 11.7125168,45.4063604 C7.60951736,48.3832829 -1.00394466,45.257664 3.0650995,42.0689294 C7.13414366,38.8801949 15.1585463,34.021996 16.2204005,29.8908046 C16.9283033,27.136677 17.4827627,24.8664366 17.8837786,23.0800834 L26.6145132,24.4187339 Z" id="Path-13" fill="#B38C68"></path>
                        </g>
                        <g id="Jacket" transform="translate(14.000000, 39.000000)">
                            <path d="M54.8451709,8.92067998 C63.9790512,29.1787142 79.9337362,48.7149718 102.709226,67.5294528 L84.450281,89.7938442 C61.9273895,63.9002367 50.6659438,39.0557853 50.6659438,15.26049 L54.8451709,8.92067998 Z" id="Path-11" fill="#26165C"></path>
                            <path d="M43.1162056,0.352373968 L54.7240972,1.75544263 C54.379838,20.2136146 59.8527443,43.880473 71.142816,72.7560178 L43.1162056,72.7560178 L43.1162056,0.352373968 Z" id="Skirt" fill="#E0E2EE"></path>
                            <path d="M56.3114427,89.7938442 C37.9275732,89.7054212 26.6281198,92.3296875 22.4130824,97.666643 L19.9202034,84.7396738 L53.232307,81.2556529 C53.6055964,83.2279141 54.0173336,84.838208 54.4675188,86.0865346 C54.9177039,87.3348612 55.5323452,88.5706311 56.3114427,89.7938442 Z" id="Path-17" fill="#262866"></path>
                            <path d="M39.7098014,2.7000624e-13 L45.6674051,0.605699628 L49.4189795,10.2390275 C51.5819172,41.6321238 53.879405,66.9146262 56.3114427,86.0865346 L19.3118005,86.0865346 C17.8841194,69.108008 18.9423461,53.1267919 22.4864808,38.1428863 C26.0306155,23.1589807 31.7717224,10.4446853 39.7098014,2.7000624e-13 Z" id="Path-6" fill="#323578"></path>
                            <path d="M26.3835197,52.9234448 C26.9218551,68.4296028 28.9098769,79.4839661 32.3475851,86.0865346 L21.2096109,86.0865346 L26.3835197,52.9234448 Z" id="Path-8" fill="#262866"></path>
                            <path d="M26.4368503,54.9988238 C24.860724,68.4760987 24.0726609,81.4385614 24.0726609,93.886212 L1.0658141e-13,93.886212 C3.24925757,56.4777689 16.2856122,25.344641 39.1090639,0.486828466 C35.1836997,13.1197553 32.4508766,22.7491302 30.9105947,29.374953 C29.6348292,34.8629069 28.143581,43.4041972 26.4368503,54.9988238 Z" id="Path-7" fill="#323578"></path>
                            <path d="M30.9765312,66.7331106 C36.6331459,65.2534893 41.8609607,62.7841619 46.6599758,59.3251285 L46.6599758,66.7331106 L30.9765312,66.7331106 Z" id="Path-9" fill="#65699F"></path>
                        </g>
                        <path d="M21.2713815,250.617579 C20.4279768,248.328522 19.4429425,249.104546 18.3162786,252.945651 C17.1896147,256.786756 17.1896147,259.138206 18.3162786,260 L54.6919783,260 C55.3093239,257.315497 54.9986937,255.798622 53.7600877,255.449375 C52.5214816,255.100128 50.6596841,254.85233 48.1746952,254.705981 L31.6653877,247.418248 C30.2289973,249.675583 28.4626761,250.952227 26.366424,251.24818 C24.2701719,251.544133 22.5718244,251.333933 21.2713815,250.617579 Z" id="Path-19" fill="#E5E4E5"></path>
                        <path d="M80.8001008,251.199331 C79.9566961,248.910274 78.9716618,249.686298 77.8449979,253.527403 C76.718334,257.368508 76.718334,259.719958 77.8449979,260.581752 L114.220698,260.581752 C114.838043,257.897249 114.527413,256.380375 113.288807,256.031127 C112.050201,255.68188 110.188403,255.434082 107.703414,255.287734 L91.194107,248 C89.7577166,250.257335 87.9913953,251.533979 85.8951433,251.829932 C83.7988912,252.125885 82.1005437,251.915685 80.8001008,251.199331 Z" id="Path-19-Copy" fill="#E5E4E5"></path>
                    </g>
                    <g id="Group-2" transform="translate(145.000000, 74.000000)">
                        <rect id="Combined-Shape" stroke="#313478" stroke-width="3" fill="#FFFFFF" x="1.5" y="3.5" width="23" height="23" rx="4"></rect>
                        <text id="M" font-family="Futura-Bold, Futura" font-size="16" font-weight="bold" fill="#FF2121">
                            <tspan x="5.22" y="21">M</tspan>
                        </text>
                    </g>
                    <g id="Group-2-Copy" transform="translate(78.000000, 146.000000)">
                        <rect id="Combined-Shape" stroke="#313478" stroke-width="3" fill="#FFFFFF" x="1.5" y="3.5" width="23" height="23" rx="4"></rect>
                        <text id="S" font-family="Futura-Bold, Futura" font-size="16" font-weight="bold" fill="#FF2121">
                            <tspan x="8.332" y="21">S</tspan>
                        </text>
                    </g>
                </g>
            </g>
        </g>
    </g>
</svg>