<?xml version="1.0" encoding="UTF-8"?>
<svg width="389px" height="284px" viewBox="0 0 389 284" version="1.1" xmlns="http://www.w3.org/2000/svg" xmlns:xlink="http://www.w3.org/1999/xlink">
    <defs>
        <linearGradient x1="50%" y1="50%" x2="0%" y2="50%" id="linearGradient-1">
            <stop stop-color="#F5FAFF" stop-opacity="0" offset="0%"></stop>
            <stop stop-color="#D8EAFF" offset="100%"></stop>
        </linearGradient>
        <path d="M80.7181457,81.090797 C78.9227768,92.3183037 79.2434288,109.441999 81.6801016,132.461883 L38.4646465,132.461883 C42.4170104,115.60691 45.0623781,84.9987789 43.5202809,83.0053541 C37.382157,75.0707775 39.4328762,70.240172 40.6113206,68.3385522 C41.3969502,67.0708057 42.5465791,64.3967725 44.0602073,60.3164526 C44.7701592,57.9925119 44.5641727,54.4224605 48.4067805,52.9002187 C49.7915218,52.351656 53.0624023,51.7009682 58.2194218,50.9481552 C55.0104867,62.4857246 56.0934154,66.3960383 61.468208,62.6790963 C66.8430006,58.9621544 69.8551408,54.3688392 70.5046288,48.8991509 C79.6260559,47.6079592 85.000105,50.6390796 86.6267763,57.9925119 L88.9494949,66.2394118 L79.2476875,69.3347036 L80.7181457,81.090797 Z" id="path-2"></path>
        <path d="M47.079475,2.83550601 C45.8459815,2.20266039 44.4650389,1.92049925 43.084712,2.01927595 C38.8847946,2.31982362 35.7215572,5.99881813 36.0194237,10.2365403 L54.4081783,271.851842 C54.691239,275.878922 58.0116217,279 62.0128017,279 L106.375712,279 C106.627049,279 106.878232,278.987459 107.12834,278.962423 C111.318239,278.543017 114.37786,274.775864 113.962196,270.54825 L90.2069633,28.9401265 C89.9503235,26.3299121 88.3931774,24.0315626 86.0759077,22.842684 L47.079475,2.83550601 Z" id="path-4"></path>
        <path d="M80.7181457,81.090797 C78.9227768,92.3183037 79.2434288,109.441999 81.6801016,132.461883 L38.4646465,132.461883 C42.4170104,115.60691 45.0623781,84.9987789 43.5202809,83.0053541 C37.382157,75.0707775 39.4328762,70.240172 40.6113206,68.3385522 C41.3969502,67.0708057 42.0779883,64.8150528 42.6544349,61.5712934 C43.5686975,53.4274359 47.7522709,49.7104939 55.2051551,50.4204676 C54.0057311,62.3098287 56.0934154,66.3960383 61.468208,62.6790963 C66.8430006,58.9621544 69.8551408,54.3688392 70.5046288,48.8991509 C79.6260559,47.6079592 85.000105,50.6390796 86.6267763,57.9925119 L88.9494949,66.2394118 L79.2476875,69.3347036 L80.7181457,81.090797 Z" id="path-6"></path>
        <path d="M47.079475,2.83550601 C45.8459815,2.20266039 44.4650389,1.92049925 43.084712,2.01927595 C38.8847946,2.31982362 35.7215572,5.99881813 36.0194237,10.2365403 L54.4081783,271.851842 C54.691239,275.878922 58.0116217,279 62.0128017,279 L106.375712,279 C106.627049,279 106.878232,278.987459 107.12834,278.962423 C111.318239,278.543017 114.37786,274.775864 113.962196,270.54825 L90.2069633,28.9401265 C89.9503235,26.3299121 88.3931774,24.0315626 86.0759077,22.842684 L47.079475,2.83550601 Z" id="path-8"></path>
    </defs>
    <g id="Desktop" stroke="none" stroke-width="1" fill="none" fill-rule="evenodd">
        <g id="Onboarding-1-" transform="translate(-105.000000, -154.000000)">
            <g id="Onboarding-1@1x" transform="translate(105.000000, 154.000000)">
                <circle id="Oval" fill="#D8B3FF" fill-rule="nonzero" cx="266.5" cy="48.5" r="41.5"></circle>
                <circle id="Oval-Copy-2" fill="#FF7748" fill-rule="nonzero" cx="359.5" cy="118.5" r="16.5"></circle>
                <circle id="Oval-Copy-3" fill="#FF7748" fill-rule="nonzero" cx="382" cy="136" r="7"></circle>
                <path d="M199.661705,25.8113824 L261.355046,61.4529464 C268.322342,65.478102 272.612105,72.9208233 272.608427,80.9775093 L272.575836,152.317084 C272.572155,160.37377 268.27559,167.820417 261.304614,171.851948 L199.578684,207.549958 C192.607708,211.581489 184.021379,211.585416 177.054084,207.56026 L115.360742,171.918696 C108.393448,167.89354 104.103683,160.450819 104.107362,152.394133 L104.139953,81.0545589 C104.143634,72.9978729 108.4402,65.5512246 115.411175,61.5196943 L177.137106,25.8216841 C184.108081,21.7901538 192.69441,21.7862268 199.661705,25.8113824 Z" id="Polygon" fill="#FFDD88" fill-rule="nonzero" transform="translate(188.357894, 116.685821) rotate(-19.000000) translate(-188.357894, -116.685821) "></path>
                <g id="Group-7" transform="translate(171.000000, 12.000000)">
                    <g id="Head" transform="translate(59.118644, 30.685606) scale(-1, 1) translate(-59.118644, -30.685606) translate(44.618644, 7.185606)" fill="#B38C68" fill-rule="nonzero">
                        <path d="M13.2683648,32.9691531 C13.6014002,37.09794 14.0897353,41.5059495 14.7333702,46.1931818 L2.80863046,43.1136364 C4.20171218,39.9699367 5.05533945,34.9863347 5.3695123,28.1628304 C4.13229673,27.2170421 3.20300228,26.345399 2.75070882,25.6570872 C0.625133485,22.4223323 -0.176171024,17.2083044 0.895591995,13.4025051 C3.74262444,3.29277554 12.6477321,-1.87601175 18.9309844,2.29172493 C31.9038507,10.8967414 28.829004,36.1756099 23.182897,36.1756099 C20.7248306,36.1756099 16.9372917,34.7950825 13.2683648,32.9691531 Z" id="Combined-Shape"></path>
                    </g>
                    <g id="Legs" transform="translate(64.847458, 197.893939) scale(-1, 1) translate(-64.847458, -197.893939) translate(28.847458, 131.393939)" fill-rule="nonzero">
                        <polygon id="Path-21" fill="#9D7757" points="31.3629792 0.877299048 50.4949249 63.167869 61.9336212 131.860175 71.065392 131.860175 65.7010032 64.4420808 60.4381011 0.877299048"></polygon>
                        <path d="M19.7912486,4.22166858 C18.3557812,34.8261287 16.8980412,53.8401786 15.418029,61.2638183 C13.9380166,68.6874579 8.79867364,91.8866757 1.13686838e-13,130.861472 L7.26855683,132.990222 L10.022426,129.103738 C25.4297399,83.1984215 37.0124231,45.6189506 44.7704757,16.365325 C45.9520666,11.9098488 47.1342183,7.38941136 48.3169308,2.80401285 L19.7912486,4.22166858 Z" id="Path-20" fill="#B38C68"></path>
                    </g>
                    <g id="Hands" transform="translate(59.500000, 105.772727) scale(-1, 1) translate(-59.500000, -105.772727) translate(0.000000, 49.272727)" fill-rule="nonzero">
                        <g id="Group-3" transform="translate(54.639862, 9.587062)" fill="#9D7757">
                            <path d="M7.16568787,15.6817122 L15.3523809,29.4322268 L29.8842963,44.0189285 L35.148654,48.6388406 L38.785602,48.7353888 C41.378544,45.6801735 42.2766269,43.5884367 41.4798506,42.4601785 C39.5899787,39.7840656 29.7315261,32.6339797 25.9078944,27.2196072 C23.3332333,23.573813 18.7759538,17.4391125 12.2360557,8.81550576 L7.16568787,15.6817122 Z" id="Path-12" transform="translate(24.463235, 28.775447) rotate(22.000000) translate(-24.463235, -28.775447) "></path>
                            <path d="M21.6913217,8.53273613 L23.1872426,14.5325472 L39.8467871,33.7726919 L43.1758413,38.764019 C44.4484195,42.4908889 46.2464311,45.652482 48.5698762,48.2487984 C50.8933213,50.8451148 51.536267,49.7136907 50.4987133,44.8545262 C53.5347478,49.8572856 55.5669634,52.293793 56.59536,52.1640485 C58.137955,51.9694318 58.9859777,49.7736612 55.5736441,41.2101458 C54.5604043,38.667342 51.2903936,37.8469576 47.2718051,35.4559352 C39.7510836,23.9160898 34.3253344,15.0973234 30.9945573,8.99963628 C30.1307596,7.41827308 27.906864,6.20789183 26.7167716,4.51545655 C25.462204,2.73133067 23.787054,4.07042386 21.6913217,8.53273613 Z" id="Path-12-Copy" transform="translate(39.817248, 27.960022) scale(-1, 1) rotate(-166.000000) translate(-39.817248, -27.960022) "></path>
                        </g>
                        <path d="M41.8093379,2.34001648 C39.8734472,19.8695705 38.2394318,31.8937405 36.9072914,38.412526 C35.1285687,47.1166486 31.0936554,56.7554194 30.1438628,61.4908538 C26.5275077,79.521116 22.1111273,89.5146476 20.527846,97.1439312 C19.5589399,101.812754 22.5545715,104.791396 23.0419866,105.780244 C24.3304812,108.394289 25.0512142,110.03936 25.2041857,110.715458 C23.4929015,111.438042 21.9341216,110.796153 20.527846,108.789789 C18.4184326,105.780244 13.9325968,108.224916 9.79482625,111.280771 C5.65705564,114.336628 -3.02940182,111.128132 1.07412577,107.854848 C5.17765335,104.581564 13.2700594,99.5945489 14.3409124,95.3538184 C14.7619221,93.68656 15.2179069,84.5359533 19.5206431,64.2344326 C20.1065571,61.4699255 22.3573894,59.4494043 23.0419866,56.3555209 C23.8118091,52.8764812 26.9723772,31.8015589 27.8755805,27.9112328 C30.2726879,17.5862807 32.9210019,9.13890081 34.4782222,6.28109199 C35.516369,4.37588611 37.9600742,3.06219427 41.8093379,2.34001648 Z" id="Path-13" fill="#B38C68"></path>
                        <path d="M37.943791,86.3428807 C43.1834429,66.0776774 42.5689058,45.3853647 36.1001801,24.2659427 C32.2197132,11.5967989 32.8711093,4.1002424 38.9910095,1.65816354 C44.0604829,-0.36475404 67.5722617,1.71500073 71.0996902,4.10606061 C74.6271186,6.49712048 77.3530639,17.6027545 76.4616618,26.0368366 C75.6325257,33.8817825 65.5972968,44.7551595 75.9103906,75.683954 C76.04348,76.0830869 79.5892861,84.4665457 78.0184424,84.8687088 C76.8724496,85.1621026 74.6485581,89.0942748 71.0996902,94.268728 C68.3159682,98.3275546 64.812841,103.906618 59.7324894,104.025053 C56.075381,104.107582 48.8124815,98.2138153 37.943791,86.3428807 Z" id="Path" fill="#B38C68"></path>
                    </g>
                    <path d="M69.3831532,260.342288 C68.532601,257.992536 67.5392189,258.789136 66.403007,262.732089 C65.2667951,266.675041 65.2667951,269.08884 66.403007,269.973485 L103.086976,269.973485 C103.709553,267.217802 103.39629,265.660707 102.147187,265.302199 C100.898085,264.943692 99.0205092,264.689324 96.5144611,264.539094 L79.8652442,257.058126 C78.416681,259.375314 76.6353909,260.685809 74.521374,260.989609 C72.4073571,261.293409 70.6946168,261.077636 69.3831532,260.342288 Z" id="Path-19" fill="#E5E4E5" fill-rule="nonzero" transform="translate(84.474228, 263.515805) scale(-1, 1) translate(-84.474228, -263.515805) "></path>
                    <path d="M9.34995177,260.939465 C8.49939963,258.589713 7.5060176,259.386313 6.3698057,263.329266 C5.23359379,267.272218 5.23359379,269.686017 6.3698057,270.570662 L43.053774,270.570662 C43.6763513,267.814979 43.3630887,266.257885 42.113986,265.899377 C40.8648833,265.540869 38.9873078,265.286501 36.4812597,265.136272 L19.8320428,257.655303 C18.3834796,259.972492 16.6021896,261.282986 14.4881726,261.586786 C12.3741557,261.890586 10.6614154,261.674813 9.34995177,260.939465 Z" id="Path-19-Copy" fill="#E5E4E5" fill-rule="nonzero" transform="translate(24.441026, 264.112983) scale(-1, 1) translate(-24.441026, -264.112983) "></path>
                    <rect id="Rectangle" fill="#7A7A7A" fill-rule="nonzero" x="14.6313559" y="47.1344104" width="1" height="3"></rect>
                    <rect id="Rectangle" fill="#373737" fill-rule="nonzero" x="15.1271186" y="44.488577" width="3.02542373" height="24.6363636" rx="1"></rect>
                    <path d="M18.1525424,45.5749899 L27.656874,37 C33.3669012,43.2859906 36.2219147,49.5719812 36.2219147,55.8579718 C36.2219147,62.1439624 33.3669012,69.0966196 27.656874,76.7159435 C25.4659375,71.8700689 23.3811803,67.9985264 21.4026025,65.1013162 C19.4240247,62.2041059 18.3406713,62.613325 18.1525424,66.3289734 L18.1525424,45.5749899 Z" id="Path-14" fill="url(#linearGradient-1)"></path>
                    <path d="M99.4017992,15.620812 C100.312999,15.1835066 98.4714267,5.29769499 87.8526444,1.49224083 C77.6108257,-1.6758441 75.2836079,5.57729552 72.0537043,5.57729552 C68.8238006,5.57729552 63.4490783,-2.59281387 55.1757976,1.49224083 C46.902517,5.57729552 46.7261327,15.9085971 51.8744834,19.4726737 C52.5593964,19.9468222 47.183875,27.6820243 54.4420532,31.9344846 C57.632681,33.5736186 61.9728399,32.9551182 62.6278557,32.9551182 C63.2828717,32.9551182 71.4617468,41.2703614 78.5470745,30.0894995 L78.5470745,26.9389599 L79.8738843,26.9389599 C79.607921,26.5085086 79.3618469,26.2144736 79.1356623,26.0568551 C76.869552,24.477698 75.7192262,23.0338489 76.4451021,21.3742564 C77.6969307,18.512162 79.9374397,17.4555272 82.2540012,20.7197548 C84.5705626,23.9839825 86.1555219,25.4405905 91.9476396,11.9495056 C93.5969835,12.0067326 94.7558593,12.1885386 95.4242669,12.4949236 C98.1446799,13.7419077 98.4905992,16.0581174 99.4017992,15.620812 Z" id="Path-5" fill="#1C1849" fill-rule="nonzero" transform="translate(74.006497, 18.138429) scale(-1, 1) translate(-74.006497, -18.138429) "></path>
                    <path d="M99.4017992,15.620812 C100.312999,15.1835066 98.4714267,5.29769499 87.8526444,1.49224083 C77.6108257,-1.6758441 75.2836079,5.57729552 72.0537043,5.57729552 C68.8238006,5.57729552 63.4490783,-2.59281387 55.1757976,1.49224083 C46.902517,5.57729552 46.7261327,15.9085971 51.8744834,19.4726737 C52.5593964,19.9468222 47.183875,27.6820243 54.4420532,31.9344846 C57.632681,33.5736186 61.9728399,32.9551182 62.6278557,32.9551182 C63.2828717,32.9551182 71.4617468,41.2703614 78.5470745,30.0894995 L78.5470745,26.9389599 L79.8738843,26.9389599 C79.607921,26.5085086 79.3618469,26.2144736 79.1356623,26.0568551 C76.869552,24.477698 75.7192262,23.0338489 76.4451021,21.3742564 C77.6969307,18.512162 79.9374397,17.4555272 82.2540012,20.7197548 C84.5705626,23.9839825 86.1555219,25.4405905 91.9476396,11.9495056 C93.5969835,12.0067326 94.7558593,12.1885386 95.4242669,12.4949236 C98.1446799,13.7419077 98.4905992,16.0581174 99.4017992,15.620812 Z" id="Path-5" fill="#1C1849" fill-rule="nonzero" transform="translate(74.006497, 18.138429) scale(-1, 1) translate(-74.006497, -18.138429) "></path>
                    <path d="M41.9255797,83.2286928 L77.1569254,83.2286928 C81.2648757,76.73856 81.8469876,71.0157113 78.903261,66.0601464 L42.7636203,66.0601464 L41.2099571,81.0911251 L41.9255797,83.2286928 Z" id="Path-29" fill="#FFFFFF" fill-rule="nonzero" transform="translate(60.978254, 74.644420) scale(-1, 1) translate(-60.978254, -74.644420) "></path>
                    <path d="M41.1323767,131.393939 L40.3375247,134.620403 C46.0802484,137.415023 50.7059322,140.246121 54.2145761,143.113697 C57.72322,145.981273 60.7147941,149.375677 63.1892982,153.296908 C69.9782863,149.994614 75.7481663,143.092894 80.4989384,132.591752 L79.9925595,130.823877 L41.1323767,131.393939 Z" id="Path-30" fill="#FFFFFF" fill-rule="nonzero" transform="translate(60.418232, 142.060392) scale(-1, 1) translate(-60.418232, -142.060392) "></path>
                    <polygon id="Path-18" fill="#6598B1" transform="translate(50.041332, 193.883423) scale(-1, 1) translate(-50.041332, -193.883423) " points="29.7820657 132.461883 49.7301316 194.561808 58.8454389 255.304962 70.3005987 255.304962 61.2889035 132.461883"></polygon>
                    <path d="M70.0590626,131.999985 C69.5856374,144.685935 68.9160354,154.359186 68.0502566,161.019738 C64.796678,186.049953 58.4263458,226.317044 51.6868687,252.181559 L63.2159859,254.832493 L81.6448346,197.26796 L99.4424443,131.999985 L70.0590626,131.999985 Z" id="Path-16" fill="#87BBD5" transform="translate(75.564657, 193.416239) scale(-1, 1) translate(-75.564657, -193.416239) "></path>
                    <mask id="mask-3" fill="white">
                        <use xlink:href="#path-2"></use>
                    </mask>
                    <use id="Path-31" fill="#FFFFFF" xlink:href="#path-2"></use>
                    <path d="M79.1406126,66.0601464 C77.8662705,69.9300989 76.3278171,72.959436 74.5252525,75.1481575 L76.6448007,75.1481575 C76.6448007,92.8530572 78.2645081,111.41163 81.503923,130.823877 C80.640957,121.227258 80.0923515,114.171836 79.8581063,109.657611 C79.6408452,105.470692 79.6486947,96.8894949 79.6486947,93.0488582 C79.6486947,90.4884338 80.0130476,86.5483696 80.7417535,81.2286658 L79.1406126,66.0601464 Z" id="Path-32" fill-opacity="0.1" fill="#000000"></path>
                </g>
                <ellipse id="Oval" fill="#EEF1F4" fill-rule="nonzero" cx="225.5" cy="283" rx="114.5" ry="1"></ellipse>
                <polygon id="Path-24" fill="#5E5E5E" fill-rule="nonzero" points="46.5975332 183 24.3344886 278.873639 2.86749791e-14 278.873639 0 282 46.5975332 281.650859 57 240.855169"></polygon>
                <mask id="mask-5" fill="white">
                    <use xlink:href="#path-4"></use>
                </mask>
                <use id="Rectangle" stroke="#878787" stroke-width="3" xlink:href="#path-4"></use>
                <path d="M48.7579148,1.1095531 L87.7154939,21.0367222 C90.8021084,22.6155546 92.8762347,25.6677656 93.2180801,29.134134 L116.949644,269.776065 C117.503312,275.390341 113.42788,280.393127 107.846915,280.950099 C107.51377,280.983346 107.179193,281 106.844411,281 L62.5257012,281 C57.1961099,281 52.773344,276.855204 52.3963058,271.507237 L34.0258725,10.9381364 C33.6291129,5.31043583 37.8425605,0.424726195 43.4368711,0.0255984903 C45.2754733,-0.105577109 47.1148956,0.269133263 48.7579148,1.1095531 Z" id="Rectangle" fill="#E6F1FF" fill-rule="nonzero" mask="url(#mask-5)"></path>
                <g id="Group-7-Copy" mask="url(#mask-5)">
                    <g transform="translate(59.500000, 147.500000) scale(-1, 1) translate(-59.500000, -147.500000) translate(0.000000, 12.000000)">
                        <g id="Head" stroke="none" stroke-width="1" fill="none" fill-rule="evenodd" transform="translate(59.118644, 30.685606) scale(-1, 1) translate(-59.118644, -30.685606) translate(44.618644, 7.185606)">
                            <path d="M13.2683648,32.9691531 C13.6014002,37.09794 14.0897353,41.5059495 14.7333702,46.1931818 L2.80863046,43.1136364 C4.20171218,39.9699367 5.05533945,34.9863347 5.3695123,28.1628304 C4.13229673,27.2170421 3.20300228,26.345399 2.75070882,25.6570872 C0.625133485,22.4223323 -0.176171024,17.2083044 0.895591995,13.4025051 C3.74262444,3.29277554 12.6477321,-1.87601175 18.9309844,2.29172493 C31.9038507,10.8967414 28.829004,36.1756099 23.182897,36.1756099 C20.7248306,36.1756099 16.9372917,34.7950825 13.2683648,32.9691531 Z" id="Combined-Shape" fill="#B38C68" fill-rule="nonzero"></path>
                        </g>
                        <g id="Legs" stroke="none" stroke-width="1" fill="none" fill-rule="evenodd" transform="translate(64.847458, 197.893939) scale(-1, 1) translate(-64.847458, -197.893939) translate(28.847458, 131.393939)">
                            <polygon id="Path-21" fill="#9D7757" fill-rule="nonzero" points="31.3629792 0.877299048 50.4949249 63.167869 61.9336212 131.860175 71.065392 131.860175 65.7010032 64.4420808 60.4381011 0.877299048"></polygon>
                            <path d="M19.7912486,4.22166858 C18.3557812,34.8261287 16.8980412,53.8401786 15.418029,61.2638183 C13.9380166,68.6874579 8.79867364,91.8866757 1.13686838e-13,130.861472 L7.26855683,132.990222 L10.022426,129.103738 C25.4297399,83.1984215 37.0124231,45.6189506 44.7704757,16.365325 C45.9520666,11.9098488 47.1342183,7.38941136 48.3169308,2.80401285 L19.7912486,4.22166858 Z" id="Path-20" fill="#B38C68" fill-rule="nonzero"></path>
                        </g>
                        <g id="Hands" stroke="none" stroke-width="1" fill="none" fill-rule="evenodd" transform="translate(59.500000, 105.772727) scale(-1, 1) translate(-59.500000, -105.772727) translate(0.000000, 49.272727)">
                            <g id="Group-3" transform="translate(54.639862, 9.587062)" fill="#9D7757" fill-rule="nonzero">
                                <path d="M7.16568787,15.6817122 L15.3523809,29.4322268 L29.8842963,44.0189285 L35.148654,48.6388406 L38.785602,48.7353888 C41.378544,45.6801735 42.2766269,43.5884367 41.4798506,42.4601785 C39.5899787,39.7840656 29.7315261,32.6339797 25.9078944,27.2196072 C23.3332333,23.573813 18.7759538,17.4391125 12.2360557,8.81550576 L7.16568787,15.6817122 Z" id="Path-12" transform="translate(24.463235, 28.775447) rotate(22.000000) translate(-24.463235, -28.775447) "></path>
                                <path d="M21.6913217,8.53273613 L23.1872426,14.5325472 L39.8467871,33.7726919 L43.1758413,38.764019 C44.4484195,42.4908889 46.2464311,45.652482 48.5698762,48.2487984 C50.8933213,50.8451148 51.536267,49.7136907 50.4987133,44.8545262 C53.5347478,49.8572856 55.5669634,52.293793 56.59536,52.1640485 C58.137955,51.9694318 58.9859777,49.7736612 55.5736441,41.2101458 C54.5604043,38.667342 51.2903936,37.8469576 47.2718051,35.4559352 C39.7510836,23.9160898 34.3253344,15.0973234 30.9945573,8.99963628 C30.1307596,7.41827308 27.906864,6.20789183 26.7167716,4.51545655 C25.462204,2.73133067 23.787054,4.07042386 21.6913217,8.53273613 Z" id="Path-12-Copy" transform="translate(39.817248, 27.960022) scale(-1, 1) rotate(-166.000000) translate(-39.817248, -27.960022) "></path>
                            </g>
                            <path d="M41.8093379,2.34001648 C39.8734472,19.8695705 38.2394318,31.8937405 36.9072914,38.412526 C35.1285687,47.1166486 31.0936554,56.7554194 30.1438628,61.4908538 C26.5275077,79.521116 22.1111273,89.5146476 20.527846,97.1439312 C19.5589399,101.812754 22.5545715,104.791396 23.0419866,105.780244 C24.3304812,108.394289 25.0512142,110.03936 25.2041857,110.715458 C23.4929015,111.438042 21.9341216,110.796153 20.527846,108.789789 C18.4184326,105.780244 13.9325968,108.224916 9.79482625,111.280771 C5.65705564,114.336628 -3.02940182,111.128132 1.07412577,107.854848 C5.17765335,104.581564 13.2700594,99.5945489 14.3409124,95.3538184 C14.7619221,93.68656 15.2179069,84.5359533 19.5206431,64.2344326 C20.1065571,61.4699255 22.3573894,59.4494043 23.0419866,56.3555209 C23.8118091,52.8764812 26.9723772,31.8015589 27.8755805,27.9112328 C30.2726879,17.5862807 32.9210019,9.13890081 34.4782222,6.28109199 C35.516369,4.37588611 37.9600742,3.06219427 41.8093379,2.34001648 Z" id="Path-13" fill="#B38C68" fill-rule="nonzero"></path>
                            <path d="M37.943791,86.3428807 C43.1834429,66.0776774 42.5689058,45.3853647 36.1001801,24.2659427 C32.2197132,11.5967989 32.8711093,4.1002424 38.9910095,1.65816354 C44.0604829,-0.36475404 67.5722617,1.71500073 71.0996902,4.10606061 C74.6271186,6.49712048 77.3530639,17.6027545 76.4616618,26.0368366 C75.6325257,33.8817825 65.5972968,44.7551595 75.9103906,75.683954 C76.04348,76.0830869 79.5892861,84.4665457 78.0184424,84.8687088 C76.8724496,85.1621026 74.6485581,89.0942748 71.0996902,94.268728 C68.3159682,98.3275546 64.812841,103.906618 59.7324894,104.025053 C56.075381,104.107582 48.8124815,98.2138153 37.943791,86.3428807 Z" id="Path" fill="#B38C68" fill-rule="nonzero"></path>
                        </g>
                        <path d="M69.3831532,260.342288 C68.532601,257.992536 67.5392189,258.789136 66.403007,262.732089 C65.2667951,266.675041 65.2667951,269.08884 66.403007,269.973485 L103.086976,269.973485 C103.709553,267.217802 103.39629,265.660707 102.147187,265.302199 C100.898085,264.943692 99.0205092,264.689324 96.5144611,264.539094 L79.8652442,257.058126 C78.416681,259.375314 76.6353909,260.685809 74.521374,260.989609 C72.4073571,261.293409 70.6946168,261.077636 69.3831532,260.342288 Z" id="Path-19" stroke="none" fill="#E5E4E5" fill-rule="nonzero" transform="translate(84.474228, 263.515805) scale(-1, 1) translate(-84.474228, -263.515805) "></path>
                        <path d="M9.34995177,260.939465 C8.49939963,258.589713 7.5060176,259.386313 6.3698057,263.329266 C5.23359379,267.272218 5.23359379,269.686017 6.3698057,270.570662 L43.053774,270.570662 C43.6763513,267.814979 43.3630887,266.257885 42.113986,265.899377 C40.8648833,265.540869 38.9873078,265.286501 36.4812597,265.136272 L19.8320428,257.655303 C18.3834796,259.972492 16.6021896,261.282986 14.4881726,261.586786 C12.3741557,261.890586 10.6614154,261.674813 9.34995177,260.939465 Z" id="Path-19-Copy" stroke="none" fill="#E5E4E5" fill-rule="nonzero" transform="translate(24.441026, 264.112983) scale(-1, 1) translate(-24.441026, -264.112983) "></path>
                        <rect id="Rectangle" stroke="none" fill="#D8D8D8" fill-rule="nonzero" x="15.1271186" y="44.488577" width="3.02542373" height="24.6363636" rx="1"></rect>
                        <rect id="Rectangle" stroke="#979797" stroke-width="1" fill="#D8D8D8" fill-rule="nonzero" x="14.6228814" y="48.0813801" width="1.00847458" height="2.0530303"></rect>
                        <path d="M99.4017992,15.620812 C100.312999,15.1835066 98.4714267,5.29769499 87.8526444,1.49224083 C77.6108257,-1.6758441 75.2836079,5.57729552 72.0537043,5.57729552 C68.8238006,5.57729552 63.4490783,-2.59281387 55.1757976,1.49224083 C46.902517,5.57729552 46.7261327,15.9085971 51.8744834,19.4726737 C52.5593964,19.9468222 47.183875,27.6820243 54.4420532,31.9344846 C57.632681,33.5736186 61.9728399,32.9551182 62.6278557,32.9551182 C63.2828717,32.9551182 71.4617468,41.2703614 78.5470745,30.0894995 L78.5470745,26.9389599 L79.8738843,26.9389599 C79.607921,26.5085086 79.3618469,26.2144736 79.1356623,26.0568551 C76.869552,24.477698 75.7192262,23.0338489 76.4451021,21.3742564 C77.6969307,18.512162 79.9374397,17.4555272 82.2540012,20.7197548 C84.5705626,23.9839825 86.1555219,25.4405905 91.9476396,11.9495056 C93.5969835,12.0067326 94.7558593,12.1885386 95.4242669,12.4949236 C98.1446799,13.7419077 98.4905992,16.0581174 99.4017992,15.620812 Z" id="Path-5" stroke="none" fill="#1C1849" fill-rule="nonzero" transform="translate(74.006497, 18.138429) scale(-1, 1) translate(-74.006497, -18.138429) "></path>
                        <path d="M99.4017992,15.620812 C100.312999,15.1835066 98.4714267,5.29769499 87.8526444,1.49224083 C77.6108257,-1.6758441 75.2836079,5.57729552 72.0537043,5.57729552 C68.8238006,5.57729552 63.4490783,-2.59281387 55.1757976,1.49224083 C46.902517,5.57729552 46.7261327,15.9085971 51.8744834,19.4726737 C52.5593964,19.9468222 47.183875,27.6820243 54.4420532,31.9344846 C57.632681,33.5736186 61.9728399,32.9551182 62.6278557,32.9551182 C63.2828717,32.9551182 71.4617468,41.2703614 78.5470745,30.0894995 L78.5470745,26.9389599 L79.8738843,26.9389599 C79.607921,26.5085086 79.3618469,26.2144736 79.1356623,26.0568551 C76.869552,24.477698 75.7192262,23.0338489 76.4451021,21.3742564 C77.6969307,18.512162 79.9374397,17.4555272 82.2540012,20.7197548 C84.5705626,23.9839825 86.1555219,25.4405905 91.9476396,11.9495056 C93.5969835,12.0067326 94.7558593,12.1885386 95.4242669,12.4949236 C98.1446799,13.7419077 98.4905992,16.0581174 99.4017992,15.620812 Z" id="Path-5" stroke="none" fill="#1C1849" fill-rule="nonzero" transform="translate(74.006497, 18.138429) scale(-1, 1) translate(-74.006497, -18.138429) "></path>
                        <path d="M41.9255797,83.2286928 L77.1569254,83.2286928 C81.2648757,76.73856 81.8469876,71.0157113 78.903261,66.0601464 L42.7636203,66.0601464 L41.2099571,81.0911251 L41.9255797,83.2286928 Z" id="Path-29" stroke="none" fill="#FFFFFF" fill-rule="nonzero" transform="translate(60.978254, 74.644420) scale(-1, 1) translate(-60.978254, -74.644420) "></path>
                        <path d="M41.1323767,131.393939 L40.3375247,134.620403 C46.0802484,137.415023 50.7059322,140.246121 54.2145761,143.113697 C57.72322,145.981273 60.7147941,149.375677 63.1892982,153.296908 C69.9782863,149.994614 75.7481663,143.092894 80.4989384,132.591752 L79.9925595,130.823877 L41.1323767,131.393939 Z" id="Path-30" stroke="none" fill="#FFFFFF" fill-rule="nonzero" transform="translate(60.418232, 142.060392) scale(-1, 1) translate(-60.418232, -142.060392) "></path>
                        <polygon id="Path-18" stroke="none" fill="#6598B1" fill-rule="evenodd" transform="translate(50.041332, 193.883423) scale(-1, 1) translate(-50.041332, -193.883423) " points="29.7820657 132.461883 49.7301316 194.561808 58.8454389 255.304962 70.3005987 255.304962 61.2889035 132.461883"></polygon>
                        <path d="M70.0590626,131.999985 C69.5856374,144.685935 68.9160354,154.359186 68.0502566,161.019738 C64.796678,186.049953 58.4263458,226.317044 51.6868687,252.181559 L63.2159859,254.832493 L81.6448346,197.26796 L99.4424443,131.999985 L70.0590626,131.999985 Z" id="Path-16" stroke="none" fill="#87BBD5" fill-rule="evenodd" transform="translate(75.564657, 193.416239) scale(-1, 1) translate(-75.564657, -193.416239) "></path>
                        <mask id="mask-7" fill="white">
                            <use xlink:href="#path-6"></use>
                        </mask>
                        <use id="Path-31" stroke="none" fill="#FFFFFF" fill-rule="evenodd" xlink:href="#path-6"></use>
                        <path d="M79.1406126,66.0601464 C77.8662705,69.9300989 76.3278171,72.959436 74.5252525,75.1481575 L76.6448007,75.1481575 C76.6448007,92.8530572 78.2645081,111.41163 81.503923,130.823877 C80.640957,121.227258 80.0923515,114.171836 79.8581063,109.657611 C79.6408452,105.470692 79.6486947,96.8894949 79.6486947,93.0488582 C79.6486947,90.4884338 80.0130476,86.5483696 80.7417535,81.2286658 L79.1406126,66.0601464 Z" id="Path-32" stroke="none" fill-opacity="0.1" fill="#000000" fill-rule="evenodd"></path>
                    </g>
                </g>
                <path d="M48.7579148,1.1095531 L87.7154939,21.0367222 C90.8021084,22.6155546 92.8762347,25.6677656 93.2180801,29.134134 L116.949644,269.776065 C117.503312,275.390341 113.42788,280.393127 107.846915,280.950099 C107.51377,280.983346 107.179193,281 106.844411,281 L62.5257012,281 C57.1961099,281 52.773344,276.855204 52.3963058,271.507237 L34.0258725,10.9381364 C33.6291129,5.31043583 37.8425605,0.424726195 43.4368711,0.0255984903 C45.2754733,-0.105577109 47.1148956,0.269133263 48.7579148,1.1095531 Z" id="Rectangle" fill="#E6F1FF" fill-rule="nonzero" opacity="0.499604725" mask="url(#mask-5)"></path>
                <polygon id="Path-33" fill="#F4F9FF" fill-rule="nonzero" mask="url(#mask-5)" points="90.6804889 55 48 153.002508 48 177 95 64.1721683"></polygon>
                <polygon id="Path-33-Copy" fill="#F4F9FF" fill-rule="nonzero" mask="url(#mask-5)" points="95.3585874 74 50 181.960228 50 218 99 118.406466"></polygon>
                <mask id="mask-9" fill="white">
                    <use xlink:href="#path-8"></use>
                </mask>
                <use id="Rectangle" stroke="#878787" stroke-width="3" xlink:href="#path-8"></use>
            </g>
        </g>
    </g>
</svg>
