<?xml version="1.0" encoding="UTF-8"?>
<svg width="19px" height="18px" viewBox="0 0 19 18" version="1.1" xmlns="http://www.w3.org/2000/svg" xmlns:xlink="http://www.w3.org/1999/xlink">
    <!-- Generator: Sketch 58 (84663) - https://sketch.com -->
    <title>Group 2</title>
    <desc>Created with Sketch.</desc>
    <g id="Desktop" stroke="none" stroke-width="1" fill="none" fill-rule="evenodd">
        <g id="Step-scan-or-phone-[sending]" transform="translate(-246.000000, -596.000000)" fill="#FF9940">
            <g id="bt/main" transform="translate(162.000000, 580.000000)">
                <g id="Group-5" transform="translate(84.000000, 16.000000)">
                    <g id="Group-2">
                        <rect id="Rectangle-Copy-2" x="8.5" y="0" width="2" height="5"></rect>
                        <rect id="Rectangle-Copy-2" transform="translate(14.096194, 4.403806) rotate(45.000000) translate(-14.096194, -4.403806) " x="13.0961941" y="1.90380592" width="2" height="5"></rect>
                        <rect id="Rectangle-Copy-2" opacity="0.8" transform="translate(16.000000, 9.000000) rotate(90.000000) translate(-16.000000, -9.000000) " x="15" y="6.5" width="2" height="5"></rect>
                        <rect id="Rectangle-Copy-2" opacity="0.699999988" transform="translate(14.096194, 13.596194) rotate(135.000000) translate(-14.096194, -13.596194) " x="13.0961941" y="11.0961941" width="2" height="5"></rect>
                        <rect id="Rectangle-Copy-2" opacity="0.600000024" transform="translate(9.500000, 15.500000) rotate(180.000000) translate(-9.500000, -15.500000) " x="8.5" y="13" width="2" height="5"></rect>
                        <rect id="Rectangle-Copy-2" opacity="0.5" transform="translate(4.903806, 13.596194) rotate(225.000000) translate(-4.903806, -13.596194) " x="3.90380592" y="11.0961941" width="2" height="5"></rect>
                        <rect id="Rectangle-Copy-2" opacity="0.400000006" transform="translate(3.000000, 9.000000) rotate(270.000000) translate(-3.000000, -9.000000) " x="2" y="6.5" width="2" height="5"></rect>
                        <rect id="Rectangle-Copy-2" opacity="0.300000012" transform="translate(4.903806, 4.403806) rotate(315.000000) translate(-4.903806, -4.403806) " x="3.90380592" y="1.90380592" width="2" height="5"></rect>
                    </g>
                </g>
            </g>
        </g>
    </g>
</svg>