<?xml version="1.0" encoding="UTF-8"?>
<svg width="91px" height="315px" viewBox="0 0 91 315" version="1.1" xmlns="http://www.w3.org/2000/svg" xmlns:xlink="http://www.w3.org/1999/xlink">
    <!-- Generator: Sketch 63.1 (92452) - https://sketch.com -->
    <title>stage_3</title>
    <desc>Created with Sketch.</desc>
    <defs>
        <linearGradient x1="-0.0532416812%" y1="49.9950018%" x2="99.9901126%" y2="49.9950018%" id="linearGradient-1">
            <stop stop-color="#E6E6F0" offset="0%"></stop>
            <stop stop-color="#E6E6F0" offset="100%"></stop>
        </linearGradient>
        <linearGradient x1="-0.0653366123%" y1="50.0109914%" x2="100.014672%" y2="50.0109914%" id="linearGradient-2">
            <stop stop-color="#1E1E28" offset="0%"></stop>
            <stop stop-color="#0F0F19" offset="100%"></stop>
        </linearGradient>
        <linearGradient x1="50%" y1="99.8450413%" x2="50%" y2="0%" id="linearGradient-3">
            <stop stop-color="#E6E6F0" offset="0%"></stop>
            <stop stop-color="#C0C0C8" offset="100%"></stop>
        </linearGradient>
        <linearGradient x1="50.0254871%" y1="99.9982048%" x2="50.0254871%" y2="0.00989703958%" id="linearGradient-4">
            <stop stop-color="#E6E6F0" offset="22%"></stop>
            <stop stop-color="#E0E1E9" offset="60%"></stop>
            <stop stop-color="#D9DBE1" offset="87%"></stop>
        </linearGradient>
    </defs>
    <g id="Mobile" stroke="none" stroke-width="1" fill="none" fill-rule="evenodd">
        <g id="[M]-Loading-[frame-3]" transform="translate(-142.000000, -202.000000)">
            <g id="stage_3" transform="translate(142.000000, 202.000000)">
                <g id="Group-3" transform="translate(0.588062, 0.000000)">
                    <path d="M89.4119383,167.53 C88.4719383,163.39 87.8319383,160.79 86.6219383,154.83 C86.2719383,147.71 86.1019383,145.35 85.9919383,142.09 C86.0419383,135.67 85.0719383,128.27 84.8919383,124.83 C84.6719383,120.59 81.2619383,105.83 81.2619383,104.83 C81.2619383,104.163333 80.7186049,96.1633333 79.6319383,80.83 C78.8519383,68.83 78.8919383,64.46 77.4919383,62.25 C75.4219383,58.98 73.6719383,57.84 67.3019383,56.09 C65.80805,55.5785258 64.3568746,54.949906 62.9619383,54.21 C61.7819383,53.54 59.1019383,52.08 58.7819383,51.9 C56.4365914,50.5589577 54.5826308,48.5017273 53.4919383,46.03 C52.5529853,46.7605564 51.5601574,47.4190988 50.5219383,48 C47.9919383,49 42.2719383,48.83 39.7019383,48 C38.6894279,47.4619583 37.7344792,46.8219751 36.8519383,46.09 C35.6591764,48.5288671 33.7830245,50.5683137 31.4519383,51.96 C31.1019383,52.18 27.7119383,54.03 26.0119383,54.9 C25.206059,55.2749196 24.3816646,55.6086825 23.5419383,55.9 L23.1219383,56.04 C16.5119383,57.84 14.7519383,58.96 12.6519383,62.28 C11.2419383,64.49 11.0219383,69.28 10.5119383,80.86 C9.41193827,96.14 8.88193827,104.32 8.88193827,105 C8.88193827,106 5.63193827,120.39 5.25193827,124.62 C4.59942097,130.083817 4.23225581,135.577943 4.15193827,141.08 C4.04193827,144.08 4.15193827,147.25 3.87193827,153.51 C2.49193827,160.42 1.87193827,163.09 0.871938275,167.51 C-0.128061725,171.93 -0.778061725,172.63 1.87193827,175.26 C2.71193827,176.08 3.28193827,178.76 4.80193827,179.74 C6.86915154,180.804045 9.06347527,181.600453 11.3319383,182.11 L11.6219383,182.19 C11.8694713,182.257201 12.1314019,182.150791 12.2619383,181.93 C12.7619383,181.083333 12.0952716,179.75 10.2619383,177.93 C9.66172055,177.351596 9.09733942,176.737122 8.57193827,176.09 C7.56591668,174.821727 7.14440848,173.186566 7.41193827,171.59 L7.91193827,168.68 C8.34193827,169.78 8.14193827,171.21 8.75193827,173.29 C9.00193827,174.12 10.3219383,176.48 11.0419383,176.01 C11.4819383,175.71 11.0419383,173.59 11.0419383,172.89 C11.0604407,170.668002 10.9402068,168.447015 10.6819383,166.24 C10.3722123,164.762483 9.94758841,163.311406 9.41193827,161.9 C9.23846328,159.960538 9.23846328,158.009462 9.41193827,156.07 C9.41193827,155.98 9.41193827,155.88 9.41193827,155.76 C9.67193827,153.36 11.2619383,148.11 13.1719383,138.76 C14.2986049,135 15.9486049,129.473333 18.1219383,122.18 C19.1915104,118.469444 19.7070754,114.621239 19.6519383,110.76 C19.6519383,106.57 21.2519383,96.98 22.9619383,86.16 C22.9619383,86.06 22.8919383,86.01 22.9619383,86.08 C24.0219383,91.67 25.7519383,101.66 26.0919383,104.46 C27.0919383,113.26 24.5219383,117.97 22.0919383,127.05 C18.2319383,141.25 14.3719383,145.68 16.0919383,161.5 C16.8119383,167.98 17.2819383,174.05 18.4519383,181.27 C19.6219383,188.49 20.8819383,198.79 21.4519383,205.35 C21.8981417,209.079629 21.9885489,212.843248 21.7219383,216.59 C21.5119383,222.38 20.4619383,229.45 20.9219383,239.64 C21.1919383,245.64 22.5919383,251.48 23.6919383,257.42 C25.2919383,265.99 28.1019383,276.02 27.0019383,284.8 C26.7319383,286.8 26.1619383,288.7 26.1619383,289.44 C26.143925,291.33087 25.5928164,293.178296 24.5719383,294.77 C23.4119383,296.54 21.1419383,300.77 20.9119383,302.56 C20.6819383,304.35 20.3219383,305.1 22.1319383,306.17 C25.0094403,307.609234 28.0819489,308.619928 31.2519383,309.17 C33.3419383,309.35 28.4793477,306.838064 30.5093477,306.658064 C32.5393477,306.478064 32.9319383,304.960614 33.1119383,303.580614 C33.2919383,302.200614 35.9919383,302.31 36.3819383,299.92 C36.7719383,297.53 37.7819383,295.48 37.7819383,294.03 C37.7819383,292.58 36.7819383,291.03 36.3819383,289.44 C35.9819383,287.85 36.0819383,286.55 35.6619383,285.56 C34.9419383,283.88 35.0319383,280.89 34.9619383,279.05 C34.7219383,273.4 36.0719383,267.77 36.3619383,262.14 C36.7019383,255.64 38.2819383,250.49 38.5119383,243.85 C38.7519383,236.99 37.9119383,228.42 38.0719383,223.85 C38.2319383,219.28 40.2919383,213.85 40.6219383,208.27 L40.6219383,207.75 L42.1619383,188.19 C42.2219383,186.95 43.1619383,169.94 44.7919383,154.62 L45.4119383,154.62 C47.0319383,169.96 47.9819383,186.97 48.0419383,188.19 L49.5819383,207.75 L49.5819383,208.27 C49.9019383,213.83 51.9719383,219.4 52.1319383,223.85 C52.2919383,228.3 51.2419383,237.01 51.4919383,243.85 C51.7219383,250.49 53.4019383,255.64 53.7419383,262.14 C53.9719383,266.58 54.8319383,271.02 55.2119383,275.44 C55.5119383,278.83 54.9319383,282.19 54.5619383,285.56 C54.1319383,286.56 54.2319383,287.85 53.8319383,289.44 C53.4319383,291.03 52.4419383,292.58 52.4419383,294.03 C52.4419383,295.48 53.4419383,297.52 53.8319383,299.92 C54.2219383,302.32 57.7854085,303.846665 57.9654085,305.236665 C58.1454085,306.626665 55.9354085,307.261057 57.9654085,307.441057 C59.9954085,307.621057 56.8819383,309.35 58.9619383,309.17 C62.1326985,308.623017 65.2056497,307.612177 68.0819383,306.17 C69.8919383,305.1 69.5419383,304.34 69.3119383,302.56 C69.0819383,300.78 66.8119383,296.56 65.6519383,294.77 C64.6310601,293.178296 64.0799515,291.33087 64.0619383,289.44 C64.0619383,288.7 63.4819383,286.78 63.2219383,284.8 C62.5519383,279.8 63.7819383,274.19 64.4719383,269.25 C65.8319383,259.57 68.4719383,249.96 68.8619383,240.16 C69.3119383,229.97 68.6919383,222.38 68.4819383,216.59 C68.2153276,212.843248 68.3057348,209.079629 68.7519383,205.35 C69.2719383,198.79 70.5219383,188.48 71.7019383,181.27 C72.8819383,174.06 73.4119383,167.98 74.0619383,161.5 C74.8031922,155.652888 74.5496122,149.722495 73.3119383,143.96 C72.3119383,138.28 69.4319383,132.57 67.7919383,127.05 C65.5319383,119.46 63.7919383,112.05 64.3619383,102.7 C64.5519383,99.35 66.0519383,91.59 67.0119383,86.47 C67.0819383,86.3 66.9419383,86.55 67.0119383,86.38 C69.0119383,97.61 70.4419383,106.55 70.4419383,110.76 C70.3868011,114.621239 70.9023662,118.469444 71.9719383,122.18 C74.1386049,129.513333 75.7886049,135.04 76.9219383,138.76 C78.8319383,148.16 80.5119383,153.41 80.7819383,155.76 C80.7764067,155.809847 80.7764067,155.860153 80.7819383,155.91 C80.9698521,157.905586 80.9698521,159.914414 80.7819383,161.91 C80.2588981,163.324741 79.8378215,164.775116 79.5219383,166.25 C79.2663597,168.45717 79.1494636,170.678196 79.1719383,172.9 C79.1719383,173.6 78.7319383,175.72 79.1719383,176.02 C79.8819383,176.49 81.1719383,174.13 81.4519383,173.3 C82.0719383,171.22 81.8619383,169.79 82.3019383,168.69 L82.8019383,171.6 C83.0817305,173.218927 82.6518917,174.879999 81.6219383,176.16 C81.0928643,176.807027 80.5251624,177.421481 79.9219383,178 C78.0886049,179.793333 77.4219383,181.126667 77.9219383,182 C78.0524746,182.220791 78.3144052,182.327201 78.5619383,182.26 L78.8619383,182.18 C81.1298547,181.668586 83.3239466,180.872262 85.3919383,179.81 C86.9119383,178.81 87.4819383,176.15 88.3219383,175.33 C91.0519383,172.65 90.4119383,172 89.4119383,167.53 Z" id="Path" fill="url(#linearGradient-1)"></path>
                    <g id="Group" transform="translate(18.411938, 284.000000)">
                        <path d="M18.2244197,17 C17.4893356,17.2693758 16.7314749,17.4735142 15.9598043,17.61 C15.822094,17.1019253 15.7708442,16.5747208 15.808156,16.05 C15.808156,15.13 17.1022219,14.21 17.092112,13.29 C17.092112,12.01 17.4965076,4.08 19.7409032,6.53 C20.4587054,7.32 19.0938702,10.37 18.9725516,16.14 C18.9602447,16.5656241 18.6480714,16.9244766 18.2244197,17 L18.2244197,17 Z" id="Path" fill="#000000"></path>
                        <path d="M4.28288123,14 C2.04859551,18 -1.99536053,24.11 1.15892518,28.15 C1.98938824,29.3023733 3.26818793,30.0598634 4.68727683,30.24 C10.2376065,31.44 13.4525516,26.8 16.0305735,22.14 C17.8503538,18.87 17.1527713,15.01 17.8705735,11.32 C18.0929911,10.18 19.5589252,8.06 19.8015625,6.93 C20.3576065,4.34 17.3949691,0.26 16.8288153,-4.31654712e-13 C16.4902067,1.20888085 16.9045375,3.8552282 16.8288153,6 C16.7598431,7.95358318 16.2027502,9.4136476 15.899145,10.51 C15.4239801,12.2 14.6859582,14.19 12.8661779,15.31 C11.7338702,16.02 8.3976065,16.44 6.98222189,14.21 C5.42529881,11.75 8.30661749,6.13 7.64947464,6.87 C6.99233178,7.61 5.30398013,12.17 4.28288123,14 Z" id="Path" fill="#1E252C"></path>
                    </g>
                    <g id="Group-Copy" transform="translate(61.711938, 299.500000) scale(-1, 1) translate(-61.711938, -299.500000) translate(51.711938, 284.000000)">
                        <path d="M18.2244197,17 C17.4893356,17.2693758 16.7314749,17.4735142 15.9598043,17.61 C15.822094,17.1019253 15.7708442,16.5747208 15.808156,16.05 C15.808156,15.13 17.1022219,14.21 17.092112,13.29 C17.092112,12.01 17.4965076,4.08 19.7409032,6.53 C20.4587054,7.32 19.0938702,10.37 18.9725516,16.14 C18.9602447,16.5656241 18.6480714,16.9244766 18.2244197,17 L18.2244197,17 Z" id="Path" fill="#000000"></path>
                        <path d="M4.28288123,14 C2.04859551,18 -1.99536053,24.11 1.15892518,28.15 C1.98938824,29.3023733 3.26818793,30.0598634 4.68727683,30.24 C10.2376065,31.44 13.4525516,26.8 16.0305735,22.14 C17.8503538,18.87 17.1527713,15.01 17.8705735,11.32 C18.0929911,10.18 19.5589252,8.06 19.8015625,6.93 C20.3576065,4.34 17.3949691,0.26 16.8288153,-4.31654712e-13 C16.4902067,1.20888085 16.9045375,3.8552282 16.8288153,6 C16.7598431,7.95358318 16.2027502,9.4136476 15.899145,10.51 C15.4239801,12.2 14.6859582,14.19 12.8661779,15.31 C11.7338702,16.02 8.3976065,16.44 6.98222189,14.21 C5.42529881,11.75 8.30661749,6.13 7.64947464,6.87 C6.99233178,7.61 5.30398013,12.17 4.28288123,14 Z" id="Path" fill="#1E252C"></path>
                    </g>
                    <path d="M45.2019383,45.49 C53.2019383,45.49 56.2019383,39.73 58.0719383,33.49 C59.7619383,27.81 59.4919383,23.06 59.4919383,18.09 C59.4919383,7.64 54.8319383,0 45.3319383,0 C35.8319383,0 31.3319383,8 31.3319383,18.48 C31.3319383,23.78 30.0819383,28.89 33.3919383,35.77 C36.7019383,42.65 37.6319383,45.49 45.2019383,45.49 Z" id="Path" fill="url(#linearGradient-2)"></path>
                    <path d="M35.6219383,30.64 L54.9619383,30.64 C53.3019383,34.9066667 52.4719383,38.1266667 52.4719383,40.3 C52.4719383,42.4733333 53.3019383,45.7066667 54.9619383,50 L35.6219383,50 C36.683998,46.8772025 37.3131825,43.6236122 37.4919383,40.33 C37.3156274,37.0295644 36.6864029,33.7690375 35.6219383,30.64 L35.6219383,30.64 Z" id="Path" fill="url(#linearGradient-3)"></path>
                    <g id="Group-4" transform="translate(10.510703, 46.030000)">
                        <path d="M11.5812353,81.0186281 C7.72123533,95.22 3.86123533,99.65 5.58123533,115.47 C6.30123533,121.95 6.77123533,128.02 7.94123533,135.24 C9.11123533,142.46 10.3712353,152.76 10.9412353,159.32 C11.3874388,163.049629 11.477846,166.813248 11.2112353,170.56 C11.0012353,176.35 9.95123533,183.42 10.4112353,193.61 C10.6812353,199.61 12.0812353,205.45 13.1812353,211.39 C14.4519571,218.196304 16.485893,225.92351 16.718196,233.214054 C16.7783919,235.10323 24.5212353,234.86 24.4512353,233.02 C24.2112353,227.37 25.5612353,221.74 25.8512353,216.11 C26.1912353,209.61 27.7712353,204.46 28.0012353,197.82 C28.2412353,190.96 27.4012353,182.39 27.5612353,177.82 C27.7212353,173.25 29.7812353,167.82 30.1112353,162.24 L30.1112353,161.72 L31.6512353,142.16 C31.7112353,140.92 32.6512353,123.91 34.2812353,108.59 L34.9012353,108.59 C36.5212353,123.93 37.4712353,140.94 37.5312353,142.16 L39.0712353,161.72 L39.0712353,162.24 C39.3912353,167.8 41.4612353,173.37 41.6212353,177.82 C41.7812353,182.27 40.7312353,190.98 40.9812353,197.82 C41.2112353,204.46 42.8912353,209.61 43.2312353,216.11 C43.4612353,220.55 44.3212353,224.99 44.7012353,229.41 C44.8049598,230.582087 44.8034875,231.750587 44.7418695,232.917154 C44.6252712,235.124624 52.475527,234.98941 52.6239354,233.03873 C52.8769338,229.713318 53.5263426,226.33358 53.9612353,223.22 C55.3212353,213.54 57.9612353,203.93 58.3512353,194.13 C58.8012353,183.94 58.1812353,176.35 57.9712353,170.56 C57.7046247,166.813248 57.7950319,163.049629 58.2412353,159.32 C58.7612353,152.76 60.0112353,142.45 61.1912353,135.24 C62.3712353,128.03 62.9012353,121.95 63.5512353,115.47 C64.2924893,109.622888 64.0389092,103.692495 62.8012353,97.93 C61.8012353,92.25 58.9212353,86.54 57.2812353,81.0186281 C34.9012353,84.97 31.9012353,84.97 11.5812353,81.0186281 Z" id="Path-Copy" fill="#396EC5"></path>
                        <path d="M69.1212353,34.8 C68.3412353,22.8 68.3812353,18.43 66.9812353,16.22 C64.9112353,12.95 63.1612353,11.81 56.7912353,10.06 C55.297347,9.54852575 53.8461716,8.91990599 52.4512353,8.18 C51.2712353,7.51 48.5912353,6.05 48.2712353,5.87 C45.9258885,4.52895773 44.0719279,2.47172734 42.9812353,-1.3500312e-13 C42.0422824,0.730556382 41.0494545,1.38909877 40.0112353,1.97 C37.4812353,2.97 31.7612353,2.8 29.1912353,1.97 C28.178725,1.4319583 27.2237763,0.791975132 26.3412353,0.06 C25.1484734,2.49886709 23.2723215,4.53831371 20.9412353,5.93 C20.5912353,6.15 17.2012353,8 15.5012353,8.87 C14.6953561,9.2449196 13.8709616,9.57868255 13.0312353,9.87 L12.6112353,10.01 C6.00123533,11.81 4.24123533,12.93 2.14123533,16.25 C0.731235333,18.46 0.511235333,23.25 0.0012353329,34.83 C-0.0987646671,37.97 11.9012353,39.97 12.4512353,40.13 C12.4512353,40.03 12.3812353,39.98 12.4512353,40.05 C13.5112353,45.64 15.2412353,55.63 15.5812353,58.43 C16.5812353,67.23 14.0112353,71.94 11.5812353,81.02 C9.90123533,86.97 58.9212353,86.54 57.2812353,81.02 C55.0212353,73.43 53.2812353,66.02 53.8512353,56.67 C54.0412353,53.32 55.5412353,45.56 56.5012353,40.44 C56.5712353,40.27 56.4312353,40.52 56.5012353,40.35 C57.9012353,40.97 68.9012353,35.97 69.1212353,34.8 Z" id="Path-Copy-2" fill="#1E252C"></path>
                        <path d="M11.9012353,79.97 C19.7052148,81.97 27.3718814,82.97 34.9012353,82.97 C42.4305892,82.97 49.7639226,81.97 56.9012353,79.97 L58.6012353,84.97 C50.6052148,86.97 42.7052148,87.97 34.9012353,87.97 C27.0972559,87.97 18.9305892,86.97 10.4012353,84.97 L11.9012353,79.97 Z" id="Rectangle" fill="#D12152"></path>
                        <rect id="Rectangle" stroke="#FFFFFF" stroke-width="2" fill="#F7B232" x="30.4892971" y="82.47" width="10" height="6" rx="2"></rect>
                    </g>
                    <path d="M45.7319383,5.62 C54.6419383,5.78 57.5219383,11.21 57.8219383,19.56 L57.8219383,19.56 C59.3919383,19.72 60.0519383,21.67 59.3219383,24.08 C58.7619383,25.92 57.9419383,27.29 56.9619383,27.77 C56.5719383,29.27 56.1019383,30.77 55.6319383,32.17 C54.5319383,35.44 48.4519383,39.8 45.1119383,39.74 C42.1119383,39.68 35.2419383,35.82 34.5219383,31.74 C34.3319383,30.74 33.9719383,29.09 33.6319383,27.4 C32.5619383,26.99 31.7119383,25.52 31.1819383,23.52 C30.5419383,21.09 31.2719383,19.17 32.8419383,19.06 L32.9319383,19.06 C33.5819383,11 36.8519383,5.46 45.7319383,5.62 Z" id="Path" fill="url(#linearGradient-4)"></path>
                </g>
            </g>
        </g>
    </g>
</svg>