<?xml version="1.0" encoding="UTF-8"?>
<svg width="93px" height="310px" viewBox="0 0 93 310" version="1.1" xmlns="http://www.w3.org/2000/svg" xmlns:xlink="http://www.w3.org/1999/xlink">
    <title>Loading [frame 1]_man</title>
    <defs>
        <linearGradient x1="-0.0532416812%" y1="49.9950018%" x2="99.9901126%" y2="49.9950018%" id="linearGradient-1">
            <stop stop-color="#E6E6F0" offset="0%"></stop>
            <stop stop-color="#E6E6F0" offset="100%"></stop>
        </linearGradient>
        <linearGradient x1="-0.0653366123%" y1="50.0109914%" x2="100.014672%" y2="50.0109914%" id="linearGradient-2">
            <stop stop-color="#1E1E28" offset="0%"></stop>
            <stop stop-color="#0F0F19" offset="100%"></stop>
        </linearGradient>
        <linearGradient x1="50%" y1="99.8450413%" x2="50%" y2="0%" id="linearGradient-3">
            <stop stop-color="#E6E6F0" offset="0%"></stop>
            <stop stop-color="#C0C0C8" offset="100%"></stop>
        </linearGradient>
        <linearGradient x1="50.0254871%" y1="99.9982048%" x2="50.0254871%" y2="0.00989703958%" id="linearGradient-4">
            <stop stop-color="#E6E6F0" offset="22%"></stop>
            <stop stop-color="#E0E1E9" offset="60%"></stop>
            <stop stop-color="#D9DBE1" offset="87%"></stop>
        </linearGradient>
    </defs>
    <g id="Mobile" stroke="none" stroke-width="1" fill="none" fill-rule="evenodd">
        <g id="[M]-Loading-[frame-1]_man" transform="translate(-141.000000, -202.000000)">
            <g id="Loading-[frame-1]_man" transform="translate(141.000000, 202.000000)">
                <g id="Group-3" transform="translate(0.588062, 0.000000)">
                    <path d="M44.8773446,162.062632 L44.7429909,163.60974 L44.3826925,168.067106 L44.0087357,173.076601 L43.5319781,180.144056 L43.1619383,186.454359 L41.6219383,206.294777 L41.6219383,206.822232 C41.4869383,209.137685 41.0624135,211.427675 40.5968866,213.642895 L39.9737048,216.547887 C39.5208226,218.686906 39.1373928,220.729243 39.0719383,222.625591 C39.0490811,223.287808 39.0466322,224.032827 39.0585272,224.843764 L39.0792983,225.847447 L39.111511,226.907927 L39.1528367,228.018719 L39.3891394,233.466036 L39.4617608,235.376908 L39.5016759,236.658327 C39.5135243,237.085567 39.5237867,237.512546 39.532075,237.938185 L39.5506294,239.209996 C39.5624852,240.475624 39.5530811,241.719457 39.5119383,242.912317 C39.4097161,245.905736 39.0408272,248.600614 38.6326516,251.249855 L38.1688707,254.224333 C37.8646217,256.212265 37.586237,258.227873 37.4296423,260.377848 L37.3619383,261.464527 C37.2595853,263.480073 37.0251909,265.495619 36.7752621,267.512057 L36.5244703,269.528825 C36.1946841,272.218333 35.9063226,274.909956 35.9355511,277.605807 L35.98158,279.320048 L36.0068599,280.502994 C36.0455491,282.014972 36.1366971,283.708067 36.5430903,284.906276 L36.6619383,285.220283 C36.8369383,285.638697 36.9216605,286.111701 36.9898897,286.63783 L37.1108272,287.641917 C37.1708272,288.113395 37.2486049,288.618309 37.3819383,289.155908 C37.496224,289.616706 37.6594893,290.074193 37.8344164,290.526947 L38.2319383,291.537062 C38.5319383,292.315565 38.7819383,293.076317 38.7819383,293.811711 C38.7819383,294.41733 38.6106926,295.126137 38.3819993,295.91972 L37.954912,297.35976 C37.7344642,298.117867 37.5195853,298.930529 37.3819383,299.786152 C37.2177277,300.806895 37.2237111,301.628029 37.272243,302.341173 L37.3146253,302.857214 L37.3819383,303.574134 C37.4208302,304.034591 37.4387804,304.466513 37.3819383,304.90855 C37.2019383,306.308334 36.1419383,308.854318 34.1119383,309.036899 L33.8028071,309.067826 L33.5688533,309.097447 L33.4002363,309.125463 C33.3770315,309.129981 33.356139,309.134421 33.3373539,309.138774 L33.2482912,309.163818 C33.1924122,309.183747 33.1789661,309.201222 33.1823266,309.215459 L33.1927862,309.23094 L33.2240962,309.252578 L32.2519383,309.168763 C29.0819489,308.610804 26.0094403,307.585621 23.1319383,306.125754 C21.8836624,305.377244 21.6674912,304.783115 21.7289861,303.89087 L21.7550102,303.613801 C21.7604843,303.565981 21.7664641,303.517303 21.7728551,303.46771 L21.8877757,302.64812 C21.8959216,302.587963 21.9040072,302.526609 21.9119383,302.464 C22.022679,301.589792 22.6063416,300.141824 23.3113256,298.674869 L23.644037,297.998485 C23.7004979,297.886203 23.7573567,297.774314 23.8144531,297.66307 L24.1586049,297.005368 L24.5007814,296.375271 L24.8333009,295.784901 L25.1484815,295.246378 L25.4386415,294.771822 C25.4844897,294.698734 25.5289753,294.628815 25.5719383,294.56232 C26.5247579,293.055432 27.068356,291.322587 27.1512464,289.538852 L27.1619383,289.155908 C27.1619383,289.005786 27.1847383,288.808599 27.2233783,288.572948 L27.2923483,288.1917 L27.4289345,287.52576 L27.6454895,286.496118 L27.756782,285.935073 L27.8631245,285.351814 L27.959297,284.752793 C27.9741883,284.652001 27.9884383,284.550821 28.0019383,284.449387 C28.7154518,278.672605 27.7838521,272.362352 26.6044676,266.268832 L26.305268,264.750401 L25.2468132,259.544618 L24.9611954,258.09906 L24.6919383,256.67686 C24.5625265,255.968018 24.4289625,255.26058 24.2935747,254.554116 L23.6798784,251.380158 C22.8661597,247.15312 22.1125265,242.937973 21.9219383,238.641961 C21.8124145,236.180988 21.7884916,233.899421 21.8184505,231.77207 L21.842638,230.513963 L21.8782346,229.291659 C21.8850335,229.090858 21.8922444,228.891498 21.8998355,228.693555 L21.9496911,227.522687 L22.0071495,226.384598 L22.0706883,225.27808 L22.1387849,224.201923 L22.2099168,223.154918 L22.4943472,219.234233 L22.587361,217.863445 L22.6411112,216.976453 L22.6864777,216.109544 C22.7000335,215.823788 22.7119383,215.541176 22.7219383,215.261509 C22.9885489,211.461043 22.8981417,207.643468 22.4519383,203.86037 L22.3244177,202.431809 L22.1787413,200.908604 L22.0164444,199.304368 L21.839062,197.632717 L21.6481292,195.907264 L21.4451811,194.141626 L21.2317529,192.349417 L21.0093797,190.544252 L20.7795966,188.739746 L20.5439388,186.949513 C20.5042582,186.653087 20.4643968,186.357823 20.4243865,186.064004 L20.1827948,184.32071 C20.1423171,184.033809 20.1017546,183.74892 20.0611391,183.466329 L19.8170676,181.800606 C19.7763686,181.528335 19.7356805,181.258928 19.6950356,180.992669 L19.4519383,179.435152 C18.2819383,172.111644 17.9966501,166.291004 17.9966501,159.381724 L18.0004294,157.861492 L18.011945,156.410382 L18.0314636,155.024105 L18.0592521,153.698371 L18.095577,152.428891 L18.1407051,151.211376 L18.1949032,150.041537 L18.2584379,148.915085 C18.2698199,148.73072 18.2816021,148.547984 18.2937899,148.366788 L18.3718297,147.297373 L18.459873,146.260621 C18.4753953,146.090312 18.4913455,145.921186 18.5077292,145.753153 L18.6112778,144.757354 L18.7254966,143.783495 C18.785318,143.301336 18.8492407,142.825796 18.9174149,142.354463 L19.0594762,141.416689 C19.0841126,141.26109 19.1092326,141.10578 19.1348416,140.950668 L19.2944086,140.021679 C19.3495834,139.712336 19.4067588,139.403076 19.4659794,139.093183 L19.6498208,138.160892 L19.8461994,137.220516 L20.0553821,136.267768 L20.2776355,135.298356 L20.5132263,134.307992 L20.7624213,133.292387 L21.0254872,132.247252 L21.4466773,130.614796 L22.2217938,127.685619 L23.0919383,124.437839 L23.2455316,122.680391 L23.3776885,121.049053 L23.4915369,119.526079 L23.6202606,117.633347 L23.7545075,115.429909 L24.0394586,110.393989 L24.1579906,108.509214 L24.2617701,107.017362 L24.3827106,105.433423 L24.47483,104.315193 L24.5775142,103.13937 L24.6919383,101.899286 C24.6919383,101.510035 24.6793526,101.065857 24.6556732,100.575697 L24.6120201,99.8070881 C24.6034201,99.6736115 24.5941733,99.5375404 24.5843031,99.3990146 L24.5177871,98.5395218 C24.5055164,98.3917362 24.4926689,98.2417755 24.4792679,98.0897793 L24.3924066,97.1544946 L24.2933803,96.1770664 L24.183308,95.1642024 L24.0633087,94.12261 L23.8671442,92.5210287 L23.7272227,91.4369611 L23.5064197,89.8031088 L23.1975052,87.6453851 L23.0393467,86.5905064 L22.8802126,85.56056 L22.6421299,84.0770611 L22.4081462,82.6873897 L22.1820379,81.414184 C22.1574921,81.2800255 22.1331621,81.1484429 22.1090712,81.0195761 C22.0390712,80.9485726 21.9119383,80.9181425 21.9119383,81.0195761 C21.9355942,82.9561395 21.8971926,84.7830642 21.8112866,86.5061211 L21.7471379,87.6395012 C21.7353267,87.8258544 21.722969,88.010941 21.7100847,88.1947691 L21.6266197,89.2826982 C21.5967981,89.6403492 21.5650299,89.9930292 21.5314748,90.3408016 L21.4256084,91.3694592 L21.3099787,92.3690511 C21.2899467,92.5332487 21.2695478,92.6962511 21.248802,92.8580661 L21.120324,93.8147718 C21.0982704,93.9718693 21.0759098,94.1277952 21.0532622,94.2825575 L20.9140918,95.197232 C20.890376,95.3473717 20.866413,95.4963637 20.8422229,95.6442158 L20.6945163,96.517714 L20.5423167,97.3642364 L20.3865823,98.1841628 L20.2282713,98.9778733 L19.9880698,100.120115 L19.7474612,101.205509 L19.3543255,102.891652 L18.6515007,105.824635 L18.4763634,106.595868 L18.3717562,107.08335 L18.2779876,107.549935 L18.1597535,108.211463 C18.1482108,108.282449 18.1372195,108.352604 18.1267996,108.421936 L18.0712965,108.828112 C18.063242,108.894183 18.0557989,108.959447 18.048987,109.023911 L18.0158507,109.401165 L17.9988234,109.759612 C17.9973812,109.817808 17.9966501,109.875235 17.9966501,109.931903 L18.0281802,112.346266 L18.0301054,113.301264 L18.0251309,113.958838 L18.0052745,114.981984 L17.9820194,115.691768 L17.9493466,116.426231 L17.9060531,117.187543 C17.8978856,117.316786 17.8892254,117.447238 17.8800476,117.578945 L17.8185672,118.384596 L17.7434583,119.222519 C17.7022963,119.649909 17.6555724,120.090215 17.60261,120.544655 L17.4881666,121.472745 C17.4676395,121.630688 17.4463691,121.790292 17.4243304,121.951602 L17.282677,122.940298 C17.232252,123.276929 17.1785531,123.620746 17.1213797,123.97211 L16.9392356,125.049207 C16.9070741,125.232618 16.8739939,125.418005 16.8399699,125.605415 C16.5998004,126.92831 16.3481257,128.179402 16.0902941,129.363795 L15.8306083,130.526144 L15.5680063,131.645162 L15.3036767,132.721983 C15.2595439,132.898 15.2153885,133.072306 15.1712355,133.244925 L14.9065429,134.260577 L14.6430939,135.236869 L14.3820771,136.174934 L13.8720937,137.940922 L12.6219383,142.106449 L12.4511649,142.91071 L12.2860955,143.661691 L12.0492418,144.694592 L11.8253642,145.623889 L11.5471933,146.718669 L11.232441,147.887814 L10.6707536,149.89253 L10.5117149,150.500425 L10.4084588,150.936751 L10.3472986,151.223729 L10.2923098,151.510958 L10.2435175,151.801332 L10.200947,152.097745 L10.1646235,152.40309 L10.1646235,153.075014 C10.0824512,154.006877 10.0946942,154.4475 10.1487817,154.862268 L10.2148701,155.285654 L10.2971724,155.795223 C10.3356235,156.05617 10.3754172,156.373297 10.4119383,156.787458 C10.9475884,158.219098 11.3722123,159.690978 11.6819383,161.189678 C11.7043964,161.384343 11.7258108,161.6018 11.746181,161.838095 L11.8041585,162.59954 L11.855868,163.450288 L11.9013068,164.366617 L11.9404721,165.324806 L11.9733611,166.301131 L12.0109205,167.747732 L12.0281066,168.665613 L12.0390068,169.518602 L12.0435649,170.62452 C12.0432849,170.733357 12.0427427,170.83702 12.0419383,170.935014 C12.0419383,171.006017 12.0463383,171.091425 12.0538183,171.187949 L12.1038133,171.686257 L12.1686583,172.268095 L12.2069383,172.669529 C12.2619383,173.333919 12.2619383,173.947593 12.0419383,174.099743 C11.6198693,174.37921 10.9916172,173.672238 10.4935923,172.869712 L10.3237739,172.58395 C10.2965547,172.536145 10.269923,172.488372 10.2439474,172.440813 L10.0965137,172.159468 C10.0734361,172.113488 10.0511514,172.068083 10.0297283,172.023436 L9.9120744,171.766092 L9.81838216,171.535628 C9.79151021,171.464254 9.76917965,171.39881 9.75193827,171.340748 C9.5007618,170.471999 9.38692097,169.715038 9.3098825,169.047203 L9.19510945,167.985422 C9.14667672,167.575868 9.08771071,167.20518 8.98157393,166.865099 L8.91193827,166.664658 L8.41193827,169.616377 C8.14440848,171.235832 8.56591668,172.894435 9.57193827,174.18089 C9.96598913,174.673189 10.3819662,175.146861 10.8185435,175.600441 L11.2619383,176.047269 C13.0952716,177.893361 13.7619383,179.245809 13.2619383,180.104614 C13.147719,180.300576 12.9329009,180.407709 12.7151533,180.385765 L12.6219383,180.368341 L12.3319383,180.287194 C10.0634753,179.770343 7.86915154,178.962517 5.80193827,177.883217 C4.61971605,177.110068 3.91106372,175.818714 3.33791217,174.48333 L3.09958613,173.909709 L1.82263575,170.699237 L1.51994868,169.914186 L1.34482385,169.440013 L1.19066652,168.999647 L1.0571632,168.58833 C1.03661639,168.521933 1.01691711,168.456549 0.998058824,168.392078 L0.894948732,168.015416 C0.708703337,167.280835 0.641679704,166.649198 0.682592287,165.94926 L0.711991016,165.592807 C0.737516961,165.35032 0.774826828,165.097072 0.823502633,164.826723 L0.904988546,164.407578 L1.00320988,163.958023 L1.11785315,163.473301 L1.31992342,162.669873 L1.46457475,162.116459 L1.60054412,161.623724 L1.79691286,160.958853 L1.98355108,160.369828 L2.15975212,159.841763 L2.52632927,158.763069 L2.66263599,158.330704 L2.74605109,158.041413 L2.82325708,157.746137 L2.89404456,157.440466 L2.95820416,157.11999 L3.01552649,156.780299 L3.06580217,156.416982 C3.0735826,156.354216 3.08106069,156.290281 3.08823209,156.225086 L3.12754521,155.818061 L3.15928823,155.376384 L3.18325176,154.895645 L3.19922641,154.371433 L3.20700282,153.799338 L3.20637159,153.17495 L3.19712335,152.493858 L3.1790487,151.751652 L3.15193827,150.943922 L3.17319585,150.436604 L3.20745601,149.465843 L3.23163346,148.550715 L3.2468369,147.68778 L3.25417506,146.873601 L3.25286023,145.736228 L3.24008508,144.689215 L3.1951215,142.81985 L3.14358023,140.913225 L3.13288037,140.152145 L3.13441908,139.40793 L3.15193827,138.668977 C3.23225581,133.088041 3.59942097,127.51515 4.25193827,121.973001 L4.29442503,121.545129 L4.35065224,121.061324 L4.41964093,120.525898 L4.54491031,119.635407 L4.74746448,118.307671 L5.04674303,116.470858 L5.38295168,114.50012 L7.16214212,104.54499 L7.39822759,103.164879 L7.52631497,102.33739 L7.56025799,102.066037 L7.57062014,101.9428 L7.5713959,101.871105 L7.53210883,101.41173 L7.37377987,99.7795657 L7.26488834,98.4473481 L7.20192126,97.5438211 L7.14145245,96.5369346 L7.08591302,95.4267703 L7.0377341,94.2134101 L7.00789271,93.2357167 L6.98458473,92.200056 L6.96883579,91.1064625 L6.96167151,89.9549707 L6.96411753,88.7456151 L6.97159374,87.9072485 L7.00194294,86.1534503 L7.0393736,84.7707102 L7.07188227,83.8168113 L7.13273738,82.3378805 L7.18181202,81.3198865 L7.26894055,79.7448608 L7.33648046,78.6628355 L7.41193827,77.5552156 C7.291916,76.4037042 7.20982478,75.3284117 7.16179434,74.3230778 L7.12887654,73.4783497 C7.11237193,72.9264248 7.10662813,72.3967595 7.11092301,71.8881857 L7.12480404,71.1409977 C7.18141605,69.1899008 7.39286955,67.5669237 7.71294711,66.1973101 L7.83797768,65.6954354 L7.97265014,65.2164374 C8.11196301,64.7485859 8.2649263,64.3137353 8.42910277,63.9079436 L8.5969267,63.5116922 L8.77168447,63.1339373 L8.95283446,62.7738028 L9.13983508,62.4304127 C9.23470777,62.2627577 9.33157134,62.1010534 9.43012114,61.9448069 L9.62937875,61.639445 C9.66293298,61.5897156 9.696652,61.540556 9.73052453,61.4919482 L9.93551151,61.2067751 L10.1436411,60.9339661 L10.3543715,60.6726452 L10.5671614,60.4219364 L10.781469,60.1809634 L10.9967527,59.9488504 L11.3203237,59.6153769 L11.6430444,59.2969103 L12.2619383,58.7088474 L12.7217479,58.2840615 C12.7989346,58.2139967 12.8764383,58.1442825 12.9543208,58.0748948 L13.4266558,57.6622941 C13.5063006,57.5941163 13.5864478,57.526217 13.6671591,57.4585722 L14.1586901,57.0555654 C15.4069115,56.0547234 16.8098516,55.1003459 18.5759699,54.1114494 L19.3022808,53.7138579 C20.5467286,53.0474971 21.9649421,52.3609956 23.6186871,51.6303584 L24.1219383,51.4098191 L24.5419383,51.267812 C25.3816646,50.9723182 26.206059,50.6337703 27.0119383,50.2534757 L28.0113906,49.7253315 L29.9231541,48.6882222 L31.7841777,47.656249 L32.4142657,47.2946469 L33.3403758,46.732572 L33.9053656,46.3813571 C35.5664464,45.3286379 36.9184725,44.253215 37.8519383,42.3171731 C38.7344792,43.059642 39.6894279,43.7088002 40.7019383,44.2545554 C41.871345,44.6376381 43.6929438,44.8821119 45.5694426,44.9392411 L45.9450372,44.9471731 L46.1652229,44.9447817 C48.114085,44.899907 50.0275473,44.6517271 51.2399626,44.2545554 C52.252473,43.7088002 53.2074217,43.059642 54.0899626,42.3171731 C55.0234285,44.253215 56.3754545,45.3286379 58.0365353,46.3813571 L58.6015252,46.732572 L59.6814326,47.3852269 L60.8679245,48.0531471 L62.6115008,49.0123305 L63.9305103,49.7253315 L64.9299626,50.2534757 C65.7358419,50.6337703 66.5602364,50.9723182 67.3999626,51.267812 L67.8199626,51.4098191 C72.5840757,53.4809913 75.4531975,55.1873271 77.7832108,57.0555654 L78.2747418,57.4585722 C78.3554531,57.526217 78.4356003,57.5941163 78.5152451,57.6622941 L78.9875801,58.0748948 L79.4508237,58.495331 L80.090765,59.0968926 L80.4062228,59.4015809 L80.72943,59.7247213 L80.9451483,59.9488504 L81.1604319,60.1809634 L81.3747395,60.4219364 L81.5875294,60.6726452 L81.7982599,60.9339661 L82.0063894,61.2067751 L82.2113764,61.4919482 L82.4126792,61.7903614 C82.5455326,61.9939117 82.6755689,62.2068727 82.8020658,62.4304127 L82.9890664,62.7738028 L83.1702164,63.1339373 C83.2889125,63.3798031 83.4033472,63.6374158 83.5127981,63.9079436 L83.6731466,64.3235676 C83.9599353,65.1038385 84.2063047,65.986196 84.3972363,66.9949325 L84.4957926,67.5578318 C84.7589463,69.1890522 84.883169,71.1326689 84.8130244,73.4783497 L84.7801066,74.3230778 C84.7320761,75.3284117 84.6499849,76.4037042 84.5299626,77.5552156 L84.6054205,78.6628355 L84.7038561,80.2762723 L84.7600889,81.3198865 L84.8311115,82.8372668 L84.8700186,83.8168113 L84.9164772,85.2380393 L84.9495648,86.6015298 L84.9703072,87.9072485 L84.9797298,89.1551608 L84.9802294,89.9549707 L84.9730651,91.1064625 L84.9503361,92.5517149 L84.9340082,93.2357167 L84.9041668,94.2134101 L84.8426981,95.7139892 L84.755426,97.3017862 L84.6770126,98.4473481 L84.553308,99.9439967 L84.37473,101.795241 L84.3699626,101.899286 L84.3816429,102.066037 L84.4315629,102.449831 L84.5436733,103.164879 L84.7039019,104.110027 L86.1334953,112.082582 L86.6284112,114.901746 L86.8951579,116.470858 L87.1382693,117.954257 L87.3003811,118.989801 L87.4414887,119.943166 L87.52226,120.525898 L87.6210187,121.309949 L87.670498,121.766327 C87.6775859,121.837669 87.6840809,121.90659 87.6899626,121.973001 C88.3424799,127.51515 88.7096451,133.088041 88.7899626,138.668977 L88.8036025,139.161601 L88.8100523,139.902773 L88.8030162,140.656941 L88.7079742,144.358285 L88.6922105,145.377757 L88.6866598,146.483721 L88.6904811,147.274811 L88.7016133,148.112938 L88.7211651,149.00154 L88.7502453,149.944055 L88.7899626,150.943922 L88.7628522,151.751652 L88.7447776,152.493858 L88.7355293,153.17495 L88.7348981,153.799338 L88.7426745,154.371433 L88.7586492,154.895645 L88.7826127,155.376384 L88.8143557,155.818061 L88.8536688,156.225086 L88.9003427,156.60187 C88.9087234,156.662392 88.9174021,156.721838 88.9263744,156.780299 L88.9836968,157.11999 C88.9938261,157.174882 89.0042403,157.228972 89.014935,157.282354 L89.0824347,157.594876 C89.0942341,157.645791 89.1063052,157.69618 89.1186438,157.746137 L89.1958498,158.041413 L89.3232355,158.474484 L89.4638849,158.908977 L89.8984216,160.187768 L90.0816592,160.754819 L90.209398,161.171314 L90.3413568,161.623724 L90.4773262,162.116459 L90.7192538,163.051194 L90.8693377,163.661148 L90.9964736,164.217187 C91.4199235,166.166931 91.3699601,167.190728 90.7296336,169.063153 L90.5402742,169.596188 L90.3211133,170.179304 L89.9353411,171.165376 L88.8423148,173.909709 L88.6039887,174.48333 C88.0308372,175.818714 87.3221849,177.110068 86.1399626,177.883217 C84.0727494,178.962517 81.8784256,179.770343 79.6099626,180.287194 L79.3199626,180.368341 C79.0724296,180.436505 78.810499,180.32857 78.6799626,180.104614 C78.1799626,179.245809 78.8466293,177.893361 80.6799626,176.047269 C81.2801804,175.460572 81.8445615,174.837289 82.3699626,174.18089 C83.3759842,172.894435 83.7974924,171.235832 83.5299626,169.616377 L83.0299626,166.664658 C82.8781979,167.058459 82.8049107,167.493957 82.7467915,167.985422 L82.6320184,169.047203 C82.5549799,169.715038 82.4411391,170.471999 82.1899626,171.340748 C82.1727213,171.39881 82.1503907,171.464254 82.1235187,171.535628 L82.0298265,171.766092 L81.9121727,172.023436 C81.8907495,172.068083 81.8684648,172.113488 81.8453872,172.159468 L81.6979535,172.440813 C81.6719779,172.488372 81.6453462,172.536145 81.618127,172.58395 L81.4483086,172.869712 C80.9502837,173.672238 80.3220316,174.37921 79.8999626,174.099743 C79.7239626,173.978023 79.6887626,173.560928 79.7098826,173.058791 L79.7349626,172.669529 C79.7404626,172.60309 79.7465126,172.536144 79.7529476,172.469101 L79.8747176,171.340662 C79.8900626,171.180433 79.8999626,171.041519 79.8999626,170.935014 L79.8998021,169.913348 L79.9137943,168.665613 L79.9309804,167.747732 L79.9685398,166.301131 L80.0014288,165.324806 L80.0405941,164.366617 L80.0860329,163.450288 L80.1377424,162.59954 C80.1743051,162.059506 80.2150464,161.579009 80.2599626,161.189678 C80.5696886,159.690978 80.9943125,158.219098 81.5299626,156.787458 C81.5664837,156.373297 81.6062774,156.05617 81.6447285,155.795223 L81.7008213,155.440827 L81.7736124,155.000205 C81.8433204,154.539351 81.86858,154.110418 81.7772774,153.075014 L81.7772774,152.40309 L81.720448,151.948603 L81.6747634,151.655571 L81.5946023,151.223729 L81.5334421,150.936751 L81.430186,150.500425 L81.2711473,149.89253 L80.5879759,147.444201 L80.3273528,146.459347 L80.1165367,145.623889 L79.8926591,144.694592 L79.6558054,143.661691 L79.4907361,142.91071 L79.3199626,142.106449 L78.193926,138.3603 L77.8172201,137.075907 L77.5598239,136.174934 L77.298807,135.236869 L77.035358,134.260577 L76.7706654,133.244925 L76.5059177,132.188776 C76.4618545,132.009314 76.4178386,131.828117 76.3738946,131.645162 L76.1112926,130.526144 L75.8516068,129.363795 C75.5937752,128.179402 75.3421005,126.92831 75.101931,125.605415 C74.931811,124.668365 74.7852863,123.781875 74.6592239,122.940298 L74.5175705,121.951602 C74.4955318,121.790292 74.4742614,121.630688 74.4537343,121.472745 L74.3392909,120.544655 C74.2863285,120.090215 74.2396046,119.649909 74.1984426,119.222519 L74.1233337,118.384596 C74.1119847,118.247692 74.1012035,118.112133 74.0909652,117.977872 L74.0358478,117.187543 L73.9925543,116.426231 L73.9598815,115.691768 L73.9366264,114.981984 L73.9215858,114.294711 L73.9117955,113.301264 L73.9120279,112.660779 L73.9170151,111.957957 L73.9452508,109.931903 L73.9430775,109.759612 L73.9260502,109.401165 C73.9218433,109.339867 73.9169652,109.277785 73.9114358,109.214912 L73.8706044,108.828112 L73.8151013,108.421936 C73.8046814,108.352604 73.7936901,108.282449 73.7821474,108.211463 L73.7064336,107.77551 L73.6184437,107.319231 L73.5191361,106.842245 L73.3510498,106.087111 L73.096266,105.004247 L72.4322216,102.235337 L72.1944398,101.205509 L71.9538311,100.120115 L71.7934519,99.3650163 L71.6342119,98.5842713 L71.4770695,97.7775003 L71.3229827,96.9443234 L71.1729098,96.0843607 L71.0278091,95.197232 L70.8886388,94.2825575 C70.8659911,94.1277952 70.8436305,93.9718693 70.8215769,93.8147718 L70.6930989,92.8580661 C70.6308615,92.372621 70.5717464,91.8764899 70.5162925,91.3694592 L70.4104261,90.3408016 C70.376871,89.9930292 70.3451028,89.6403492 70.3152812,89.2826982 L70.2318162,88.1947691 C70.0772047,85.9888319 69.9984214,83.6016607 70.0299626,81.0195761 C70.0299626,80.9181425 69.9028297,80.9485726 69.8328297,81.0195761 L69.6856017,81.8242479 L69.5337547,82.6873897 L69.299771,84.0770611 L69.0616883,85.56056 L68.8232831,87.1152484 L68.5883317,88.7184884 L68.3606106,90.3476418 L68.1438962,91.9800706 L67.9419648,93.5931368 L67.7585929,95.1642024 L67.6485206,96.1770664 L67.5494943,97.1544946 L67.462633,98.0897793 L67.3890555,98.976213 C67.366868,99.2628038 67.3470809,99.5401348 67.3298808,99.8070881 L67.2862278,100.575697 C67.2625483,101.065857 67.2499626,101.510035 67.2499626,101.899286 L67.3911125,103.439089 L67.5143778,104.881091 L67.6220536,106.23831 L67.7164349,107.523767 L67.8381002,109.345881 L67.9752105,111.645721 L68.1976431,115.606324 L68.3062309,117.39267 L68.3887801,118.645766 L68.5335778,120.651258 L68.647439,122.091138 L68.7778414,123.628518 C68.801081,123.893596 68.8251055,124.163279 68.8499626,124.437839 L70.0413237,128.891769 L70.4952236,130.614796 L70.9164138,132.247252 L71.1794796,133.292387 L71.4286746,134.307992 L71.6642654,135.298356 L71.8865188,136.267768 L72.0957015,137.220516 L72.2920802,138.160892 L72.4759215,139.093183 C72.5351421,139.403076 72.5923175,139.712336 72.6474924,140.021679 L72.8070593,140.950668 C72.8326683,141.10578 72.8577883,141.26109 72.8824247,141.416689 L73.024486,142.354463 C73.0926602,142.825796 73.156583,143.301336 73.2164044,143.783495 L73.3306231,144.757354 L73.4341717,145.753153 C73.4505554,145.921186 73.4665056,146.090312 73.482028,146.260621 L73.5700712,147.297373 L73.648111,148.366788 L73.7164141,149.473156 L73.7752472,150.620765 C73.7842783,150.815709 73.792926,151.012549 73.8011958,151.211376 L73.8463239,152.428891 L73.8826489,153.698371 L73.9104373,155.024105 C73.9143721,155.249986 73.9179624,155.478391 73.9212137,155.709407 L73.9366975,157.127565 L73.9443116,158.612699 C73.9449396,158.866042 73.9452508,159.122353 73.9452508,159.381724 C73.9452508,165.976946 73.6853085,171.580246 72.6440806,178.445564 L72.2468653,180.992669 L72.0027348,182.625727 C71.9620455,182.903442 71.9213772,183.183737 71.8807618,183.466329 L71.6379597,185.187169 L71.3979621,186.949513 L71.1623043,188.739746 L70.9325212,190.544252 L70.710148,192.349417 L70.4967198,194.141626 L70.2937717,195.907264 L70.1028389,197.632717 L69.9254565,199.304368 L69.7631596,200.908604 L69.6174832,202.431809 L69.4899626,203.86037 C69.0437592,207.643468 68.953352,211.461043 69.2199626,215.261509 L69.2554232,216.109544 L69.3007898,216.976453 L69.3545399,217.863445 L69.4475537,219.234233 L69.7319842,223.154918 L69.8031161,224.201923 L69.8712126,225.27808 L69.9347514,226.384598 L69.9922098,227.522687 L70.0420654,228.693555 L70.0827956,229.898411 C70.088739,230.10212 70.0942386,230.307296 70.0992629,230.513963 L70.1234504,231.77207 C70.1534094,233.899421 70.1294864,236.180988 70.0199626,238.641961 C69.8611391,242.221971 69.3113121,245.745825 68.6615462,249.2672 L68.2620225,251.380158 L67.6483262,254.554116 C67.5806323,254.907348 67.5133943,255.260823 67.4469034,255.614596 L67.2499626,256.67686 C67.1634762,257.146744 67.0734542,257.620956 66.9807055,258.09906 L66.6950877,259.544618 L65.7885882,263.995386 L65.4860458,265.508325 C64.2385382,271.835571 63.1967194,278.431906 63.9399626,284.449387 L63.9826039,284.752793 L64.0787764,285.351814 L64.1851189,285.935073 L64.2964114,286.496118 L64.5620426,287.759207 L64.6495526,288.1917 L64.7185226,288.572948 C64.7475026,288.749686 64.7675726,288.904788 64.7757964,289.034626 L64.7799626,289.155908 C64.7979759,291.073885 65.3490845,292.947797 66.3699626,294.56232 L66.5032594,294.771822 L66.7934194,295.246378 L67.1086,295.784901 L67.4411195,296.375271 L67.783296,297.005368 L68.1274478,297.66307 C68.1845443,297.774314 68.241403,297.886203 68.2978639,297.998485 L68.6305753,298.674869 L68.9460577,299.348557 C69.5039544,300.573772 69.9362589,301.724286 70.0299626,302.464 L70.1690458,303.46771 L70.2017024,303.754741 C70.2934466,304.724088 70.1206523,305.339818 68.8099626,306.125754 C65.9324606,307.585621 62.859952,308.610804 59.6899626,309.168763 L58.7212636,309.256037 L58.7491147,309.23094 L58.7595743,309.215459 C58.7629348,309.201222 58.7494887,309.183747 58.6936097,309.163818 L58.604547,309.138774 L58.4649082,309.111674 L58.2648529,309.082818 L57.9945404,309.052507 C57.9430869,309.04735 57.888296,309.042145 57.8299626,309.036899 C55.7999626,308.854318 54.7399626,306.308334 54.5599626,304.90855 C54.5031205,304.466513 54.5210707,304.034591 54.5599626,303.574134 L54.6272757,302.857214 L54.6696579,302.341173 C54.7181898,301.628029 54.7241732,300.806895 54.5599626,299.786152 C54.4452568,299.073133 54.2769177,298.389948 54.0964169,297.743306 L53.8766327,296.985306 L53.5599016,295.91972 C53.3312083,295.126137 53.1599626,294.41733 53.1599626,293.811711 C53.1599626,293.076317 53.4099626,292.315565 53.7099626,291.537062 L54.1074845,290.526947 C54.2824116,290.074193 54.4456769,289.616706 54.5599626,289.155908 C54.693296,288.618309 54.7710737,288.113395 54.8310737,287.641917 L54.9520112,286.63783 C55.0202404,286.111701 55.1049626,285.638697 55.2799626,285.220283 C55.703492,284.21788 55.8467446,282.755691 55.9071558,281.341608 L55.935041,280.502994 L55.9690732,278.957916 L55.9799626,278.616954 C56.1070215,275.582895 55.7884401,272.554522 55.4174306,269.528825 L55.1666388,267.512057 C54.9583648,265.831692 54.7608786,264.151946 54.6416032,262.472304 L54.5799626,261.464527 C54.4477404,258.90051 54.1279873,256.543587 53.7730302,254.224333 L53.3092493,251.249855 C52.9010737,248.600614 52.5321849,245.905736 52.4299626,242.912317 C52.3682484,241.123027 52.3779463,239.219048 52.4236905,237.298856 L52.4591386,236.017408 L52.5029385,234.73764 L52.5527615,233.466036 L52.7890642,228.018719 L52.8303899,226.907927 L52.8626026,225.847447 L52.8833737,224.843764 C52.8952688,224.032827 52.8928198,223.287808 52.8699626,222.625591 C52.8045081,220.729243 52.4210783,218.686906 51.9681961,216.547887 L51.5013676,214.378465 C50.9774007,211.936247 50.4699626,209.394957 50.3199626,206.822232 L50.3199626,206.294777 L48.7779522,186.412929 L48.5812648,182.927833 L48.1590329,176.317661 L47.7752089,170.909655 L47.5170486,167.527689 L47.1171869,162.645035 L47.0670234,162.074875 L44.8773446,162.062632 Z" id="Path" fill="url(#linearGradient-1)"></path>
                    <path d="M46.1040121,37 C54.5525531,37 57.7207559,32.3150143 59.6956024,27.2396131 C61.4803566,22.6196966 61.1952184,18.7562102 61.1952184,14.7137832 C61.1952184,6.21411299 56.2739433,0 46.2413009,0 C36.2086585,0 31.4563542,6.5069246 31.4563542,15.0309958 C31.4563542,19.3418334 30.1362697,23.4981315 33.6318535,29.0940866 C37.1274373,34.6900418 38.1095802,37 46.1040121,37 Z" id="Path" fill="url(#linearGradient-2)"></path>
                    <path d="M56.9619383,30.64 C55.1594564,34.9066667 54.2582154,38.1266667 54.2582154,40.3 C54.2582154,42.4733333 54.7771942,44.0313441 58.9580131,47.6998025 L33.4079265,47.6998025 C36.7234263,44.4863488 37.7983461,43.6236122 37.992445,40.33 C37.8010009,37.0295644 37.1177685,33.7690375 35.9619383,30.64 L56.9619383,30.64 Z" id="Path" fill="url(#linearGradient-3)"></path>
                    <path d="M46.695625,5.62 L46.821354,5.62701279 C55.6012498,5.89477246 58.8937627,11.3134962 59.5692897,19.06 L59.5692897,19.06 L59.6666095,19.06 C61.3642993,19.17 62.1536711,21.09 61.4616191,23.52 C60.8885137,25.52 59.9693822,26.99 58.8123579,27.4 C58.4447054,29.09 57.6634849,30.532271 57.0934151,31.7796418 C55.2030364,35.5188592 51.9489613,39.74 46.3986769,39.74 C46.3372401,39.74 46.275199,39.7316647 46.2126247,39.7152547 C46.1493376,39.7315758 46.0869632,39.74 46.0251997,39.74 C40.4749152,39.74 37.2208401,35.5188592 35.3304615,31.7796418 C34.7603916,30.532271 33.9791712,29.09 33.6115186,27.4 C32.4544943,26.99 31.5353629,25.52 30.9622574,23.52 C30.2702055,21.09 31.0595772,19.17 32.757267,19.06 L32.8545868,19.06 C33.5301139,11.3134962 36.8226268,5.89477246 45.6025225,5.62701279 L45.7282516,5.62 C45.8915756,5.61727856 46.0531446,5.61620617 46.2129746,5.61676716 C46.3714094,5.61621067 46.5326433,5.61728427 46.695625,5.62 Z" id="Combined-Shape" fill="url(#linearGradient-4)"></path>
                </g>
                <path d="M34.0260687,15 C33.9267578,15.5348252 33.8580958,15.9564306 33.8200825,16.2648161 C33.7253496,17.0333454 33.6612925,17.9395469 33.6644422,18.3683452 C33.6773876,20.1307406 34.0385448,21.4599002 34.1006648,22.2728629 C34.1991016,23.561103 33.4988801,22.1407532 32,18.0118136 L34.0260687,15 Z" id="Path-69" fill="#12121C"></path>
                <path d="M61.5260687,15 C61.4267578,15.5348252 61.3580958,15.9564306 61.3200825,16.2648161 C61.2253496,17.0333454 61.1612925,17.9395469 61.1644422,18.3683452 C61.1773876,20.1307406 61.5385448,21.4599002 61.6006648,22.2728629 C61.6991016,23.561103 60.9988801,22.1407532 59.5,18.0118136 L61.5260687,15 Z" id="Path-69-Copy-2" fill="#12121C" transform="translate(60.554882, 18.866195) scale(-1, 1) translate(-60.554882, -18.866195) "></path>
            </g>
        </g>
    </g>
</svg>