<?xml version="1.0" encoding="UTF-8"?>
<svg width="93px" height="310px" viewBox="0 0 93 310" version="1.1" xmlns="http://www.w3.org/2000/svg" xmlns:xlink="http://www.w3.org/1999/xlink">
    <title>Loading [frame 2]_man</title>
    <defs>
        <linearGradient x1="-0.0532416812%" y1="49.9950018%" x2="99.9901126%" y2="49.9950018%" id="linearGradient-1">
            <stop stop-color="#E6E6F0" offset="0%"></stop>
            <stop stop-color="#E6E6F0" offset="100%"></stop>
        </linearGradient>
        <linearGradient x1="-0.0653366123%" y1="50.0109914%" x2="100.014672%" y2="50.0109914%" id="linearGradient-2">
            <stop stop-color="#1E1E28" offset="0%"></stop>
            <stop stop-color="#0F0F19" offset="100%"></stop>
        </linearGradient>
        <linearGradient x1="50%" y1="99.8450413%" x2="50%" y2="0%" id="linearGradient-3">
            <stop stop-color="#E6E6F0" offset="0%"></stop>
            <stop stop-color="#C0C0C8" offset="100%"></stop>
        </linearGradient>
        <linearGradient x1="50.0254871%" y1="99.9982048%" x2="50.0254871%" y2="0.00989703958%" id="linearGradient-4">
            <stop stop-color="#E6E6F0" offset="22%"></stop>
            <stop stop-color="#E0E1E9" offset="60%"></stop>
            <stop stop-color="#D9DBE1" offset="87%"></stop>
        </linearGradient>
    </defs>
    <g id="Mobile" stroke="none" stroke-width="1" fill="none" fill-rule="evenodd">
        <g id="[M]-Loading-[frame-2]-Copy" transform="translate(-141.000000, -202.000000)">
            <g id="Loading-[frame-2]_man" transform="translate(141.000000, 202.000000)">
                <g id="Group-3" transform="translate(0.588062, 0.000000)">
                    <path d="M45.7919383,152.40309 C45.7267383,153.024675 45.6626423,153.649003 45.5996624,154.274941 L45.5060313,155.214912 C45.4441707,155.842175 45.3834323,156.470481 45.3238283,157.098696 L45.1916387,158.511548 L45.1916387,158.511548 L45.1056545,159.451862 C45.0914673,159.608417 45.0773519,159.764877 45.0633085,159.921225 L44.9799144,160.857828 C43.8520503,173.635838 43.2111383,185.422982 43.1619383,186.454359 L43.1619383,186.454359 L41.6219383,206.294777 L41.6219383,206.822232 C41.2919383,212.482228 39.2319383,217.990074 39.0719383,222.625591 C38.9119383,227.261108 39.7519383,235.95397 39.5119383,242.912317 C39.2819383,249.647509 37.7019383,254.871341 37.3619383,261.464527 C37.0719383,267.17524 35.7219383,272.885954 35.9619383,278.616954 C36.0319383,280.483332 35.9419383,283.516198 36.6619383,285.220283 C37.0819383,286.224476 36.9819383,287.543113 37.3819383,289.155908 C37.7819383,290.768702 38.7819383,292.340924 38.7819383,293.811711 C38.7819383,295.282499 37.7719383,297.361888 37.3819383,299.786152 C36.9919383,302.210416 37.5619383,303.508766 37.3819383,304.90855 C37.2019383,306.308334 36.1419383,308.854318 34.1119383,309.036899 C33.0619383,309.131337 33.1596791,309.212207 33.2095397,309.243012 L33.2240962,309.252578 C33.2367659,309.266023 33.1167659,309.244313 32.2519383,309.168763 C29.0819489,308.610804 26.0094403,307.585621 23.1319383,306.125754 C21.3219383,305.040414 21.6819383,304.279662 21.9119383,302.464 C22.1419383,300.648338 24.4119383,296.357695 25.5719383,294.56232 C26.5928164,292.947797 27.143925,291.073885 27.1619383,289.155908 C27.1619383,288.405299 27.7319383,286.47806 28.0019383,284.449387 C29.1019383,275.543515 26.2919383,265.369722 24.6919383,256.67686 C23.5919383,250.651702 22.1919383,244.727978 21.9219383,238.641961 C21.4619383,228.305874 22.5119383,221.134517 22.7219383,215.261509 C22.9885489,211.461043 22.8981417,207.643468 22.4519383,203.86037 C21.8819383,197.206324 20.6219383,186.75866 19.4519383,179.435152 C18.2819383,172.111644 17.9966501,166.291004 17.9966501,159.381724 C17.9966501,143.041388 19.2319383,138.841414 23.0919383,124.437839 C23.5145097,119.77033 23.6964444,116.512046 23.8726496,113.33033 L23.9349843,112.20838 C24.1026158,109.21342 24.2896526,106.147404 24.6919383,101.899286 C24.6919383,97.6175181 23.1690712,86.689716 22.1090712,81.0195761 C22.0390712,80.9485726 21.9119383,80.9181425 21.9119383,81.0195761 C22.1090712,97.1576045 17.9966501,105.681834 17.9966501,109.931903 C18.0517873,113.848498 18.2009303,118.109013 16.8399699,125.605415 C15.4790095,133.101818 13.7486049,138.292545 12.6219383,142.106449 C11.2619383,148.622731 10.4246235,149.968683 10.1646235,152.40309 L10.1646235,152.40309 L10.1646235,153.075014 C9.99114853,155.042281 10.2384633,154.820191 10.4119383,156.787458 C10.9475884,158.219098 11.3722123,159.690978 11.6819383,161.189678 C11.9402068,163.428333 12.0604407,168.68116 12.0419383,170.935014 C12.0419383,171.645049 12.4819383,173.795442 12.0419383,174.099743 C11.3219383,174.576481 10.0019383,172.182647 9.75193827,171.340748 C9.14193827,169.230929 9.34193827,167.780428 8.91193827,166.664658 L8.91193827,166.664658 L8.41193827,169.616377 C8.14440848,171.235832 8.56591668,172.894435 9.57193827,174.18089 C10.0973394,174.837289 10.6617206,175.460572 11.2619383,176.047269 C13.0952716,177.893361 13.7619383,179.245809 13.2619383,180.104614 C13.1314019,180.32857 12.8694713,180.436505 12.6219383,180.368341 L12.6219383,180.368341 L12.3319383,180.287194 C10.0634753,179.770343 7.86915154,178.962517 5.80193827,177.883217 C4.28193827,176.889168 3.5447783,175.038496 2.87193827,173.338991 C0.411938275,167.125356 0.160434302,167.125356 1.39515153,162.379327 C2.62986875,157.633297 3.43193827,158.381262 3.15193827,150.943922 C3.43193827,144.594176 3.04193827,141.711986 3.15193827,138.668977 C3.23225581,133.088041 3.59942097,127.51515 4.25193827,121.973001 C4.41074424,120.179897 5.01665202,116.556803 5.66822924,112.872392 L5.80840566,112.082582 C6.67533324,107.214246 7.57193827,102.459442 7.57193827,101.899286 C7.57193827,101.209538 6.31193827,93.054274 7.41193827,77.5552156 C6.16027746,65.5465973 9.03381142,61.8271604 11.6430444,59.2969103 L11.8511359,59.0968926 L11.8511359,59.0968926 L12.0576004,58.9011409 C12.1260952,58.8365116 12.1942356,58.7724586 12.2619383,58.7088474 C15.0038984,56.1325936 17.9966501,54.0727548 24.1219383,51.4098191 L24.1219383,51.4098191 L24.5419383,51.267812 C25.3816646,50.9723182 26.206059,50.6337703 27.0119383,50.2534757 C27.5219383,49.988734 28.1840383,49.6345277 28.8705283,49.2623373 L29.3304001,49.0123305 C30.7892272,48.2171731 32.2302716,47.4126579 32.4519383,47.2713271 C34.7830245,45.8596892 36.6591764,44.7910045 37.8519383,42.3171731 C38.7344792,43.059642 39.6894279,43.7088002 40.7019383,44.2545554 C41.9548741,44.6650011 43.9564997,44.9163296 45.9721721,44.9485977 L45.9450372,44.9471731 L46.1652229,44.9447817 C48.114085,44.899907 50.0275473,44.6517271 51.2399626,44.2545554 C52.252473,43.7088002 53.2074217,43.059642 54.0899626,42.3171731 C55.2827245,44.7910045 57.1588764,45.8596892 59.4899626,47.2713271 L59.5990945,47.3372184 C60.0152041,47.5819259 61.3062345,48.3008739 62.6115008,49.0123305 L63.0713726,49.2623373 C63.7578626,49.6345277 64.4199626,49.988734 64.9299626,50.2534757 C65.7358419,50.6337703 66.5602364,50.9723182 67.3999626,51.267812 L67.8199626,51.4098191 C73.9452508,54.0727548 76.9380025,56.1325936 79.6799626,58.7088474 C79.7476654,58.7724586 79.8158057,58.8365116 79.8843005,58.9011409 L80.090765,59.0968926 L80.090765,59.0968926 L80.2988565,59.2969103 C82.9080895,61.8271604 85.7816235,65.5465973 84.5299626,77.5552156 C85.6299626,93.054274 84.3699626,101.209538 84.3699626,101.899286 C84.3699626,102.459442 85.2665677,107.214246 86.1334953,112.082582 L86.2736717,112.872392 C86.9252489,116.556803 87.5311567,120.179897 87.6899626,121.973001 C88.3424799,127.51515 88.7096451,133.088041 88.7899626,138.668977 C88.8999626,141.711986 88.5099626,144.594176 88.7899626,150.943922 C88.5099626,158.381262 89.3120322,157.633297 90.5467494,162.379327 C91.6785735,166.729854 91.561559,167.092398 89.6393703,171.908691 L89.3660123,172.593856 C89.2711284,172.831976 89.1724626,173.080089 89.0699626,173.338991 C88.3971226,175.038496 87.6599626,176.889168 86.1399626,177.883217 C84.0727494,178.962517 81.8784256,179.770343 79.6099626,180.287194 L79.3199626,180.368341 C79.0724296,180.436505 78.810499,180.32857 78.6799626,180.104614 C78.1799626,179.245809 78.8466293,177.893361 80.6799626,176.047269 C81.2801804,175.460572 81.8445615,174.837289 82.3699626,174.18089 C83.3759842,172.894435 83.7974924,171.235832 83.5299626,169.616377 L83.0299626,166.664658 C82.5999626,167.780428 82.7999626,169.230929 82.1899626,171.340748 C81.9399626,172.182647 80.6199626,174.576481 79.8999626,174.099743 C79.4599626,173.795442 79.8999626,171.645049 79.8999626,170.935014 C79.8814602,168.68116 80.0016941,163.428333 80.2599626,161.189678 C80.5696886,159.690978 80.9943125,158.219098 81.5299626,156.787458 C81.7034376,154.820191 81.9507524,155.042281 81.7772774,153.075014 L81.7772774,152.40309 L81.7772774,152.40309 C81.5172774,149.968683 80.6799626,148.622731 79.3199626,142.106449 C78.193296,138.292545 76.4628915,133.101818 75.101931,125.605415 C74.1152347,120.170523 73.9222865,116.436495 73.9117955,113.301264 L73.9120279,112.660779 C73.91568,111.711781 73.932845,110.813137 73.9452508,109.931903 C73.9452508,105.681834 69.8328297,97.1576045 70.0299626,81.0195761 C70.0299626,80.9181425 69.9028297,80.9485726 69.8328297,81.0195761 C68.7728297,86.689716 67.2499626,97.6175181 67.2499626,101.899286 C68.1299626,111.192043 67.9799626,114.828261 68.8499626,124.437839 C72.7099626,138.841414 73.9452508,143.041388 73.9452508,159.381724 C73.9452508,166.291004 73.6599626,172.111644 72.4899626,179.435152 C71.3199626,186.75866 70.0599626,197.206324 69.4899626,203.86037 C69.0437592,207.643468 68.953352,211.461043 69.2199626,215.261509 C69.4299626,221.134517 70.4799626,228.305874 70.0199626,238.641961 C69.7499626,244.727978 68.3499626,250.651702 67.2499626,256.67686 C65.6499626,265.369722 62.8399626,275.543515 63.9399626,284.449387 C64.2099626,286.47806 64.7799626,288.405299 64.7799626,289.155908 C64.7979759,291.073885 65.3490845,292.947797 66.3699626,294.56232 C67.5299626,296.357695 69.7999626,300.648338 70.0299626,302.464 C70.2599626,304.279662 70.6199626,305.040414 68.8099626,306.125754 C65.9324606,307.585621 62.859952,308.610804 59.6899626,309.168763 C58.8251351,309.244313 58.7051351,309.266023 58.7178047,309.252578 L58.7323613,309.243012 C58.7822219,309.212207 58.8799626,309.131337 57.8299626,309.036899 C55.7999626,308.854318 54.7399626,306.308334 54.5599626,304.90855 C54.3799626,303.508766 54.9499626,302.210416 54.5599626,299.786152 C54.1699626,297.361888 53.1599626,295.282499 53.1599626,293.811711 C53.1599626,292.340924 54.1599626,290.768702 54.5599626,289.155908 C54.9599626,287.543113 54.8599626,286.224476 55.2799626,285.220283 C55.9999626,283.516198 55.9099626,280.483332 55.9799626,278.616954 C56.2199626,272.885954 54.8699626,267.17524 54.5799626,261.464527 C54.2399626,254.871341 52.6599626,249.647509 52.4299626,242.912317 C52.1899626,235.95397 53.0299626,227.261108 52.8699626,222.625591 C52.7099626,217.990074 50.6499626,212.482228 50.3199626,206.822232 L50.3199626,206.294777 L48.7799626,186.454359 C48.7289626,185.385249 48.0421626,172.758968 46.8362464,159.451862 L46.7502622,158.511548 L46.7502622,158.511548 L46.6180726,157.098696 C46.5137656,155.99932 46.4059845,154.899665 46.2947945,153.805807 L46.1986554,152.869775 C46.1824936,152.714054 46.1662626,152.558486 46.1499626,152.40309 Z" id="Combined-Shape" fill="url(#linearGradient-1)"></path>
                    <path d="M70.994913,132.203193 C70.994913,132.203193 73.0262035,140.138648 73.7480826,150.147017 C73.8514643,151.580336 66.1437092,152.703725 59.9396987,155.495384 C52.756165,158.727806 49.473855,162.100231 48.633855,162.100231 L48.633855,162.100231 L46.2357438,162.100231 C46.221397,162.100231 46.2048787,162.092458 46.1863137,162.077182 C46.1697264,162.092557 46.155705,162.100231 46.1437868,162.100231 L43.3406484,162.100231 L43.3406484,162.100231 C42.5006484,162.100231 39.2183384,158.727806 32.0348047,155.495384 C25.8307942,152.703725 18.1230391,151.580336 18.2264208,150.147017 C18.9482999,140.138648 20.9795904,132.203193 20.9795904,132.203193 C20.9795904,132.203193 32.3700738,136.46762 45.9864208,136.483484 C59.603871,136.46783 70.994913,132.203193 70.994913,132.203193 Z" id="Combined-Shape" fill="#1E252C"></path>
                    <path d="M46.1040121,37 C54.5525531,37 57.7207559,32.3150143 59.6956024,27.2396131 C61.4803566,22.6196966 61.1952184,18.7562102 61.1952184,14.7137832 C61.1952184,6.21411299 56.2739433,0 46.2413009,0 C36.2086585,0 31.4563542,6.5069246 31.4563542,15.0309958 C31.4563542,19.3418334 30.1362697,23.4981315 33.6318535,29.0940866 C37.1274373,34.6900418 38.1095802,37 46.1040121,37 Z" id="Path" fill="url(#linearGradient-2)"></path>
                    <path d="M56.9619383,30.64 C55.1594564,34.9066667 54.2582154,38.1266667 54.2582154,40.3 C54.2582154,42.4733333 54.7771942,44.0313441 58.9580131,47.6998025 L33.4079265,47.6998025 C36.7234263,44.4863488 37.7983461,43.6236122 37.992445,40.33 C37.8010009,37.0295644 37.1177685,33.7690375 35.9619383,30.64 L56.9619383,30.64 Z" id="Path" fill="url(#linearGradient-3)"></path>
                    <path d="M46.695625,5.62 L46.821354,5.62701279 C55.6012498,5.89477246 58.8937627,11.3134962 59.5692897,19.06 L59.5692897,19.06 L59.6666095,19.06 C61.3642993,19.17 62.1536711,21.09 61.4616191,23.52 C60.8885137,25.52 59.9693822,26.99 58.8123579,27.4 C58.4447054,29.09 57.6634849,30.532271 57.0934151,31.7796418 C55.2030364,35.5188592 51.9489613,39.74 46.3986769,39.74 C46.3372401,39.74 46.275199,39.7316647 46.2126247,39.7152547 C46.1493376,39.7315758 46.0869632,39.74 46.0251997,39.74 C40.4749152,39.74 37.2208401,35.5188592 35.3304615,31.7796418 C34.7603916,30.532271 33.9791712,29.09 33.6115186,27.4 C32.4544943,26.99 31.5353629,25.52 30.9622574,23.52 C30.2702055,21.09 31.0595772,19.17 32.757267,19.06 L32.8545868,19.06 C33.5301139,11.3134962 36.8226268,5.89477246 45.6025225,5.62701279 L45.7282516,5.62 C45.8915756,5.61727856 46.0531446,5.61620617 46.2129746,5.61676716 C46.3714094,5.61621067 46.5326433,5.61728427 46.695625,5.62 Z" id="Combined-Shape" fill="url(#linearGradient-4)"></path>
                </g>
                <path d="M34.0260687,15 C33.9267578,15.5348252 33.8580958,15.9564306 33.8200825,16.2648161 C33.7253496,17.0333454 33.6612925,17.9395469 33.6644422,18.3683452 C33.6773876,20.1307406 34.0385448,21.4599002 34.1006648,22.2728629 C34.1991016,23.561103 33.4988801,22.1407532 32,18.0118136 L34.0260687,15 Z" id="Path-69" fill="#12121C"></path>
                <path d="M61.5260687,15 C61.4267578,15.5348252 61.3580958,15.9564306 61.3200825,16.2648161 C61.2253496,17.0333454 61.1612925,17.9395469 61.1644422,18.3683452 C61.1773876,20.1307406 61.5385448,21.4599002 61.6006648,22.2728629 C61.6991016,23.561103 60.9988801,22.1407532 59.5,18.0118136 L61.5260687,15 Z" id="Path-69-Copy-2" fill="#12121C" transform="translate(60.554882, 18.866195) scale(-1, 1) translate(-60.554882, -18.866195) "></path>
            </g>
        </g>
    </g>
</svg>