<?xml version="1.0" encoding="UTF-8"?>
<svg width="62px" height="42px" viewBox="0 0 62 42" version="1.1" xmlns="http://www.w3.org/2000/svg" xmlns:xlink="http://www.w3.org/1999/xlink">
    <title>img_3_f</title>
    <defs>
        <rect id="path-1" x="0" y="0" width="62" height="42" rx="4"></rect>
        <linearGradient x1="33.4607747%" y1="49.9925572%" x2="66.5287892%" y2="50.0241218%" id="linearGradient-3">
            <stop stop-color="#F58E26" offset="0%"></stop>
            <stop stop-color="#F58E26" stop-opacity="0" offset="100%"></stop>
        </linearGradient>
        <linearGradient x1="-0.0653366123%" y1="50.0109914%" x2="100.014672%" y2="50.0109914%" id="linearGradient-4">
            <stop stop-color="#1E1E28" offset="0%"></stop>
            <stop stop-color="#0F0F19" offset="100%"></stop>
        </linearGradient>
        <linearGradient x1="50%" y1="99.8450413%" x2="50%" y2="0%" id="linearGradient-5">
            <stop stop-color="#FBD2AA" offset="0%"></stop>
            <stop stop-color="#EAB077" offset="100%"></stop>
        </linearGradient>
    </defs>
    <g id="Mobile" stroke="none" stroke-width="1" fill="none" fill-rule="evenodd">
        <g id="[M]-Complete_soft_all-Copy" transform="translate(-34.000000, -277.000000)">
            <g id="img_3_f" transform="translate(34.000000, 277.000000)">
                <g id="Group-5">
                    <mask id="mask-2" fill="white">
                        <use xlink:href="#path-1"></use>
                    </mask>
                    <g id="Mask"></g>
                    <g id="Group-10" mask="url(#mask-2)">
                        <g transform="translate(0.000000, -1.000000)">
                            <g id="Group-9" transform="translate(0.000000, 0.269565)" fill-opacity="0.07">
                                <path d="M1.6173913,0 L24.8,0 L24.8,0 L24.8,43.1304348 L1.6173913,43.1304348 C0.724130752,43.1304348 5.53482077e-16,42.406304 0,41.5130435 L0,1.6173913 C-1.09392868e-16,0.724130752 0.724130752,8.30223116e-16 1.6173913,0 Z" id="Rectangle" fill="url(#linearGradient-3)"></path>
                                <path d="M7.00869565,0 L30.1913043,0 L30.1913043,0 L30.1913043,43.1304348 L7.00869565,43.1304348 C6.1154351,43.1304348 5.39130435,42.406304 5.39130435,41.5130435 L5.39130435,1.6173913 C5.39130435,0.724130752 6.1154351,8.30223116e-16 7.00869565,0 Z" id="Rectangle-Copy-3" fill="url(#linearGradient-3)"></path>
                                <path d="M12.4,0 L35.5826087,0 L35.5826087,0 L35.5826087,43.1304348 L12.4,43.1304348 C11.5067394,43.1304348 10.7826087,42.406304 10.7826087,41.5130435 L10.7826087,1.6173913 C10.7826087,0.724130752 11.5067394,8.30223116e-16 12.4,0 Z" id="Rectangle-Copy-4" fill="url(#linearGradient-3)"></path>
                            </g>
                            <g id="Group-9-Copy" transform="translate(44.000000, 22.269565) scale(-1, 1) translate(-44.000000, -22.269565) translate(26.000000, 0.269565)" fill-opacity="0.07">
                                <path d="M1.6173913,0 L24.8,0 L24.8,0 L24.8,43.1304348 L1.6173913,43.1304348 C0.724130752,43.1304348 5.53482077e-16,42.406304 0,41.5130435 L0,1.6173913 C-1.09392868e-16,0.724130752 0.724130752,8.30223116e-16 1.6173913,0 Z" id="Rectangle" fill="url(#linearGradient-3)"></path>
                                <path d="M7.00869565,0 L30.1913043,0 L30.1913043,0 L30.1913043,43.1304348 L7.00869565,43.1304348 C6.1154351,43.1304348 5.39130435,42.406304 5.39130435,41.5130435 L5.39130435,1.6173913 C5.39130435,0.724130752 6.1154351,8.30223116e-16 7.00869565,0 Z" id="Rectangle-Copy-3" fill="url(#linearGradient-3)"></path>
                                <path d="M12.4,0 L35.5826087,0 L35.5826087,0 L35.5826087,43.1304348 L12.4,43.1304348 C11.5067394,43.1304348 10.7826087,42.406304 10.7826087,41.5130435 L10.7826087,1.6173913 C10.7826087,0.724130752 11.5067394,8.30223116e-16 12.4,0 Z" id="Rectangle-Copy-4" fill="url(#linearGradient-3)"></path>
                            </g>
                            <g id="blue-4model" transform="translate(24.260870, 0.000000)">
                                <g id="Group-3" transform="translate(1.347826, 5.121739)">
                                    <path d="M10.22048,18.9381739 C10.1142191,18.4701739 10.0418713,18.1762609 9.90508867,17.5025217 C9.86552346,16.6976522 9.84630607,16.4308696 9.83387128,16.0623478 C9.83952346,15.3366087 9.72987128,14.500087 9.70952346,14.1112174 C9.68465389,13.631913 9.29917563,11.9633913 9.29917563,11.8503478 C9.29917563,11.7749855 9.23775534,10.8706377 9.11491476,9.13730435 C9.02674085,7.78078261 9.03126259,7.28678261 8.87300172,7.03695652 C8.63900172,6.66730435 8.44117563,6.53843478 7.72108867,6.3406087 C7.55221434,6.28278987 7.38816843,6.2117285 7.23047998,6.12808696 C7.09708867,6.05234783 6.79413215,5.88730435 6.75795824,5.86695652 C6.49283207,5.71536044 6.28325392,5.48280396 6.15995824,5.2033913 C6.05381573,5.28597594 5.94158302,5.36041986 5.82421911,5.42608696 C5.53821911,5.53913043 4.89161041,5.51991304 4.60108867,5.42608696 C4.48663098,5.36526485 4.37868026,5.29291893 4.27891476,5.21017391 C4.14408081,5.48587193 3.93199407,5.71641807 3.66847998,5.87373913 C3.62891476,5.8986087 3.24569737,6.10773913 3.05352346,6.20608696 C2.96242406,6.24846917 2.86923165,6.2861989 2.77430607,6.31913043 L2.7268278,6.33495652 C1.97961041,6.53843478 1.78065389,6.66504348 1.54326259,7.04034783 C1.38387128,7.29017391 1.35900172,7.83165217 1.30134954,9.14069565 C1.17700172,10.868 1.11708867,11.7926957 1.11708867,11.8695652 C1.11708867,11.9826087 0.74969737,13.6093043 0.706740848,14.0874783 C0.632978022,14.7051272 0.591472396,15.3262023 0.582393022,15.9481739 C0.56995824,16.2873043 0.582393022,16.6456522 0.550740848,17.3533043 C0.394740848,18.1344348 0.324653892,18.4362609 0.211610414,18.935913 C0.0985669354,19.4355652 0.0250886745,19.5146957 0.324653892,19.812 C0.419610414,19.9046957 0.484045196,20.2076522 0.655871283,20.3184348 C0.889556261,20.4387181 1.13761025,20.5287469 1.3940452,20.5863478 L1.4268278,20.5953913 C1.4548098,20.6029879 1.48441935,20.590959 1.49917563,20.566 C1.55569737,20.4702899 1.48033505,20.3195652 1.27308867,20.1138261 C1.20523798,20.0484413 1.14143837,19.978979 1.0820452,19.9058261 C0.968321016,19.7624561 0.920672263,19.5776118 0.950914761,19.3971304 L1.0074365,19.0681739 C1.0560452,19.1925217 1.0334365,19.3541739 1.10239302,19.5893043 C1.13065389,19.6831304 1.27987128,19.949913 1.36126259,19.8967826 C1.41100172,19.8628696 1.36126259,19.6232174 1.36126259,19.544087 C1.36335416,19.2929045 1.34976251,19.0418365 1.32056694,18.7923478 C1.28555443,18.6253241 1.23755347,18.4612894 1.17700172,18.3017391 C1.1573915,18.0824956 1.1573915,17.8619392 1.17700172,17.6426957 C1.17700172,17.6325217 1.17700172,17.6212174 1.17700172,17.6076522 C1.20639302,17.3363478 1.38613215,16.7428696 1.6020452,15.685913 C1.72940752,15.2608696 1.91592925,14.6361159 2.16161041,13.8116522 C2.28251856,13.392198 2.34079983,12.9571836 2.33456694,12.5206957 C2.33456694,12.0470435 2.5154365,10.9629565 2.70874085,9.73982609 C2.70874085,9.72852174 2.7008278,9.72286957 2.70874085,9.73078261 C2.82856694,10.3626957 3.02413215,11.492 3.06256694,11.8085217 C3.17561041,12.8033043 2.88508867,13.3357391 2.61039302,14.3621739 C2.1740452,15.9673913 1.73769737,16.4681739 1.93213215,18.2565217 C2.01352346,18.9890435 2.06665389,19.6752174 2.19891476,20.4913913 C2.33117563,21.3075652 2.47361041,22.471913 2.5380452,23.2134783 C2.58848559,23.6350885 2.59870553,24.0605411 2.56856694,24.484087 C2.5448278,25.1386087 2.42613215,25.9378261 2.47813215,27.0897391 C2.50865389,27.768 2.66691476,28.4281739 2.79126259,29.0996522 C2.97213215,30.0684348 3.28978433,31.2022609 3.1654365,32.1947826 C3.13491476,32.4208696 3.07047998,32.6356522 3.07047998,32.7193043 C3.0684437,32.9330548 3.00614447,33.1418944 2.89074085,33.3218261 C2.75961041,33.521913 2.50300172,34.000087 2.47700172,34.2024348 C2.45100172,34.4047826 2.41030607,34.4895652 2.61491476,34.6105217 C2.9401976,34.7732178 3.28752466,34.8874701 3.64587128,34.9496522 C3.88213215,34.97 3.62665389,34.9553043 3.85613215,34.9349565 C4.08561041,34.9146087 4.2054365,34.6308696 4.22578433,34.4748696 C4.24613215,34.3188696 4.18169737,34.1741739 4.22578433,33.904 C4.26987128,33.6338261 4.3840452,33.402087 4.3840452,33.2381739 C4.3840452,33.0742609 4.27100172,32.8990435 4.22578433,32.7193043 C4.18056694,32.5395652 4.19187128,32.3926087 4.14439302,32.2806957 C4.06300172,32.0907826 4.07317563,31.7527826 4.06526259,31.5447826 C4.03813215,30.906087 4.19074085,30.2696522 4.22352346,29.6332174 C4.26195824,28.8984348 4.44056694,28.3162609 4.46656694,27.5656522 C4.49369737,26.7901739 4.39874085,25.8213913 4.4168278,25.3047826 C4.43491476,24.7881739 4.66778433,24.1743478 4.70508867,23.5435652 L4.70508867,23.4847826 L4.87917563,21.2736522 C4.88595824,21.1334783 4.99221911,19.2106087 5.17647998,17.4787826 L5.24656694,17.4787826 C5.42969737,19.2128696 5.53708867,21.1357391 5.54387128,21.2736522 L5.71795824,23.4847826 L5.71795824,23.5435652 C5.75413215,24.172087 5.98813215,24.8017391 6.00621911,25.3047826 C6.02430607,25.8078261 5.90561041,26.7924348 5.93387128,27.5656522 C5.95987128,28.3162609 6.14978433,28.8984348 6.18821911,29.6332174 C6.21421911,30.1351304 6.3114365,30.6370435 6.35439302,31.1366957 C6.38830607,31.519913 6.32274085,31.8997391 6.28091476,32.2806957 C6.23230607,32.3937391 6.24361041,32.5395652 6.19839302,32.7193043 C6.15317563,32.8990435 6.04126259,33.0742609 6.04126259,33.2381739 C6.04126259,33.402087 6.15430607,33.6326957 6.19839302,33.904 C6.24247998,34.1753043 6.1780452,34.3177391 6.19839302,34.4748696 C6.21874085,34.632 6.33856694,34.9146087 6.5680452,34.9349565 C6.79752346,34.9553043 6.54317563,34.97 6.77830607,34.9496522 C7.13673984,34.8878193 7.48411692,34.7735505 7.80926259,34.6105217 C8.01387128,34.4895652 7.97430607,34.4036522 7.94830607,34.2024348 C7.92230607,34.0012174 7.66569737,33.5241739 7.53456694,33.3218261 C7.41916332,33.1418944 7.35686409,32.9330548 7.3548278,32.7193043 C7.3548278,32.6356522 7.28926259,32.4186087 7.25987128,32.1947826 C7.18413215,31.6295652 7.32317563,30.9953913 7.40117563,30.4369565 C7.55491476,29.3426957 7.85334954,28.2563478 7.8974365,27.1485217 C7.94830607,25.9966087 7.87821911,25.1386087 7.85447998,24.484087 C7.82434138,24.0605411 7.83456133,23.6350885 7.88500172,23.2134783 C7.94378433,22.471913 8.08508867,21.3064348 8.21847998,20.4913913 C8.35187128,19.6763478 8.41178433,18.9890435 8.48526259,18.2565217 C8.56905651,17.5955438 8.54039094,16.9251516 8.40047998,16.2737391 C8.2874365,15.6316522 7.96187128,14.9861739 7.77647998,14.3621739 C7.52100172,13.5041739 7.32430607,12.6665217 7.38874085,11.6095652 C7.41021911,11.2308696 7.57978433,10.3536522 7.68830607,9.77486957 C7.69621911,9.75565217 7.68039302,9.78391304 7.68830607,9.76469565 C7.91439302,11.0341739 8.0760452,12.0447826 8.0760452,12.5206957 C8.0698123,12.9571836 8.12809357,13.392198 8.24900172,13.8116522 C8.49392925,14.6406377 8.68045099,15.2653913 8.80856694,15.685913 C9.02447998,16.7485217 9.21439302,17.342 9.24491476,17.6076522 C9.24428945,17.6132871 9.24428945,17.6189738 9.24491476,17.6246087 C9.26615719,17.8501967 9.26615719,18.0772816 9.24491476,18.3028696 C9.18578848,18.4627969 9.13818852,18.6267523 9.10247998,18.7934783 C9.07358849,19.0429844 9.06037414,19.2940569 9.06291476,19.5452174 C9.06291476,19.6243478 9.01317563,19.864 9.06291476,19.897913 C9.14317563,19.9510435 9.28900172,19.6842609 9.32065389,19.5904348 C9.39074085,19.3553043 9.36700172,19.1936522 9.41674085,19.0693043 L9.47326259,19.3982609 C9.50489127,19.58127 9.4563008,19.7690433 9.33987128,19.9137391 C9.28006292,19.9868813 9.21588792,20.0563413 9.14769737,20.1217391 C8.94045099,20.3244638 8.86508867,20.4751884 8.92161041,20.573913 C8.9363667,20.5988721 8.96597624,20.6109009 8.99395824,20.6033043 L9.02787128,20.5942609 C9.28424444,20.5364488 9.53227223,20.4464296 9.7660452,20.3263478 C9.93787128,20.2133043 10.0023061,19.9126087 10.0972626,19.819913 C10.4058713,19.5169565 10.3335235,19.4434783 10.22048,18.9381739 Z" id="Path" fill="#FBD2AA"></path>
                                    <path d="M5.2228278,5.14234783 C6.12717563,5.14234783 6.46630607,4.49121739 6.67769737,3.78582609 C6.86874085,3.14373913 6.83821911,2.60678261 6.83821911,2.04495652 C6.83821911,0.863652174 6.3114365,0 5.23752346,0 C4.16361041,0 3.65491476,0.904347826 3.65491476,2.08904348 C3.65491476,2.68817391 3.51361041,3.26582609 3.88778433,4.04356522 C4.26195824,4.82130435 4.36708867,5.14234783 5.2228278,5.14234783 Z" id="Path" fill="url(#linearGradient-4)"></path>
                                    <path d="M4.13987128,3.46365217 L6.32613215,3.46365217 C6.13847998,3.94597101 6.04465389,4.30997101 6.04465389,4.55565217 C6.04465389,4.80133333 6.13847998,5.16684058 6.32613215,5.65217391 L4.13987128,5.65217391 C4.25993021,5.29916202 4.33105541,4.93136486 4.35126259,4.55904348 C4.33133179,4.18595076 4.26020206,3.81736945 4.13987128,3.46365217 L4.13987128,3.46365217 Z" id="Path" fill="url(#linearGradient-5)"></path>
                                    <path d="M5.28274085,0.635304348 C6.28995824,0.653391304 6.61552346,1.26721739 6.6494365,2.21113043 L6.6494365,2.21113043 C6.82691476,2.22921739 6.90152346,2.44965217 6.81900172,2.72208696 C6.75569737,2.93008696 6.66300172,3.08495652 6.55221911,3.13921739 C6.50813215,3.30878261 6.45500172,3.47834783 6.40187128,3.6366087 C6.27752346,4.00626087 5.59021911,4.49913043 5.21265389,4.49234783 C4.87352346,4.48556522 4.09691476,4.04921739 4.01552346,3.588 C3.9940452,3.47495652 3.95334954,3.28843478 3.91491476,3.0973913 C3.79395824,3.05104348 3.69787128,2.88486957 3.63795824,2.65878261 C3.56561041,2.38408696 3.64813215,2.16704348 3.82561041,2.1546087 L3.83578433,2.1546087 C3.90926259,1.24347826 4.27891476,0.617217391 5.28274085,0.635304348 Z" id="Path" fill="#FBD2AA"></path>
                                </g>
                                <g id="Group-3-Copy" transform="translate(0.084885, 0.000000)"></g>
                            </g>
                        </g>
                    </g>
                </g>
            </g>
        </g>
    </g>
</svg>