<?xml version="1.0" encoding="UTF-8"?>
<svg width="62px" height="42px" viewBox="0 0 62 42" version="1.1" xmlns="http://www.w3.org/2000/svg" xmlns:xlink="http://www.w3.org/1999/xlink">
    <title>img_8_f</title>
    <defs>
        <rect id="path-1" x="0" y="0" width="62" height="42" rx="4"></rect>
        <linearGradient x1="-0.0653366123%" y1="50.0109914%" x2="100.014672%" y2="50.0109914%" id="linearGradient-3">
            <stop stop-color="#1E1E28" offset="0%"></stop>
            <stop stop-color="#0F0F19" offset="100%"></stop>
        </linearGradient>
        <linearGradient x1="50%" y1="99.8450413%" x2="50%" y2="0%" id="linearGradient-4">
            <stop stop-color="#FBD2AA" offset="0%"></stop>
            <stop stop-color="#EAB077" offset="100%"></stop>
        </linearGradient>
    </defs>
    <g id="Mobile" stroke="none" stroke-width="1" fill="none" fill-rule="evenodd">
        <g id="[M]-Complete_soft_all-Copy" transform="translate(-34.000000, -757.000000)">
            <g id="img_8_f" transform="translate(34.000000, 757.000000)">
                <g id="Group-5">
                    <mask id="mask-2" fill="white">
                        <use xlink:href="#path-1"></use>
                    </mask>
                    <g id="Mask"></g>
                    <g id="Group-12" mask="url(#mask-2)">
                        <g transform="translate(14.000000, 0.000000)">
                            <g id="blue-4model" transform="translate(10.602410, 0.000000)">
                                <g id="Group-3" transform="translate(0.079673, 0.000000)">
                                    <path d="M12.2493594,22.6976129 C12.1220045,22.1367097 12.0352949,21.7844516 11.8713594,20.9769677 C11.82394,20.0123226 11.8009078,19.6925806 11.7860045,19.2509032 C11.7927787,18.3810968 11.6613594,17.3785161 11.6369723,16.9124516 C11.6071658,16.338 11.1451658,14.3382581 11.1451658,14.2027742 C11.1451658,14.1124516 11.0715529,13.0285806 10.9243271,10.9511613 C10.8186497,9.32535484 10.8240691,8.73329032 10.6343916,8.43387097 C10.35394,7.99083871 10.1168433,7.8363871 9.25381099,7.59929032 C9.05141322,7.52999381 8.85480236,7.44482597 8.66581099,7.34458065 C8.50594002,7.25380645 8.14284325,7.056 8.09948841,7.0316129 C7.78173174,6.8499233 7.53054998,6.57120177 7.38277873,6.23632258 C7.25556575,6.33530119 7.12105359,6.42452306 6.98039164,6.50322581 C6.63761744,6.63870968 5.8626497,6.61567742 5.51445615,6.50322581 C5.37727733,6.43032983 5.24789718,6.34362244 5.12832712,6.24445161 C4.96672712,6.57487877 4.7125388,6.85119089 4.39671422,7.03974194 C4.34929486,7.06954839 3.89000454,7.32019355 3.65968196,7.43806452 C3.55049832,7.48886008 3.43880617,7.53407957 3.3250368,7.57354839 L3.26813357,7.59251613 C2.37258519,7.8363871 2.13413357,7.98812903 1.84961744,8.43793548 C1.65858519,8.73735484 1.62877873,9.38632258 1.55968196,10.9552258 C1.4106497,13.0254194 1.33884325,14.1336774 1.33884325,14.2258065 C1.33884325,14.3612903 0.898520669,16.3109032 0.847036798,16.884 C0.758631228,17.6242591 0.708886271,18.3686246 0.69800454,19.1140645 C0.683101315,19.5205161 0.69800454,19.95 0.660069057,20.798129 C0.473101315,21.7343226 0.389101315,22.0960645 0.253617444,22.6949032 C0.118133573,23.2937419 0.0300690565,23.3885806 0.389101315,23.7449032 C0.502907766,23.856 0.580133573,24.2190968 0.786069057,24.351871 C1.06614311,24.4960319 1.36343858,24.6039324 1.67077873,24.6729677 L1.71006906,24.6838065 C1.74360579,24.692911 1.77909316,24.6784943 1.79677873,24.6485806 C1.86452067,24.533871 1.77419809,24.3532258 1.52581099,24.1066452 C1.44449117,24.0282807 1.36802663,23.9450294 1.29684325,23.8573548 C1.16054355,23.6855243 1.10343599,23.4639864 1.13968196,23.2476774 L1.2074239,22.8534194 C1.26568196,23.0024516 1.23858519,23.1961935 1.32123035,23.478 C1.35510131,23.5904516 1.53394002,23.9101935 1.63148841,23.8465161 C1.69110131,23.805871 1.63148841,23.5186452 1.63148841,23.4238065 C1.63399519,23.1227615 1.61770544,22.8218537 1.58271422,22.5228387 C1.54075135,22.322659 1.48322166,22.1260614 1.4106497,21.9348387 C1.38714664,21.6720729 1.38714664,21.4077336 1.4106497,21.1449677 C1.4106497,21.1327742 1.4106497,21.1192258 1.4106497,21.1029677 C1.44587551,20.7778065 1.66129486,20.0665161 1.92006906,18.7997419 C2.07271422,18.2903226 2.2962626,17.5415484 2.59071422,16.5534194 C2.73562398,16.0506989 2.80547474,15.5293292 2.79800454,15.0061935 C2.79800454,14.4385161 3.01477873,13.1392258 3.24645615,11.6732903 C3.24645615,11.6597419 3.23697228,11.6529677 3.24645615,11.6624516 C3.39006906,12.4198065 3.62445615,13.7732903 3.67052067,14.1526452 C3.80600454,15.3449032 3.45781099,15.9830323 3.12858519,17.2132258 C2.60561744,19.1370968 2.0826497,19.7372903 2.31568196,21.8806452 C2.41323035,22.7585806 2.47690777,23.5809677 2.6354239,24.5591613 C2.79394002,25.5373548 2.9646497,26.9328387 3.04187551,27.8216129 C3.10232888,28.3269175 3.1145776,28.8368271 3.07845615,29.3444516 C3.05000454,30.1289032 2.90774648,31.0867742 2.97006906,32.4673548 C3.0066497,33.2802581 3.19632712,34.0714839 3.34535938,34.8762581 C3.56213357,36.0373548 3.94284325,37.3962581 3.79381099,38.5858065 C3.75723035,38.8567742 3.68000454,39.1141935 3.68000454,39.2144516 C3.67756403,39.4706339 3.60289771,39.7209305 3.46458519,39.9365806 C3.3074239,40.1763871 2.99987551,40.7494839 2.96871422,40.992 C2.93755293,41.2345161 2.88877873,41.336129 3.13400454,41.4810968 C3.52385965,41.6760898 3.94013501,41.8130225 4.36961744,41.8875484 C4.65277873,41.9119355 4.34658519,41.8943226 4.62161744,41.8699355 C4.8966497,41.8455484 5.0402626,41.5054839 5.0646497,41.3185161 C5.0890368,41.1315484 5.01181099,40.958129 5.0646497,40.6343226 C5.11748841,40.3105161 5.25432712,40.0327742 5.25432712,39.8363226 C5.25432712,39.639871 5.11884325,39.429871 5.0646497,39.2144516 C5.01045615,38.9990323 5.02400454,38.8229032 4.96710131,38.6887742 C4.86955293,38.4611613 4.88174648,38.0560645 4.8722626,37.8067742 C4.83974648,37.0412903 5.0226497,36.2785161 5.06194002,35.5157419 C5.10800454,34.6350968 5.32206906,33.9373548 5.35323035,33.0377419 C5.38574648,32.1083226 5.27194002,30.9472258 5.29361744,30.3280645 C5.31529486,29.7089032 5.59439164,28.9732258 5.63910131,28.2172258 L5.63910131,28.1467742 L5.84774648,25.4967097 C5.85587551,25.3287097 5.98323035,23.024129 6.20406906,20.9485161 L6.28806906,20.9485161 C6.50755293,23.0268387 6.6362626,25.3314194 6.64439164,25.4967097 L6.8530368,28.1467742 L6.8530368,28.2172258 C6.89639164,28.9705161 7.17684325,29.7251613 7.19852067,30.3280645 C7.22019809,30.9309677 7.07794002,32.1110323 7.11181099,33.0377419 C7.14297228,33.9373548 7.37058519,34.6350968 7.4166497,35.5157419 C7.44781099,36.1172903 7.56432712,36.7188387 7.61581099,37.3176774 C7.65645615,37.7769677 7.57787551,38.2321935 7.52774648,38.6887742 C7.46948841,38.8242581 7.4830368,38.9990323 7.42884325,39.2144516 C7.3746497,39.429871 7.24052067,39.639871 7.24052067,39.8363226 C7.24052067,40.0327742 7.37600454,40.3091613 7.42884325,40.6343226 C7.48168196,40.9594839 7.40445615,41.1301935 7.42884325,41.3185161 C7.45323035,41.5068387 7.59684325,41.8455484 7.87187551,41.8699355 C8.14690777,41.8943226 7.84206906,41.9119355 8.12387551,41.8875484 C8.55346238,41.813441 8.9697977,41.6764885 9.35948841,41.4810968 C9.60471422,41.336129 9.55729486,41.2331613 9.52613357,40.992 C9.49497228,40.7508387 9.1874239,40.1790968 9.0302626,39.9365806 C8.89195008,39.7209305 8.81728376,39.4706339 8.81484325,39.2144516 C8.81484325,39.1141935 8.7362626,38.8540645 8.7010368,38.5858065 C8.6102626,37.9083871 8.77690777,37.1483226 8.87039164,36.4790323 C9.0546497,35.1675484 9.41232712,33.8655484 9.46516583,32.5378065 C9.52613357,31.1572258 9.44213357,30.1289032 9.41368196,29.3444516 C9.37756052,28.8368271 9.38980924,28.3269175 9.4502626,27.8216129 C9.52071422,26.9328387 9.69006906,25.536 9.84994002,24.5591613 C10.009811,23.5823226 10.0816174,22.7585806 10.169682,21.8806452 C10.2701099,21.0884557 10.2357539,20.2849831 10.0680691,19.5042581 C9.93258519,18.7347097 9.54239164,17.9610968 9.32019809,17.2132258 C9.01400454,16.1849032 8.7782626,15.1809677 8.85548841,13.9141935 C8.88123035,13.4603226 9.08445615,12.4089677 9.21452067,11.7152903 C9.22400454,11.6922581 9.2050368,11.726129 9.21452067,11.7030968 C9.48548841,13.2245806 9.67923035,14.4358065 9.67923035,15.0061935 C9.67176015,15.5293292 9.7416109,16.0506989 9.88652067,16.5534194 C10.1800691,17.5469677 10.4036174,18.2957419 10.5571658,18.7997419 C10.81594,20.0732903 11.0435529,20.7845806 11.0801336,21.1029677 C11.0793841,21.1097212 11.0793841,21.1165369 11.0801336,21.1232903 C11.1055929,21.39366 11.1055929,21.6658238 11.0801336,21.9361935 C11.0092701,22.1278682 10.952221,22.3243706 10.9094239,22.5241935 C10.8747971,22.8232294 10.8589596,23.1241427 10.8620045,23.4251613 C10.8620045,23.52 10.8023916,23.8072258 10.8620045,23.847871 C10.9581981,23.9115484 11.1329723,23.5918065 11.1709078,23.4793548 C11.2549078,23.1975484 11.2264562,23.0038065 11.2860691,22.8547742 L11.353811,23.2490323 C11.3917183,23.4683707 11.3334821,23.6934192 11.19394,23.8668387 C11.122259,23.9545005 11.0453446,24.0377491 10.9636174,24.116129 C10.7152303,24.3590968 10.6249078,24.5397419 10.6926497,24.6580645 C10.7103353,24.6879782 10.7458226,24.7023949 10.7793594,24.6932903 L10.8200045,24.6824516 C11.1272706,24.6131633 11.4245347,24.5052741 11.7047142,24.3613548 C11.9106497,24.225871 11.9878755,23.8654839 12.101682,23.7543871 C12.4715529,23.3912903 12.3848433,23.3032258 12.2493594,22.6976129 Z" id="Path" fill="#FBD2AA"></path>
                                    <path d="M6.25961744,6.16316129 C7.34348841,6.16316129 7.74994002,5.38277419 8.00329486,4.53735484 C8.2322626,3.76780645 8.19568196,3.12425806 8.19568196,2.45090323 C8.19568196,1.03509677 7.56432712,0 6.27723035,0 C4.99013357,0 4.38045615,1.08387097 4.38045615,2.50374194 C4.38045615,3.22180645 4.21110131,3.91412903 4.65955293,4.84625806 C5.10800454,5.7783871 5.23400454,6.16316129 6.25961744,6.16316129 Z" id="Path" fill="url(#linearGradient-3)"></path>
                                    <path d="M4.96168196,4.15122581 L7.58194002,4.15122581 C7.3570368,4.72929032 7.24458519,5.16554839 7.24458519,5.46 C7.24458519,5.75445161 7.3570368,6.19251613 7.58194002,6.77419355 L4.96168196,6.77419355 C5.10557392,6.35110485 5.19081827,5.91029585 5.2150368,5.46406452 C5.19114951,5.01690873 5.10589974,4.57515992 4.96168196,4.15122581 L4.96168196,4.15122581 Z" id="Path" fill="url(#linearGradient-4)"></path>
                                    <path d="M6.3314239,0.761419355 C7.53858519,0.783096774 7.92877873,1.51877419 7.9694239,2.65006452 L7.9694239,2.65006452 C8.18213357,2.67174194 8.27155293,2.93593548 8.1726497,3.26245161 C8.09677873,3.51174194 7.98568196,3.69735484 7.85290777,3.7623871 C7.80006906,3.9656129 7.73639164,4.16883871 7.67271422,4.35851613 C7.52368196,4.80154839 6.69994002,5.39225806 6.2474239,5.38412903 C5.84097228,5.376 4.91019809,4.85303226 4.8126497,4.30025806 C4.78690777,4.16477419 4.73813357,3.94122581 4.69206906,3.71225806 C4.54710131,3.65670968 4.43194002,3.45754839 4.36013357,3.18658065 C4.2734239,2.85735484 4.37232712,2.59722581 4.5850368,2.58232258 L4.59723035,2.58232258 C4.68529486,1.49032258 5.12832712,0.739741935 6.3314239,0.761419355 Z" id="Path" fill="#FBD2AA"></path>
                                </g>
                                <g id="Group-3-Copy" transform="translate(0.079673, 0.000000)"></g>
                            </g>
                            <g id="Group-10" transform="translate(24.518072, 2.783133)">
                                <g id="Group-9" transform="translate(3.022183, 2.164911) rotate(-15.000000) translate(-3.022183, -2.164911) translate(0.522183, 0.664911)" stroke="#F58E26" stroke-width="0.5">
                                    <line x1="4.06564046" y1="1.29624681" x2="4.60226235e-13" y2="1.29624681" id="Path-2"></line>
                                    <polyline id="Path-4" points="1.29624681 2.59249361 0 1.29624681 1.29624681 0"></polyline>
                                </g>
                                <g id="Group-9-Copy" transform="translate(2.530120, 15.433735)" stroke="#F58E26" stroke-width="0.5">
                                    <line x1="4.06564046" y1="1.29624681" x2="4.60226235e-13" y2="1.29624681" id="Path-2"></line>
                                    <polyline id="Path-4" points="1.29624681 2.59249361 0 1.29624681 1.29624681 0"></polyline>
                                </g>
                                <g id="Group-9-Copy-2" transform="translate(2.966054, 32.960230) rotate(-345.000000) translate(-2.966054, -32.960230) translate(0.466054, 31.460230)" stroke="#F58E26" stroke-width="0.5">
                                    <line x1="4.06564046" y1="1.29624681" x2="4.60226235e-13" y2="1.29624681" id="Path-2"></line>
                                    <polyline id="Path-4" points="1.29624681 2.59249361 0 1.29624681 1.29624681 0"></polyline>
                                </g>
                            </g>
                            <g id="Group-10-Copy" transform="translate(4.831325, 20.783133) scale(-1, 1) translate(-4.831325, -20.783133) translate(0.831325, 2.783133)">
                                <g id="Group-9" transform="translate(3.022183, 2.164911) rotate(-15.000000) translate(-3.022183, -2.164911) translate(0.522183, 0.664911)" stroke="#F58E26" stroke-width="0.5">
                                    <line x1="4.06564046" y1="1.29624681" x2="4.60226235e-13" y2="1.29624681" id="Path-2"></line>
                                    <polyline id="Path-4" points="1.29624681 2.59249361 0 1.29624681 1.29624681 0"></polyline>
                                </g>
                                <g id="Group-9-Copy" transform="translate(2.530120, 15.433735)" stroke="#F58E26" stroke-width="0.5">
                                    <line x1="4.06564046" y1="1.29624681" x2="4.60226235e-13" y2="1.29624681" id="Path-2"></line>
                                    <polyline id="Path-4" points="1.29624681 2.59249361 0 1.29624681 1.29624681 0"></polyline>
                                </g>
                                <g id="Group-9-Copy-2" transform="translate(2.966054, 32.960230) rotate(-345.000000) translate(-2.966054, -32.960230) translate(0.466054, 31.460230)" stroke="#F58E26" stroke-width="0.5">
                                    <line x1="4.06564046" y1="1.29624681" x2="4.60226235e-13" y2="1.29624681" id="Path-2"></line>
                                    <polyline id="Path-4" points="1.29624681 2.59249361 0 1.29624681 1.29624681 0"></polyline>
                                </g>
                            </g>
                        </g>
                    </g>
                </g>
            </g>
        </g>
    </g>
</svg>