<?xml version="1.0" encoding="UTF-8"?>
<svg width="62px" height="42px" viewBox="0 0 62 42" version="1.1" xmlns="http://www.w3.org/2000/svg" xmlns:xlink="http://www.w3.org/1999/xlink">
    <title>img_5_m</title>
    <defs>
        <rect id="path-1" x="0" y="0" width="62" height="42" rx="4"></rect>
        <linearGradient x1="50%" y1="21.6543472%" x2="50%" y2="8.18668182%" id="linearGradient-3">
            <stop stop-color="#FFFFFF" offset="0%"></stop>
            <stop stop-color="#FBD2AA" offset="100%"></stop>
            <stop stop-color="#FBD2AA" offset="100%"></stop>
        </linearGradient>
        <linearGradient x1="-0.0653366123%" y1="50.0109914%" x2="100.014672%" y2="50.0109914%" id="linearGradient-4">
            <stop stop-color="#1E1E28" offset="0%"></stop>
            <stop stop-color="#0F0F19" offset="100%"></stop>
        </linearGradient>
    </defs>
    <g id="Mobile" stroke="none" stroke-width="1" fill="none" fill-rule="evenodd">
        <g id="[M]-Complete_soft_all-Copy" transform="translate(-34.000000, -577.000000)">
            <g id="img_5_m" transform="translate(34.000000, 577.000000)">
                <g id="Group-5">
                    <mask id="mask-2" fill="white">
                        <use xlink:href="#path-1"></use>
                    </mask>
                    <g id="Mask"></g>
                    <g id="Group-15-+-Group-15-Copy-+-Group-15-Copy-2-Mask" mask="url(#mask-2)">
                        <g transform="translate(12.000000, -7.000000)">
                            <path d="M24.6299628,24.2746676 C24.0854062,28.8189191 23.8131279,31.3966104 23.8131279,32.0077415 C23.8131279,32.7982361 24.8631858,35.1946017 25.9815171,37.0006549 C27.3136788,38.685366 30.8737504,42.3209388 31.6096197,47.0058064 C32.0399351,49.7453833 30.5823407,56.8111286 27.2368365,68.2030425 C27.1051647,73.6368713 28.2671622,75.5118149 29.2878405,77.7266417 C30.3085188,79.9414686 34.620484,82.3394182 34.620484,89.006146 C34.620484,96.1610571 31.6096197,98.4330954 31.6096197,105.039558 C31.6096197,110.316507 28.2206405,119.815491 27.2368365,132.362843 C28.6753036,137.078391 28.2952106,140.3542 28.564457,142.331913 C29.4414097,148.77345 27.3424074,156.822115 25.5311721,167.025568 L25.5311721,167.537723 C26.7718264,171.364818 27.792941,172.957356 26.5757997,176.632961 C6.94691933,178.402533 0.075483967,177.170674 0.075483967,174.989512 C0.075483967,172.808351 12.316816,171.929808 19.1035932,167.827169 L17.138805,135.44285 C12.0832037,118.528249 9.555403,107.287133 9.555403,101.719505 C9.555403,98.2464404 10.083728,95.2100007 10.7256966,92.3550148 C7.82640085,83.889169 8.01963948,77.0625754 6.97304269,69.0778355 C5.90746699,60.948301 3.33205857,61.0632701 3.33205857,54.2192524 C3.33205857,50.0759741 7.02007734,44.9443142 14.3961149,38.8242726 C14.6008801,38.346297 15.4869294,36.6493341 15.6501306,36.1168823 L15.6501306,35.9391239 C15.807251,35.1309847 15.8014637,34.3087313 15.8844845,33.4804776 C15.8004264,32.6284848 15.5842139,31.7827972 15.2390033,30.95227 C16.57449,30.6917824 18.0832307,29.9106161 19.7652252,28.6087712 C21.4472197,27.3069262 23.0687989,25.8622251 24.6299628,24.2746676 Z" id="Path" fill="url(#linearGradient-3)"></path>
                            <g id="Group-9" stroke-width="1" fill="none" transform="translate(19.688786, 17.442965) rotate(-12.000000) translate(-19.688786, -17.442965) translate(7.188786, 2.442965)">
                                <path d="M7.17592761,29.4421425 C3.11001432,29.0306517 2.593546,27.3715299 1.82771051,26.3900042 C-2.15070305,14.5992045 1.39006582,12.1840315 2.85121918,8.48882562 C4.31237252,4.79361979 9.50100372,4.41010897 12.2823377,5.00779266 C19.6544617,6.59199592 22.516697,13.6145534 19.2325263,19.2936491 C18.4182429,20.7017346 17.3104082,21.9372311 15.8420003,23.3600774 L15.7548051,23.4541492 C15.5720796,23.6538327 15.4289823,23.8005131 15.3255132,23.8941903 C13.6734496,25.3899098 12.3278566,26.4571234 11.3800178,27.110516 C10.5145879,27.7071 9.11322447,28.4843089 7.17592761,29.4421425 Z" id="Path" fill="#FBD2AA"></path>
                                <path d="M19.1251799,12.1681638 C19.1251799,6.2268332 14.3929251,2.78816046 12.3905927,2.1197616 C9.48078439,1.14843808 8.7803875,0.900818996 7.24934132,2.32574566 C10.788991,5.18582533 7.82139353,8.33485178 8.04447662,10.0019164 C8.3152091,12.0250575 11.2712727,12.5736121 10.8703572,14.2607322 C10.1390881,17.3380363 6.52509652,17.854037 8.40699168,21.7656499 C9.07094308,23.145706 19.432849,20.693032 19.1251799,12.1681638 Z" id="Path" fill="url(#linearGradient-4)" transform="translate(13.190619, 11.725148) rotate(-46.000000) translate(-13.190619, -11.725148) "></path>
                            </g>
                        </g>
                    </g>
                </g>
            </g>
        </g>
    </g>
</svg>