<?xml version="1.0" encoding="UTF-8"?>
<svg width="70px" height="50px" viewBox="0 0 70 50" version="1.1" xmlns="http://www.w3.org/2000/svg" xmlns:xlink="http://www.w3.org/1999/xlink">
    <title>img_8_m</title>
    <defs>
        <rect id="path-1" x="0" y="0" width="62" height="42" rx="4"></rect>
        <linearGradient x1="-0.0653366123%" y1="50.0109914%" x2="100.014672%" y2="50.0109914%" id="linearGradient-3">
            <stop stop-color="#1E1E28" offset="0%"></stop>
            <stop stop-color="#0F0F19" offset="100%"></stop>
        </linearGradient>
        <linearGradient x1="50%" y1="99.8450413%" x2="50%" y2="0%" id="linearGradient-4">
            <stop stop-color="#FBD2AA" offset="0%"></stop>
            <stop stop-color="#EAB077" offset="100%"></stop>
        </linearGradient>
    </defs>
    <g id="Mobile" stroke="none" stroke-width="1" fill="none" fill-rule="evenodd">
        <g id="img_8_m">
            <rect id="Rectangle" stroke="#F2F2F2" fill="#FFFFFF" x="0.5" y="0.5" width="69" height="49" rx="4"></rect>
            <g id="Group-5" transform="translate(4.000000, 4.000000)">
                <mask id="mask-2" fill="white">
                    <use xlink:href="#path-1"></use>
                </mask>
                <g id="Mask"></g>
                <g id="Group-12" mask="url(#mask-2)">
                    <g transform="translate(14.000000, -2.000000)">
                        <g id="Group-3" transform="translate(10.000000, 2.000000)">
                            <path d="M13.5691003,22.7258087 C13.4276269,22.1642087 13.3313047,21.811513 13.1491953,21.0030261 C13.0965191,20.0371826 13.0709335,19.7170435 13.0543781,19.2748174 C13.0619033,18.4039304 12.9159148,17.4001043 12.8888242,16.9334609 C12.8557134,16.3582957 12.3424962,14.3560696 12.3424962,14.2204174 C12.3424962,14.1299826 12.2607226,13.0447652 12.0971754,10.9647652 C11.9797826,9.33693913 11.9858028,8.74413913 11.7750978,8.44434783 C11.4635554,8.00076522 11.2001741,7.84612174 10.2414664,7.60873043 C10.0166309,7.53934784 9.79822384,7.4540742 9.58828095,7.35370435 C9.41068674,7.26281739 9.00733718,7.06476522 8.95917604,7.04034783 C8.60619297,6.85843253 8.32716529,6.57936475 8.16301217,6.24406957 C8.0216964,6.34317113 7.87227226,6.43250383 7.71601658,6.51130435 C7.33524255,6.64695652 6.47436215,6.62389565 6.08756798,6.51130435 C5.93518156,6.43831782 5.79145838,6.35150271 5.65863282,6.2522087 C5.4791179,6.58304632 5.19675035,6.85970169 4.84591356,7.04848696 C4.79323731,7.07833043 4.28303022,7.32928696 4.02717415,7.44730435 C3.90588645,7.49816301 3.78181215,7.54343868 3.65543035,7.58295652 L3.59221885,7.60194783 C2.59739027,7.84612174 2.33250399,7.99805217 2.0164465,8.44841739 C1.80423647,8.7482087 1.77112569,9.39798261 1.69436887,10.9688348 C1.52881495,13.0416 1.44904806,14.1512348 1.44904806,14.2434783 C1.44904806,14.3791304 0.959911465,16.3311652 0.902720109,16.9049739 C0.804513927,17.6461526 0.749254261,18.3914427 0.737166186,19.1378087 C0.720610793,19.5447652 0.737166186,19.9747826 0.695025187,20.8239652 C0.487330265,21.7613217 0.394018054,22.123513 0.243514487,22.7230957 C0.0930109202,23.3226783 -0.00481639824,23.4176348 0.394018054,23.7744 C0.52044105,23.8856348 0.606228083,24.2491826 0.834993504,24.3821217 C1.14611647,24.5264617 1.47637002,24.6344963 1.8177818,24.7036174 L1.86142783,24.7144696 C1.89868244,24.7235855 1.93810392,24.7091508 1.95775011,24.6792 C2.0330019,24.5643478 1.93266618,24.3834783 1.65674298,24.1365913 C1.56640807,24.0581295 1.4814667,23.9747748 1.40239195,23.8869913 C1.25098211,23.7149473 1.18754363,23.4931342 1.22780781,23.2765565 L1.3030596,22.8818087 C1.36777613,23.0310261 1.33767542,23.2250087 1.42948259,23.5071652 C1.46710848,23.6197565 1.66577319,23.9398957 1.77413576,23.8761391 C1.84035733,23.8354435 1.77413576,23.5478609 1.77413576,23.4529043 C1.77692044,23.1514854 1.75882482,22.8502038 1.71995448,22.5508174 C1.67333961,22.350389 1.6094322,22.1535472 1.52881495,21.962087 C1.50270634,21.6989947 1.50270634,21.434327 1.52881495,21.1712348 C1.52881495,21.1590261 1.52881495,21.1454609 1.52881495,21.1291826 C1.56794587,20.8036174 1.80724655,20.0914435 2.09470836,18.8230957 C2.26427571,18.3130435 2.51260659,17.5633391 2.83970101,16.5739826 C3.00067543,16.0706376 3.07826981,15.5486203 3.06997147,15.0248348 C3.06997147,14.4564522 3.31077718,13.1555478 3.56813828,11.6877913 C3.56813828,11.6742261 3.55760303,11.6674435 3.56813828,11.6769391 C3.72767206,12.4352348 3.98804323,13.7904 4.03921444,14.1702261 C4.18971801,15.3639652 3.80292384,16.002887 3.43720017,17.2346087 C2.85625641,19.1608696 2.55835612,19.7618087 2.81722225,21.9078261 C2.92558482,22.7868522 2.9963215,23.6102609 3.17241067,24.5896696 C3.34849984,25.5690783 3.25509086,26.9662957 3.34087789,27.8561739 C3.4080331,28.3621062 3.42163971,28.8726493 3.38151385,29.3809043 C3.3499081,30.1663304 3.19187936,31.1253913 3.261111,32.507687 C3.30174696,33.3216 3.51245196,34.1138087 3.67800588,34.9195826 C3.91881159,36.0821217 4.34172661,37.442713 4.17617269,38.6337391 C4.13553672,38.9050435 4.04974969,39.1627826 4.04974969,39.2631652 C4.04703863,39.5196658 3.96409482,39.7702733 3.81044902,39.9861913 C3.63586488,40.2262957 3.29422178,40.8001043 3.25960596,41.0429217 C3.22499014,41.2857391 3.17080886,41.3874783 3.44322032,41.5326261 C3.87629463,41.7278613 4.33871813,41.8649641 4.81581284,41.9395826 C5.1303653,41.964 4.79022724,41.9463652 5.09574948,41.9219478 C5.40127172,41.8975304 5.5608055,41.5570435 5.58789614,41.3698435 C5.61498678,41.1826435 5.52919975,41.0090087 5.58789614,40.6848 C5.64659253,40.3605913 5.79860114,40.0825043 5.79860114,39.8858087 C5.79860114,39.689113 5.64809757,39.4788522 5.58789614,39.2631652 C5.52769472,39.0474783 5.54274507,38.8711304 5.47953357,38.7368348 C5.37117101,38.5089391 5.38471633,38.1033391 5.37418108,37.8537391 C5.33806022,37.0873043 5.54124004,36.3235826 5.58488607,35.5598609 C5.63605728,34.6781217 5.87385292,33.979513 5.90846874,33.0787826 C5.9445896,32.1482087 5.8181666,30.9856696 5.84224717,30.3657391 C5.86632774,29.7458087 6.17636509,29.0092174 6.22603127,28.2522783 L6.22603127,28.1817391 L6.45780676,25.5283826 C6.46683697,25.3601739 6.60831032,24.6701217 6.85363114,22.5919304 L6.94694335,22.5919304 C7.19075913,24.6728348 7.33373752,25.362887 7.34276773,25.5283826 L7.57454322,28.1817391 L7.57454322,28.2522783 C7.62270436,29.0065043 7.93424675,29.762087 7.95832732,30.3657391 C7.98240789,30.9693913 7.82437914,32.1509217 7.86200504,33.0787826 C7.89662086,33.979513 8.14946685,34.6781217 8.20063806,35.5598609 C8.23525388,36.1621565 8.36468695,36.7644522 8.4218783,37.3640348 C8.46702937,37.8238957 8.37973731,38.279687 8.32405099,38.7368348 C8.25933445,38.872487 8.27438481,39.0474783 8.21418338,39.2631652 C8.15398196,39.4788522 8.00498342,39.689113 8.00498342,39.8858087 C8.00498342,40.0825043 8.15548699,40.3592348 8.21418338,40.6848 C8.27287977,41.0103652 8.18709274,41.181287 8.21418338,41.3698435 C8.24127402,41.5584 8.4008078,41.8975304 8.70633005,41.9219478 C9.01185229,41.9463652 8.67321926,41.964 8.98626668,41.9395826 C9.46347741,41.8653831 9.92596752,41.7282606 10.3588592,41.5326261 C10.6312707,41.3874783 10.5785944,41.2843826 10.5439786,41.0429217 C10.5093628,40.8014609 10.1677197,40.2290087 9.99313554,39.9861913 C9.83948974,39.7702733 9.75654593,39.5196658 9.75383487,39.2631652 C9.75383487,39.1627826 9.6665428,38.9023304 9.62741187,38.6337391 C9.52657448,37.9554783 9.71169387,37.1944696 9.81554133,36.5243478 C10.0202262,35.2112348 10.4175556,33.9076174 10.476252,32.5782261 C10.5439786,31.1959304 10.4506664,30.1663304 10.4190606,29.3809043 C10.3789348,28.8726493 10.3925414,28.3621062 10.4596966,27.8561739 C10.5379585,26.9662957 10.4430444,25.5677217 10.6206386,24.5896696 C10.7982329,23.6116174 10.8779997,22.7868522 10.9758271,21.9078261 C11.0873884,21.1146526 11.0492237,20.3101819 10.8629494,19.528487 C10.7124458,18.7579826 10.562039,17.9834087 10.3152132,17.2346087 C9.97507511,16.2050087 9.71319891,15.1998261 9.79898594,13.9314783 C9.82758162,13.4770435 10.053337,12.4243826 10.1978204,11.7298435 C10.2083556,11.7067826 10.1872851,11.7406957 10.1978204,11.7176348 C10.4988275,13.2410087 10.7140476,14.4537391 10.7140476,15.0248348 C10.7057493,15.5486203 10.7833437,16.0706376 10.9443181,16.5739826 C11.2704091,17.5687652 11.51874,18.3184696 11.6893107,18.8230957 C11.9767726,20.0982261 12.2296185,20.8104 12.2702545,21.1291826 C12.269422,21.1359445 12.269422,21.1427686 12.2702545,21.1495304 C12.2985362,21.420236 12.2985362,21.6927379 12.2702545,21.9634435 C12.1915351,22.1553562 12.1281616,22.3521027 12.08062,22.5521739 C12.0421545,22.8515813 12.0245612,23.1528683 12.0279438,23.4542609 C12.0279438,23.5492174 11.9617222,23.8368 12.0279438,23.8774957 C12.1348013,23.9412522 12.3289509,23.621113 12.3710919,23.5085217 C12.4644041,23.2263652 12.4327984,23.0323826 12.4990199,22.8831652 L12.5742717,23.277913 C12.6163814,23.497524 12.5516892,23.722852 12.3966775,23.896487 C12.31705,23.9842576 12.2316088,24.0676096 12.1408214,24.146087 C11.8648982,24.3893565 11.7645625,24.5702261 11.8398143,24.6886957 C11.8594605,24.7186465 11.898882,24.7330811 11.9361366,24.7239652 L11.9812877,24.713113 C12.3226172,24.6437386 12.6528358,24.5357155 12.9640759,24.3916174 C13.1928414,24.2559652 13.2786284,23.8951304 13.4050514,23.7838957 C13.8159261,23.4203478 13.7196039,23.3321739 13.5691003,22.7258087 Z" id="Path" fill="#FBD2AA"></path>
                            <path d="M6.91434989,6.17081739 C7.99956728,6.17081739 7.48619284,5.11052123 7.73986241,4.26405167 C7.96911458,3.49354732 8.85281945,3.12813913 8.85281945,2.45394783 C8.85281945,1.03638261 8.22068032,0 6.93198467,0 C5.64328902,0 5.03285424,1.08521739 5.03285424,2.50685217 C5.03285424,3.2258087 5.72379932,3.48540456 6.17280802,4.41869152 C6.62181672,5.35197848 5.88746293,6.17081739 6.91434989,6.17081739 Z" id="Path" fill="url(#linearGradient-3)"></path>
                            <path d="M8.23831511,4.15638261 C8.0131325,4.73516522 7.90054119,5.17196522 7.90054119,5.46678261 C7.90054119,5.7616 8.26217371,6.2002087 8.48735632,6.7826087 L5.31540134,6.7826087 C5.45947205,6.35899443 5.84422301,5.91763783 5.86847163,5.47085217 C5.84455467,5.02314092 5.759199,4.58084334 5.61480206,4.15638261 L8.23831511,4.15638261 Z" id="Path" fill="url(#linearGradient-4)"></path>
                            <path d="M6.98624554,0.762365217 C8.19490641,0.784069565 8.58558467,1.52066087 8.62628032,2.65335652 L8.62628032,2.65335652 C8.83925424,2.67506087 8.92878467,2.93958261 8.82975858,3.26650435 C8.75379337,3.51610435 8.64255858,3.70194783 8.50961945,3.76706087 C8.45671511,3.97053913 8.39295858,4.17401739 8.32920206,4.36393043 C8.17998467,4.80751304 7.35521945,5.39895652 6.90214119,5.39081739 C6.49518467,5.38267826 5.56325424,4.85906087 5.46558467,4.3056 C5.43981076,4.16994783 5.39097597,3.94612174 5.34485424,3.71686957 C5.19970641,3.66125217 5.08440206,3.46184348 5.01250641,3.19053913 C4.92568902,2.86090435 5.02471511,2.60045217 5.23768902,2.58553043 L5.24989771,2.58553043 C5.33807163,1.49217391 5.78165424,0.74066087 6.98624554,0.762365217 Z" id="Path" fill="#FBD2AA"></path>
                        </g>
                        <g id="blue-4model" transform="translate(30.000000, 0.000000)">
                            <g id="Group-3-Copy" transform="translate(0.084885, 0.000000)"></g>
                        </g>
                        <g id="Group-10" transform="translate(24.518072, 4.783133)">
                            <g id="Group-9" transform="translate(3.022183, 2.164911) rotate(-15.000000) translate(-3.022183, -2.164911) translate(0.522183, 0.664911)" stroke="#F58E26" stroke-width="0.5">
                                <line x1="4.06564046" y1="1.29624681" x2="4.60226235e-13" y2="1.29624681" id="Path-2"></line>
                                <polyline id="Path-4" points="1.29624681 2.59249361 0 1.29624681 1.29624681 0"></polyline>
                            </g>
                            <g id="Group-9-Copy" transform="translate(2.530120, 15.433735)" stroke="#F58E26" stroke-width="0.5">
                                <line x1="4.06564046" y1="1.29624681" x2="4.60226235e-13" y2="1.29624681" id="Path-2"></line>
                                <polyline id="Path-4" points="1.29624681 2.59249361 0 1.29624681 1.29624681 0"></polyline>
                            </g>
                            <g id="Group-9-Copy-2" transform="translate(2.966054, 32.960230) rotate(-345.000000) translate(-2.966054, -32.960230) translate(0.466054, 31.460230)" stroke="#F58E26" stroke-width="0.5">
                                <line x1="4.06564046" y1="1.29624681" x2="4.60226235e-13" y2="1.29624681" id="Path-2"></line>
                                <polyline id="Path-4" points="1.29624681 2.59249361 0 1.29624681 1.29624681 0"></polyline>
                            </g>
                        </g>
                        <g id="Group-10-Copy" transform="translate(4.831325, 22.783133) scale(-1, 1) translate(-4.831325, -22.783133) translate(0.831325, 4.783133)">
                            <g id="Group-9" transform="translate(3.022183, 2.164911) rotate(-15.000000) translate(-3.022183, -2.164911) translate(0.522183, 0.664911)" stroke="#F58E26" stroke-width="0.5">
                                <line x1="4.06564046" y1="1.29624681" x2="4.60226235e-13" y2="1.29624681" id="Path-2"></line>
                                <polyline id="Path-4" points="1.29624681 2.59249361 0 1.29624681 1.29624681 0"></polyline>
                            </g>
                            <g id="Group-9-Copy" transform="translate(2.530120, 15.433735)" stroke="#F58E26" stroke-width="0.5">
                                <line x1="4.06564046" y1="1.29624681" x2="4.60226235e-13" y2="1.29624681" id="Path-2"></line>
                                <polyline id="Path-4" points="1.29624681 2.59249361 0 1.29624681 1.29624681 0"></polyline>
                            </g>
                            <g id="Group-9-Copy-2" transform="translate(2.966054, 32.960230) rotate(-345.000000) translate(-2.966054, -32.960230) translate(0.466054, 31.460230)" stroke="#F58E26" stroke-width="0.5">
                                <line x1="4.06564046" y1="1.29624681" x2="4.60226235e-13" y2="1.29624681" id="Path-2"></line>
                                <polyline id="Path-4" points="1.29624681 2.59249361 0 1.29624681 1.29624681 0"></polyline>
                            </g>
                        </g>
                    </g>
                </g>
            </g>
        </g>
    </g>
</svg>