<?xml version="1.0" encoding="UTF-8"?>
<svg width="62px" height="42px" viewBox="0 0 62 42" version="1.1" xmlns="http://www.w3.org/2000/svg" xmlns:xlink="http://www.w3.org/1999/xlink">
    <title>img_7</title>
    <defs>
        <rect id="path-1" x="0" y="0" width="62" height="42" rx="4"></rect>
        <linearGradient x1="49.9684355%" y1="82.0106746%" x2="50%" y2="41.182973%" id="linearGradient-3">
            <stop stop-color="#F58E26" offset="0%"></stop>
            <stop stop-color="#F58E26" stop-opacity="0.2" offset="100%"></stop>
        </linearGradient>
        <linearGradient x1="50%" y1="84.2902592%" x2="50.2825726%" y2="4.05726409%" id="linearGradient-4">
            <stop stop-color="#FFFFFF" offset="0%"></stop>
            <stop stop-color="#F2F3F6" offset="33.4019556%"></stop>
            <stop stop-color="#F2F3F6" offset="77.8792245%"></stop>
            <stop stop-color="#FFFFFF" offset="100%"></stop>
        </linearGradient>
    </defs>
    <g id="Mobile" stroke="none" stroke-width="1" fill="none" fill-rule="evenodd">
        <g id="[M]-Complete_soft_all-Copy" transform="translate(-34.000000, -697.000000)">
            <g id="img_7" transform="translate(34.000000, 697.000000)">
                <g id="Group-5">
                    <mask id="mask-2" fill="white">
                        <use xlink:href="#path-1"></use>
                    </mask>
                    <g id="Mask"></g>
                    <g id="Group-15-+-Group-15-Copy-+-Group-15-Copy-2-Mask" mask="url(#mask-2)">
                        <g transform="translate(4.000000, -16.000000)" id="Shape">
                            <path d="M38.6948091,0.738202635 C39.8310378,4.552772 40.6370172,7.54679654 40.8343413,9.15815421 C41.0359841,11.0246562 41.5114152,12.851067 42.2452388,14.578243 C43.7209399,17.9886075 44.8413187,20.5577681 45.6063753,22.2857249 C47.0807206,26.7085586 48.1991832,29.1424372 48.4679436,30.2604354 C48.468228,30.2848166 48.4712007,30.3090917 48.4768074,30.3328177 C48.685134,31.2846556 48.8038398,32.2540131 48.83136,33.2281104 C48.6633312,33.9417707 48.5464616,34.6665866 48.4816477,35.396999 C48.489118,36.4772033 48.5641256,37.5558805 48.706229,38.6266781 C48.7475934,38.9644623 48.6611896,40.0135259 48.8905963,40.1322303 C49.2599426,40.3169766 49.7410899,39.1017578 49.8267483,38.6846585 C50.0021119,37.6442359 49.8165815,36.966629 49.9632593,36.4097651 L50.3757617,37.7843682 C50.6060324,38.549008 50.4973979,39.3760145 50.0775368,40.0546794 C49.8612394,40.3982374 49.6244337,40.728365 49.3684152,41.0432562 C48.5923909,42.0172111 48.3504545,42.7000946 48.642606,43.0919067 C48.7184526,43.1907179 48.8507524,43.226552 48.9658667,43.1794636 L49.105466,43.1230914 C50.1663147,42.7419858 51.1748114,42.2277695 52.1069278,41.5926941 C52.7790907,41.0201192 52.8961264,39.7027797 53.2517855,39.2573385 C54.4067912,37.8024162 54.0604845,37.5266652 53.315254,35.4288998 C52.6183893,33.4868218 52.156853,32.2701007 51.2225467,29.4657754 C50.6334299,26.0507577 50.4121875,24.9220113 50.1666275,23.3554173 C49.8113108,20.2544927 48.9073732,16.7410826 48.6175004,15.0917757 C48.2611104,13.0587989 45.7483984,6.13834525 45.6893063,5.65579646 C45.6621709,5.43420812 45.3054167,3.54894263 44.6190435,-4.04003628e-14 M9.31652893,0.00683629366 C8.62661473,3.57938652 8.2670868,5.51078082 8.23938465,5.73699787 C8.18029257,6.21954665 5.76641877,12.9709337 5.33364549,14.9896086 C4.69685834,17.5875199 4.19555992,20.2169574 3.83179204,22.8672111 C3.60159601,24.3083425 3.46719386,25.8445371 2.96257253,28.8487088 C1.89034364,32.1013867 1.4342927,33.3530708 0.692016851,35.4267088 C-0.0502589934,37.5003467 -0.404331188,37.7996329 0.715141998,39.2256895 C1.0708011,39.6711308 1.18665493,40.9981213 1.85999969,41.5610452 C2.79163625,42.196935 3.80023943,42.7112056 4.86146145,43.0914425 L4.99624984,43.1472224 C5.1113642,43.1943108 5.24366402,43.1584767 5.31951062,43.0596655 C5.61008633,42.6807213 5.3681499,41.9978378 4.59370133,41.011015 C4.33912241,40.6963572 4.10391551,40.3664165 3.88939066,40.0230304 C3.48034981,39.3514426 3.37419201,38.5374327 3.59724202,37.7828568 L4.00974441,36.4082537 C4.1516113,36.9645252 3.97089185,37.6427245 4.14144449,38.6825548 C4.21267027,39.0978772 4.70825019,40.3148729 5.08240742,40.1307189 C5.31181412,40.0120144 5.22541027,38.9629508 5.26677473,38.6251667 C5.40697855,37.5540399 5.48037811,36.4751845 5.48654513,35.3948953 C5.42484901,34.6635768 5.30631436,33.9382119 5.13202199,33.2254144 C5.16317196,32.2792549 5.27846512,31.3377655 5.47652885,30.412155 C5.48184714,30.3687256 5.48775635,30.3204707 5.4948474,30.2625649 C5.7617515,29.119847 6.83691618,26.6806379 8.30830684,22.2819316 C9.07251983,20.534278 10.1928986,17.9651174 11.6694433,14.5744497 C12.403267,12.8472737 12.878698,11.020863 13.0803408,9.15436093 C13.2736936,7.57543274 14.1310617,4.46520262 15.1937182,0.739936987" fill-opacity="0.4" fill="url(#linearGradient-3)"></path>
                            <path d="M25.5607871,71.7583461 L25.5607871,71.4919324 L26.3497814,61.4706801 C26.3805215,60.8353859 26.8621154,52.1205852 27.6972197,44.2716288 L28.0148668,44.2716288 C28.8448478,52.1308319 29.3315651,60.8456326 29.3623051,61.4706801 L30.1512994,71.4919324 L30.1512994,71.7583461 M39.9727416,70.2623309 C40.2391552,66.9014201 40.8795727,61.6192569 41.4841268,57.925329 C42.0886808,54.2314011 42.3602178,51.1164106 42.6932349,47.7964865 C43.0730045,44.8008122 42.9430868,41.7624705 42.3089844,38.8101487 C41.7966505,35.9000918 40.3211287,32.9746649 39.480901,30.1465814 C38.3230262,26.2579666 37.4315651,22.4615719 37.7235955,17.6712493 C37.784016,16.6059391 38.1030082,14.6701703 38.45392,12.7276706 C37.2368782,12.7016098 18.2805215,12.7016098 17.1599424,12.7136742 C17.586542,15.1354816 18.0029801,17.6374731 18.1165746,18.5729571 C18.6289085,23.081496 17.3122103,25.494589 16.0672387,30.1465814 C14.0896296,37.4217237 12.1120205,39.6913632 12.9932349,47.7964865 C13.3621154,51.1164106 13.6029123,54.2262778 14.2023431,57.925329 C14.8017738,61.6243802 15.4473146,66.9014201 15.739345,70.2623309" fill="url(#linearGradient-4)"></path>
                        </g>
                    </g>
                </g>
            </g>
        </g>
    </g>
</svg>