<?xml version="1.0" encoding="UTF-8"?>
<svg width="62px" height="42px" viewBox="0 0 62 42" version="1.1" xmlns="http://www.w3.org/2000/svg" xmlns:xlink="http://www.w3.org/1999/xlink">
    <title>img_4_m</title>
    <defs>
        <rect id="path-1" x="0" y="0" width="62" height="42" rx="4"></rect>
        <linearGradient x1="50%" y1="9.32712118%" x2="49.9946982%" y2="1.41176854%" id="linearGradient-3">
            <stop stop-color="#FBD2AA" stop-opacity="0.5" offset="0%"></stop>
            <stop stop-color="#FBD2AA" offset="100%"></stop>
            <stop stop-color="#FBD2AA" offset="100%"></stop>
        </linearGradient>
        <linearGradient x1="-0.0653366123%" y1="50.0109914%" x2="100.014672%" y2="50.0109914%" id="linearGradient-4">
            <stop stop-color="#1E1E28" offset="0%"></stop>
            <stop stop-color="#0F0F19" offset="100%"></stop>
        </linearGradient>
        <linearGradient x1="50%" y1="99.8450413%" x2="50%" y2="0%" id="linearGradient-5">
            <stop stop-color="#FBD2AA" offset="0%"></stop>
            <stop stop-color="#EAB077" offset="100%"></stop>
        </linearGradient>
    </defs>
    <g id="Mobile" stroke="none" stroke-width="1" fill="none" fill-rule="evenodd">
        <g id="[M]-Complete_soft_all-Copy" transform="translate(-34.000000, -457.000000)">
            <g id="img_4_m" transform="translate(34.000000, 457.000000)">
                <g id="Group-5">
                    <mask id="mask-2" fill="white">
                        <use xlink:href="#path-1"></use>
                    </mask>
                    <g id="Mask"></g>
                    <g id="Group-3" mask="url(#mask-2)">
                        <path d="M61.2051176,96.7942857 C60.5631943,94.4285714 60.1261402,92.9428571 59.2998346,89.5371429 C59.0608206,85.4685714 58.9447281,84.12 58.8696094,82.2571429 C58.9037543,78.5885714 58.2413441,74.36 58.1184226,72.3942857 C57.9681852,69.9714286 55.639506,61.5371429 55.639506,60.9657143 C55.639506,60.5847619 55.2684652,56.0133333 54.5263836,47.2514286 C53.9937239,40.3942857 54.0210398,37.8971429 53.0649838,36.6342857 C51.6513867,34.7657143 50.4563167,34.1142857 46.106262,33.1142857 C45.0860899,32.8220147 44.0950864,32.4628034 43.1424884,32.04 C42.3366698,31.6571429 40.5065054,30.8228571 40.2879784,30.72 C38.6863477,29.9536901 36.4915432,28.7781299 35.7467124,27.3657143 C35.1055041,27.7831751 35.3562449,28.159485 34.647248,28.4914286 C32.9195183,29.0628571 29.0133466,28.9657143 27.258301,28.4914286 C26.5668606,28.1839762 26.7478633,27.7839858 26.1451787,27.3657143 C25.330645,28.7593526 23.2162917,29.9590364 21.6243996,30.7542857 C21.3853856,30.88 19.0703643,31.9371429 17.9094392,32.4342857 C17.3591066,32.6485255 16.7961299,32.8392472 16.2226833,33.0057143 L15.9358665,33.0857143 C11.4219164,34.1142857 10.2200175,34.7542857 8.78593346,36.6514286 C7.8230485,37.9142857 7.67281113,40.6514286 7.32453359,47.2685714 C6.57334674,56 1.97744902,60.6742857 1.97744902,61.0628571 C1.97744902,61.6342857 3.99199557,69.8571429 3.73249466,72.2742857 C3.28689246,75.3964671 3.03615642,78.5359676 2.98130781,81.68 C2.90618912,83.3942857 2.98130781,85.2057143 2.79009661,88.7828571 C1.84769856,92.7314286 1.42430234,94.2571429 0.7414052,96.7828571 C0.0585080642,99.3085714 -0.385375074,99.7085714 1.42430234,101.211429 C1.99793593,101.68 2.3871873,103.211429 3.42519095,103.771429 C4.83688496,104.379454 6.33538235,104.834545 7.88450925,105.125714 L8.08254941,105.171429 C8.25158903,105.209829 8.43046067,105.149024 8.51960358,105.022857 C8.86105215,104.539048 8.40578739,103.777143 7.15380931,102.737143 C6.74392234,102.406626 6.35850809,102.055498 5.99971315,101.685714 C5.31270388,100.960987 5.02485714,100.026609 5.20755247,99.1142857 L5.54900104,97.4514286 C5.84264681,98.08 5.70606738,98.8971429 6.12263463,100.085714 C6.29335892,100.56 7.19478314,101.908571 7.68646908,101.64 C7.98694382,101.468571 7.68646908,100.257143 7.68646908,99.8571429 C7.69910431,98.5874295 7.61699696,97.3182944 7.44062611,96.0571429 C7.22911513,95.2128473 6.93914069,94.3836605 6.57334674,93.5771429 C6.45488117,92.4688789 6.45488117,91.3539783 6.57334674,90.2457143 C6.57334674,90.1942857 6.57334674,90.1371429 6.57334674,90.0685714 C6.7509,88.6971429 7.83670645,85.6971429 9.14103998,80.3542857 C9.91043742,78.2057143 11.0372177,75.047619 12.5213808,70.88 C13.2517885,68.7596823 9.36990418,66.5607082 9.33225117,64.3542857 C9.33225117,61.96 14.6588488,56.48 15.8266029,50.2971429 C15.8266029,50.24 15.7788001,50.2114286 15.8266029,50.2514286 C16.5504739,53.4457143 17.7318859,59.1542857 17.964071,60.7542857 C18.6469681,65.7828571 16.8919225,68.4742857 15.2324824,73.6628571 C12.5964995,81.7771429 9.96051654,84.3085714 11.1350996,93.3485714 C11.6267856,97.0514286 11.9477472,100.52 12.7467369,104.645714 C13.5457265,108.771429 14.4061769,114.657143 14.7954283,118.405714 C15.1001393,120.536931 15.1618781,122.68757 14.9798105,124.828571 C14.8364021,128.137143 14.1193601,132.177143 14.4334928,138 C14.617875,141.428571 15.573931,144.765714 16.3251178,148.16 C17.4177533,153.057143 19.3366942,158.788571 18.5855074,163.805714 C18.4011251,164.948571 18.0118738,166.034286 18.0118738,166.457143 C17.9995726,167.53764 17.6232221,168.593312 16.9260673,169.502857 C16.1339067,170.514286 14.5837302,172.931429 14.4266638,173.954286 C14.2695975,174.977143 14.0237545,175.405714 15.2597983,176.017143 C17.2248362,176.839562 19.3230435,177.417101 21.4878202,177.731429 C22.9150752,177.834286 21.3717277,177.76 22.7580089,177.657143 C24.1442901,177.554286 24.868161,176.12 24.9910825,175.331429 C25.114004,174.542857 24.7247526,173.811429 24.9910825,172.445714 C25.2574124,171.08 25.9471385,169.908571 25.9471385,169.08 C25.9471385,168.251429 25.2642414,167.365714 24.9910825,166.457143 C24.7179237,165.548571 24.7862134,164.805714 24.4993966,164.24 C24.0077106,163.28 24.0691714,161.571429 24.0213686,160.52 C23.8574733,157.291429 24.7793844,154.074286 24.9774246,150.857143 C25.2096096,147.142857 26.2885871,144.2 26.4456534,140.405714 C26.6095487,136.485714 26.0359151,131.588571 26.1451787,128.977143 C26.2544422,126.365714 27.6612103,123.262857 27.8865664,120.074286 L27.8865664,119.777143 L28.938228,108.6 C28.9792018,107.891429 29.6211251,98.1714286 30.7342474,89.4171429 L31.1576436,89.4171429 C32.263937,98.1828571 32.9126893,107.902857 32.9536631,108.6 L34.0053247,119.777143 L34.0053247,120.074286 C34.2238518,123.251429 35.6374489,126.434286 35.7467124,128.977143 C35.8559759,131.52 35.138934,136.497143 35.3096582,140.405714 C35.4667246,144.2 36.6139918,147.142857 36.8461768,150.857143 C37.0032431,153.394286 37.5905347,155.931429 37.8500356,158.457143 C38.0549047,160.394286 37.6588244,162.314286 37.4061524,164.24 C37.1125067,164.811429 37.1807964,165.548571 36.9076375,166.457143 C36.6344787,167.365714 35.9584105,168.251429 35.9584105,169.08 C35.9584105,169.908571 36.6413077,171.074286 36.9076375,172.445714 C37.1739674,173.817143 36.784716,174.537143 36.9076375,175.331429 C37.030559,176.125714 37.75443,177.554286 39.1407112,177.657143 C40.5269924,177.76 38.9904738,177.834286 40.4108998,177.731429 C42.5762029,177.418867 44.6747125,176.841244 46.6389217,176.017143 C47.8749655,175.405714 47.6359515,174.971429 47.4788852,173.954286 C47.3218189,172.937143 45.7716424,170.525714 44.9794817,169.502857 C44.2823269,168.593312 43.9059764,167.53764 43.8936752,166.457143 C43.8936752,166.034286 43.4975949,164.937143 43.3200416,163.805714 C42.8625006,160.948571 43.702464,157.742857 44.1736631,154.92 C45.1024032,149.388571 46.9052516,143.897143 47.1715815,138.297143 C47.4788852,132.474286 47.055489,128.137143 46.9120806,124.828571 C46.7300129,122.68757 46.7917518,120.536931 47.0964628,118.405714 C47.4515693,114.657143 48.3051907,108.765714 49.1110094,104.645714 C49.916828,100.525714 50.2787635,97.0514286 50.7226466,93.3485714 C51.2288468,90.0073643 51.0556777,86.6185684 50.2104737,83.3257143 C49.5275766,80.08 47.5608329,76.8171429 46.4408816,73.6628571 C44.897534,69.3257143 43.709293,65.0914286 44.0985444,59.7485714 C44.2282948,57.8342857 45.2526405,53.4 45.9082218,50.4742857 C45.9560246,50.3771429 45.860419,50.52 45.9082218,50.4228571 C47.2740161,56.84 48.250559,61.9485714 48.250559,64.3542857 C48.212906,66.5607082 48.5649839,68.7596823 49.2953916,70.88 C50.775002,75.0704762 51.9017823,78.2285714 52.6757324,80.3542857 C53.9800659,85.7257143 55.1273331,88.7257143 55.3117154,90.0685714 C55.3079379,90.0970554 55.3079379,90.1258017 55.3117154,90.1542857 C55.4400412,91.2946206 55.4400412,92.4425223 55.3117154,93.5828571 C54.9545327,94.3912809 54.6669807,95.2200664 54.451265,96.0628571 C54.2767311,97.3240969 54.196903,98.5932549 54.212251,99.8628571 C54.212251,100.262857 53.9117762,101.474286 54.212251,101.645714 C54.6971079,101.914286 55.5780452,100.565714 55.7692564,100.091429 C56.1926527,98.9028571 56.0492443,98.0857143 56.349719,97.4571429 L56.6911676,99.12 C56.8822369,100.045101 56.5887012,100.994285 55.8853489,101.725714 C55.5240459,102.095444 55.1363638,102.446561 54.7244238,102.777143 C53.4724457,103.801905 53.017181,104.56381 53.3586295,105.062857 C53.4477725,105.189024 53.6266441,105.249829 53.7956837,105.211429 L54.0005529,105.165714 C55.5493065,104.873478 57.0476456,104.418435 58.4598712,103.811429 C59.4978748,103.24 59.8871262,101.72 60.4607598,101.251429 C62.3250689,99.72 61.8880148,99.3485714 61.2051176,96.7942857 Z" id="Path" fill="url(#linearGradient-3)"></path>
                        <g id="Group-9" transform="translate(18.965969, 0.000000)">
                            <path d="M10.4550894,25.0538586 C12.0847968,25.030011 13.5387014,23.6326513 14.6072728,20.066937 C15.5729871,16.8212227 18.8365161,14.9669948 18.8365161,12.1269948 C18.8365161,6.15556625 16.173659,1.78985196 10.7450875,1.78985196 C5.3165161,1.78985196 2.74508752,6.36128053 2.74508752,12.349852 C2.74508752,15.3784234 5.32580602,17.4836561 7.21723459,21.4150846 C9.10866316,25.3465132 8.11454685,25.088108 10.4550894,25.0538586 Z" id="Path" fill="url(#linearGradient-4)" transform="translate(10.790802, 13.429682) rotate(-13.000000) translate(-10.790802, -13.429682) "></path>
                            <path d="M6.56656666,18.5714286 L17.6179952,18.5714286 C16.6694238,21.0095238 16.1951381,22.8495238 16.1951381,24.0914286 C16.1951381,25.3333333 16.6694238,27.1809524 17.6179952,29.6342857 L6.56656666,29.6342857 C7.17345792,27.84983 7.53299191,25.9906356 7.63513809,24.1085714 C7.53438899,22.2226083 7.17483214,20.35945 6.56656666,18.5714286 L6.56656666,18.5714286 Z" id="Path" fill="url(#linearGradient-5)"></path>
                            <path d="M11.2723194,4.98382936 C16.3637479,5.07525793 18.0094622,8.17811507 18.1808908,12.9495436 L18.1808908,12.9495436 C19.0780336,13.0409722 19.4551765,14.1552579 19.0380336,15.5324008 C18.7180336,16.5838294 18.2494622,17.3666865 17.6894622,17.6409722 C17.4666051,18.4981151 17.1980336,19.3552579 16.9294622,20.1552579 C16.3008908,22.0238294 12.8266051,24.5152579 10.9180336,24.4809722 C9.20374793,24.4466865 5.27803365,22.2409722 4.86660507,19.9095436 C4.75803365,19.3381151 4.55231936,18.3952579 4.35803365,17.4295436 C3.74660507,17.1952579 3.26089079,16.3552579 2.95803365,15.2124008 C2.59231936,13.8238294 3.00946222,12.7266865 3.90660507,12.6638294 L3.95803365,12.6638294 C4.32946222,8.05811507 6.19803365,4.89240079 11.2723194,4.98382936 Z" id="Path" fill="#FBD2AA" transform="translate(11.016716, 14.731611) rotate(-13.000000) translate(-11.016716, -14.731611) "></path>
                        </g>
                    </g>
                </g>
            </g>
        </g>
    </g>
</svg>