<?xml version="1.0" encoding="UTF-8"?>
<svg width="62px" height="42px" viewBox="0 0 62 42" version="1.1" xmlns="http://www.w3.org/2000/svg" xmlns:xlink="http://www.w3.org/1999/xlink">
    <title>img_6</title>
    <defs>
        <rect id="path-1" x="0" y="0" width="62" height="42" rx="4"></rect>
        <linearGradient x1="49.9684355%" y1="98.9088533%" x2="50%" y2="26.638549%" id="linearGradient-3">
            <stop stop-color="#F58E26" offset="0%"></stop>
            <stop stop-color="#F58E26" stop-opacity="0.2" offset="100%"></stop>
        </linearGradient>
        <linearGradient x1="50%" y1="94.6292417%" x2="50%" y2="6.96319865%" id="linearGradient-4">
            <stop stop-color="#FFFFFF" offset="0%"></stop>
            <stop stop-color="#F2F3F6" offset="22.3257927%"></stop>
            <stop stop-color="#F2F3F6" offset="67.3145576%"></stop>
            <stop stop-color="#FFFFFF" offset="100%"></stop>
        </linearGradient>
    </defs>
    <g id="Mobile" stroke="none" stroke-width="1" fill="none" fill-rule="evenodd">
        <g id="[M]-Complete_soft_all-Copy" transform="translate(-34.000000, -637.000000)">
            <g id="img_6" transform="translate(34.000000, 637.000000)">
                <g id="Group-5">
                    <mask id="mask-2" fill="white">
                        <use xlink:href="#path-1"></use>
                    </mask>
                    <g id="Mask"></g>
                    <g id="blue-4model" mask="url(#mask-2)">
                        <g transform="translate(3.000000, -68.000000)" id="Group-3">
                            <g transform="translate(0.345069, 0.000000)">
                                <g id="Group-15-+-Group-15-Copy-+-Group-15-Copy-2-Mask" transform="translate(0.300400, 54.571460)">
                                    <path d="M40.2891097,0.0190668671 C41.0931019,4.75634817 41.6210071,8.46194227 41.6210071,10.4213885 C41.5886532,12.6871247 41.8911815,14.9452123 42.5187956,17.1225291 C43.7901737,21.4256549 44.758377,24.6686471 45.4234056,26.8515055 C46.5441743,32.3673305 47.5299813,35.4479774 47.6884146,36.8269337 C47.6851687,36.8561834 47.6851687,36.8857024 47.6884146,36.9149521 C47.7986805,38.0859419 47.7986805,39.2647018 47.6884146,40.4356915 C47.3814999,41.2658475 47.1344164,42.1169127 46.9490593,42.9823596 C46.7990884,44.2775044 46.7304949,45.5807803 46.7436828,46.8845124 C46.7436828,47.2952653 46.4854953,48.5392599 46.7436828,48.7152969 C47.1603037,48.9910881 47.9172626,47.606264 48.0815638,47.1192284 C48.4453735,45.8987054 48.3221477,45.0595958 48.5803352,44.414127 L48.8737301,46.1216856 C49.0379094,47.0716554 48.7856843,48.0463556 48.1813181,48.7974475 C47.8708628,49.1771165 47.5377411,49.5376718 47.1837753,49.8771409 C46.1079938,50.9294507 45.7168005,51.7118373 46.0101955,52.2243004 C46.0867929,52.3538585 46.2404911,52.4162984 46.385741,52.3768658 L46.561778,52.3299226 C47.8925684,52.02983 49.1800394,51.5625549 50.393516,50.9392306 C51.2854366,50.3524407 51.6199068,48.7915796 52.1128104,48.3104119 C53.7147468,46.7378149 53.3392012,46.3564015 52.7524113,43.7334507 C52.2008288,41.3041405 51.8252833,39.7784868 51.1152675,36.2812191 C50.9098911,32.103275 50.8101368,30.7184509 50.7455899,28.8055158 C50.7749294,25.0383247 50.2057432,20.6960795 50.100121,18.6775223 C49.9710272,16.1895331 47.9700737,7.52851432 47.9700737,6.94172443 C47.9700737,6.67226815 47.8188072,4.36117768 47.5162741,0.00845302815 M5.94934718,0.0181058781 C5.64603301,4.39963375 5.49822129,6.76639383 5.49822129,7.04147871 C5.49822129,7.6282686 3.59115414,16.0721752 3.36817398,18.5542964 C2.98528342,21.7604092 2.76983462,24.9843068 2.7227051,28.212858 C2.65815821,29.9732277 2.7227051,31.8333517 2.55840393,35.5066564 C1.74863388,39.5613746 1.38482415,41.1281036 0.798034254,43.7217149 C0.211244361,46.3153262 -0.170169069,46.7260791 1.38482415,48.2693366 C1.87772766,48.7505043 2.21219789,50.3231012 3.10411853,50.8981553 C4.31713838,51.5225261 5.60474537,51.9898505 6.93585653,52.2888473 L7.1060256,52.3357905 C7.25127549,52.3752231 7.40497371,52.3127832 7.48157113,52.1832251 C7.77496608,51.6864097 7.38377281,50.9040232 6.30799134,49.8360656 C5.95578965,49.4966638 5.62461651,49.1360966 5.31631643,48.7563722 C4.72599312,48.0121625 4.47865637,47.0526665 4.63564015,46.1158177 L4.9290351,44.4082591 C5.18135475,45.0537279 5.06399677,45.8928375 5.42193861,47.1133605 C5.56863608,47.6003961 6.34319874,48.9852202 6.76568746,48.709429 C7.02387501,48.533392 6.76568746,47.2893974 6.76568746,46.8786445 C6.77654448,45.5747983 6.70599248,44.271546 6.5544431,42.9764917 C6.37269903,42.1094995 6.12353402,41.2580223 5.80921994,40.4298236 C5.70742656,39.2917669 5.70742656,38.1468952 5.80921994,37.0088385 C5.80921994,36.9560274 5.80921994,36.8973484 5.80921994,36.8269337 C5.96178531,35.4186379 6.89478124,32.337991 8.01554993,26.8515055 C8.67666654,24.6451755 9.64486987,21.4021833 10.9201599,17.1225291 C11.547774,14.9452123 11.8503024,12.6871247 11.8179484,10.4213885 C11.8179484,8.50137722 12.390503,4.64899436 13.1192317,0.029546143" id="Shape" fill-opacity="0.4" fill="url(#linearGradient-3)"></path>
                                    <path d="M24.1229325,67.6392709 L24.1229325,67.3341402 L25.0265889,55.8565299 C25.0617963,55.1289104 25.6133788,45.1476143 26.5698463,36.1579932 L26.9336561,36.1579932 C27.8842557,45.1593501 28.4417061,55.1406462 28.4769135,55.8565299 L29.3805699,67.3341402 L29.3805699,67.6392709 M40.6293322,65.9258444 C40.9344629,62.0765027 41.6679503,56.0266989 42.3603623,51.7959438 C43.0527744,47.5651887 43.3637731,43.9975061 43.7451865,40.1951076 C44.1801468,36.7640812 44.0313486,33.2841865 43.3050941,29.9028129 C42.7183042,26.5698463 41.0283493,23.219276 40.0660139,19.9801958 C38.7398687,15.5264606 37.7188543,11.1783475 38.0533245,5.69186196 C38.1225259,4.47173341 38.4878761,2.25464535 38.8897849,0.0298481052 C37.4958741,4.34400779e-14 15.7846481,4.34400779e-14 14.5012187,0.0138175691 C14.9898148,2.78757893 15.4667725,5.6531771 15.5968753,6.72461217 C16.1836652,11.8883632 14.6756152,14.6521436 13.2497158,19.9801958 C10.9847068,28.3126123 8.7196978,30.9120915 9.72897642,40.1951076 C10.1514651,43.9975061 10.4272564,47.5593208 11.1138006,51.7959438 C11.8003447,56.0325668 12.5397,62.0765027 12.8741702,65.9258444" id="Shape" fill="url(#linearGradient-4)"></path>
                                </g>
                            </g>
                        </g>
                    </g>
                </g>
            </g>
        </g>
    </g>
</svg>