<?xml version="1.0" encoding="UTF-8"?>
<svg width="62px" height="42px" viewBox="0 0 62 42" version="1.1" xmlns="http://www.w3.org/2000/svg" xmlns:xlink="http://www.w3.org/1999/xlink">
    <title>img_9</title>
    <defs>
        <rect id="path-1" x="0" y="0" width="62" height="42" rx="4"></rect>
        <polygon id="path-3" points="0 -4.2902661e-15 74.3319838 -4.2902661e-15 74.3319838 41.5137117 0 41.5137117"></polygon>
        <linearGradient x1="50%" y1="0%" x2="50%" y2="100%" id="linearGradient-5">
            <stop stop-color="#FFFFFF" offset="0%"></stop>
            <stop stop-color="#FFFFFF" stop-opacity="0" offset="100%"></stop>
        </linearGradient>
    </defs>
    <g id="Mobile" stroke="none" stroke-width="1" fill="none" fill-rule="evenodd">
        <g id="[M]-Complete_soft_all-Copy" transform="translate(-34.000000, -817.000000)">
            <g id="img_9" transform="translate(34.000000, 817.000000)">
                <g id="Group-5">
                    <mask id="mask-2" fill="white">
                        <use xlink:href="#path-1"></use>
                    </mask>
                    <g id="Mask"></g>
                    <g id="Body-front" mask="url(#mask-2)">
                        <g transform="translate(-7.000000, 0.000000)">
                            <mask id="mask-4" fill="white">
                                <use xlink:href="#path-3"></use>
                            </mask>
                            <g id="Mask" stroke="none" fill="none"></g>
                            <g id="blue-4model" stroke="none" stroke-width="1" fill="none" fill-rule="evenodd" mask="url(#mask-4)">
                                <g transform="translate(-0.247773, -17.096356)">
                                    <g id="Group-3" transform="translate(0.234070, 17.096356)">
                                        <path d="M54.817956,49.5865787 C54.4438024,47.9387105 56.6667922,46.6560442 56.1851689,44.2837509 C56.0458564,41.4497361 55.9781903,40.5103717 55.9344064,39.212775 C55.9543082,36.6573853 55.5682135,33.7119205 55.496567,32.3426774 C55.4089992,30.6550057 54.0516971,24.7799975 54.0516971,24.3819617 C54.0516971,24.1166045 53.835431,20.9323182 53.4028988,14.8291029 C53.0924309,10.0526735 48.5528727,5.92603349 46.0173848,5.22947086 C45.4227638,5.02588581 44.8451441,4.77567265 44.2899095,4.48116359 C43.8202273,4.21447961 42.7534914,3.63334737 42.6261199,3.56170093 C41.6925879,3.02791811 40.9546453,2.2090668 40.5205106,1.22523087 C40.1467737,1.51601846 39.7515927,1.77814189 39.3383443,2.00936137 C38.3313138,2.40739715 36.0545491,2.33973107 35.0315972,2.00936137 C34.6285818,1.79520152 34.248478,1.54046532 33.8971952,1.24911302 C33.4224333,2.21986939 32.6756577,3.03164213 31.7478019,3.58558307 C31.6084894,3.67315095 30.2591481,4.40951715 29.5824873,4.75580828 C29.2617185,4.9050397 28.93358,5.03788929 28.5993389,5.15384406 L28.4321638,5.20956907 C25.8011473,5.92603349 21.1381981,9.9840163 20.9351998,14.5932707 C20.4973605,20.6752575 20.2864015,23.9311902 20.2864015,24.2018545 C20.2864015,24.5998903 19.0602386,30.3276252 18.908985,32.0113166 C18.6492598,34.1861114 18.5031149,36.3729702 18.4711456,38.5629856 C18.4273617,39.757093 18.4711456,41.0188664 18.3596956,43.5105704 C17.8104062,46.2609977 19.9739034,47.8192998 19.5758676,49.5786179 C19.1778319,51.3379361 18.9191086,51.6165612 19.9739034,52.6633953 C20.3082535,52.9897846 20.5351339,54.0565205 21.1401483,54.4465956 C21.9629731,54.8701235 22.8363925,55.1871226 23.739322,55.3899404 L23.8547523,55.4217833 C23.9532793,55.4485315 24.0575371,55.4061768 24.1094952,55.318294 C24.3085131,54.9812903 24.0431559,54.4505759 23.3134237,53.7261508 C23.0745155,53.4959252 22.8498716,53.2513425 22.6407432,52.993765 C22.2403106,52.488947 22.0725352,51.8380944 22.1790217,51.2026039 L22.3780396,50.0443198 C22.549195,50.4821592 22.4695878,51.0513503 22.7123896,51.8792648 C22.8118986,52.2096345 23.3373058,53.1489989 23.6238916,52.9619221 C23.7990273,52.8425114 23.6238916,51.9986755 23.6238916,51.7200505 C23.6312562,50.8356156 23.5833988,49.9515836 23.4805987,49.0731125 C23.3573167,48.4850078 23.1883012,47.9074272 22.9750932,47.3456372 C22.906044,46.5736619 21.6671776,45.7970638 21.7362269,45.0250886 C21.7362269,44.9892654 20.5648139,44.4539152 20.5648139,44.4061509 C20.6683032,43.450865 21.3011801,41.3611772 22.0614284,37.6395426 C22.5098821,36.142928 23.1666411,33.9431169 24.0317055,31.0401093 C24.4574335,29.5631752 24.6626468,28.0314521 24.6407003,26.4945406 C24.6407003,25.4898477 26.6112271,18.9106964 27.6251583,17.1984069 C27.6251583,17.1586033 28.3406156,17.1387015 28.3684781,17.166564 C28.7903961,19.3915841 29.478998,23.3679616 29.6143301,24.4824617 C30.0123659,27.9851766 28.9894139,29.8599252 28.022187,33.4740901 C26.4857689,39.1261982 24.9493507,40.8894968 25.6339723,47.1864229 C25.9205581,49.7656948 26.1076349,52.181772 26.5733367,55.0555903 C27.0390386,57.9294087 27.5405637,62.0291773 27.7674441,64.640292 C27.945049,66.124818 27.9810343,67.6228728 27.8749138,69.1142142 C27.7913262,71.4188414 27.3733887,74.2329544 27.5564851,78.2889391 C27.6639548,80.6771538 28.2212049,83.0016827 28.6590442,85.3660153 C29.2959015,88.777182 30.4143821,92.7694809 29.9765427,96.2642351 C29.869073,97.0603066 29.6421926,97.8165746 29.6421926,98.1111211 C29.6350227,98.8637549 29.4156618,99.5990969 29.0093157,100.232652 C28.5475942,100.937175 27.644053,102.620867 27.5525048,103.333351 C27.4609565,104.045835 27.3176637,104.344361 28.0381084,104.77026 C29.1834572,105.343126 30.4064256,105.745419 31.6681948,105.964367 C32.5000896,106.036014 31.6005287,105.984269 32.4085413,105.912622 C33.216554,105.840976 33.6384719,104.841906 33.7101183,104.292617 C33.7817648,103.743327 33.5548844,103.233842 33.7101183,102.282536 C33.8653523,101.331231 34.2673684,100.515257 34.2673684,99.9381054 C34.2673684,99.3609535 33.8693327,98.743998 33.7101183,98.1111211 C33.550904,97.4782442 33.5907076,96.9607977 33.4235326,96.5667423 C33.1369468,95.8980422 33.17277,94.7079152 33.1449075,93.9755293 C33.0493789,91.7266271 33.5867273,89.4856857 33.7021576,87.2447442 C33.8374898,84.6575116 34.4663863,82.6076273 34.5579346,79.9646697 C34.6534632,77.2341442 34.3191131,73.8229776 34.3827988,72.003954 C34.4464845,70.1849305 35.2664383,68.0235962 35.3977901,65.8025565 L35.3977901,65.5955779 L36.0107652,57.809998 C36.0346473,57.3164336 36.408801,50.5458449 37.0575993,44.4479367 L37.3043815,44.4479367 C37.9491995,50.5538056 38.3273334,57.3243943 38.3512156,57.809998 L38.9641907,65.5955779 L38.9641907,65.8025565 C39.0915622,68.0156355 39.9154962,70.2326948 39.979182,72.003954 C40.0428677,73.7752133 39.6249301,77.2421049 39.724439,79.9646697 C39.8159873,82.6076273 40.4846874,84.6575116 40.6200196,87.2447442 C40.7115678,89.0120231 41.0538786,90.779302 41.2051322,92.5386201 C41.3245429,93.8879614 41.0936821,95.2253617 40.9464089,96.5667423 C40.7752535,96.9647781 40.8150571,97.4782442 40.6558428,98.1111211 C40.4966285,98.743998 40.102573,99.3609535 40.102573,99.9381054 C40.102573,100.515257 40.5006088,101.32725 40.6558428,102.282536 C40.8110767,103.237822 40.5841963,103.739347 40.6558428,104.292617 C40.7274892,104.845887 41.1494072,105.840976 41.9574198,105.912622 C42.7654324,105.984269 41.8698519,106.036014 42.6977664,105.964367 C43.9598424,105.746648 45.1829869,105.344298 46.3278527,104.77026 C47.0482975,104.344361 46.908985,104.041854 46.8174367,103.333351 C46.7258885,102.624847 45.8223473,100.945136 45.3606258,100.232652 C44.9542797,99.5990969 44.7349188,98.8637549 44.7277489,98.1111211 C44.7277489,97.8165746 44.4968881,97.0523459 44.3933988,96.2642351 C44.1267148,94.2740562 44.6162988,92.0410754 44.8909435,90.0747786 C45.4322722,86.2217922 46.4830867,82.3966684 46.6383206,78.4959177 C46.8174367,74.439933 46.5706545,71.4188414 46.487067,69.1142142 C46.3809464,67.6228728 46.4169317,66.124818 46.5945367,64.640292 C46.8015153,62.0291773 47.29906,57.9254283 47.7687422,55.0555903 C48.2384245,52.1857523 48.4493834,49.7656948 48.7081067,47.1864229 C49.0031523,44.8590629 48.9022184,42.4985543 48.4095799,40.2048752 C48.0115441,37.944032 46.865201,35.6712476 46.2124223,33.4740901 C45.3128615,30.4529985 44.6202792,27.5035533 44.8471596,23.7819188 C44.9227864,22.4484989 45.5198401,19.3597412 45.9019544,17.321798 C45.9298169,17.2541319 46.6174118,17.3536409 46.6452743,17.2859748 C48.1846657,21.7559166 49.74495,25.0665833 49.74495,26.7423139 C49.7230034,28.2792254 49.9282167,29.8109485 50.3539447,31.2878826 C51.2163556,34.2068116 51.8731146,36.4066228 52.3242218,37.8873159 C53.0844702,41.6288522 53.7531703,43.7185401 53.86064,44.6539242 C53.8584382,44.6737651 52.6195718,44.941562 52.6217736,44.9614028 C52.69657,45.7557175 51.4577036,46.5553029 51.3829072,47.3496176 C51.1747184,47.9127353 51.0071149,48.4900363 50.8813821,49.0770929 C50.7796527,49.9556253 50.7331238,50.8396733 50.7420696,51.7240308 C50.7420696,52.0026559 50.5669338,52.8464917 50.7420696,52.9659025 C51.024675,53.1529793 51.5381411,52.2136148 51.6495911,51.8832451 C51.8963733,51.0553307 51.8127858,50.4861395 51.9879216,50.0483002 L52.1869395,51.2065843 C52.2983068,51.8509751 52.1272155,52.5121411 51.7172572,53.0216275 C51.5066669,53.2791675 51.2807012,53.5237421 51.0405964,53.7540133 C50.3108641,54.4678242 50.0455069,54.9985385 50.2445248,55.3461565 C50.296483,55.4340393 50.4007407,55.476394 50.4992677,55.4496458 L50.6186785,55.4178029 C51.5213903,55.2142418 52.3947175,54.8972762 53.2178521,54.4744581 C53.8228665,54.0764223 54.0497469,53.0176471 54.384097,52.6912578 C55.4707347,51.6245219 55.2159918,51.3657986 54.817956,49.5865787 Z" id="Path" fill-opacity="0.7" fill="#C4C8D4"></path>
                                        <polygon id="Mask" fill="url(#linearGradient-5)" points="0.0137036693 9.7940142e-15 74.3456875 9.7940142e-15 74.3456875 41.5137117 0.0137036693 41.5137117"></polygon>
                                        <path d="M54.8864578,14.9807937 C54.8274918,14.0739679 52.8771847,7.77635789 52.0725452,6.88580645 C50.853916,5.53706331 49.5528791,4.66369462 46.4626609,3.8101168 C45.9618882,3.63691859 45.4759385,3.42600719 45.0080498,3.17922303 C44.6742508,2.99019722 44.0667406,2.65686857 43.6491364,2.42779775 C43.5117596,2.35244348 43.4076536,2.29535921 43.3640416,2.27105951 C42.7063531,1.89506804 42.1864691,1.31817934 41.8806181,0.625059878 C41.7606598,0.353210338 39.8181498,2.11581291 38.71255,2.14166024 C37.9375101,2.39660084 36.4095274,2.33069269 35.6066503,2.11581291 C34.5090966,2.11581291 32.6973344,0.318670202 32.5617136,0.595977166 C32.2131788,1.308634 31.6644137,1.90397816 30.9566546,2.32693959 C30.8266631,2.40864853 29.5826812,3.08451431 28.9334572,3.41792431 C28.667976,3.54071325 28.3965779,3.65032114 28.1203056,3.746466 L28.0011119,3.78619725 C24.7943624,4.66290281 23.2762355,5.2999067 22.2650118,6.8986031 C21.6517949,7.85972298 19.6762764,9.89486346 19.4511667,14.9969325 C19.3185467,16.8400052 23.6278534,19.279907 27.5055653,20.0169068 C27.5243369,20.0204746 27.5945217,23.8007198 26.3254427,28.6903344 C25.0612493,33.5611249 22.9541102,39.0410212 22.5652142,41.5137117 C24.8970198,42.8131957 46.3971363,42.4200087 51.4296239,41.5137117 C51.4296239,39.3615486 49.3096167,33.6001722 47.9788821,28.5142886 C46.7243038,23.7194639 46.7494356,20.0205755 46.7686485,20.0169068 C50.6414544,19.2773961 55.0174693,16.8294723 54.8864578,14.9807937 Z" id="Path-Copy" fill-opacity="0.3" fill="#F58E26"></path>
                                    </g>
                                    <g id="Group-3-Copy" transform="translate(19.064839, 0.000000)"></g>
                                </g>
                            </g>
                        </g>
                    </g>
                </g>
            </g>
        </g>
    </g>
</svg>