<?xml version="1.0" encoding="UTF-8"?>
<svg width="62px" height="42px" viewBox="0 0 62 42" version="1.1" xmlns="http://www.w3.org/2000/svg" xmlns:xlink="http://www.w3.org/1999/xlink">
    <title>img_10</title>
    <defs>
        <rect id="path-1" x="0" y="0" width="62" height="42" rx="4"></rect>
        <polygon id="path-3" points="0 9.8820323e-15 75 9.8820323e-15 75 41.8867925 0 41.8867925"></polygon>
        <linearGradient x1="49.9827671%" y1="100.016679%" x2="50%" y2="0%" id="linearGradient-5">
            <stop stop-color="#F58E26" offset="0%"></stop>
            <stop stop-color="#F58E26" stop-opacity="0" offset="100%"></stop>
        </linearGradient>
        <linearGradient x1="50%" y1="0%" x2="50%" y2="100%" id="linearGradient-6">
            <stop stop-color="#FFFFFF" offset="0%"></stop>
            <stop stop-color="#FFFFFF" stop-opacity="0" offset="100%"></stop>
        </linearGradient>
        <linearGradient x1="49.9684355%" y1="100.016679%" x2="49.9684355%" y2="1.61273724%" id="linearGradient-7">
            <stop stop-color="#F58E26" offset="0%"></stop>
            <stop stop-color="#F58E26" stop-opacity="0" offset="100%"></stop>
        </linearGradient>
    </defs>
    <g id="Mobile" stroke="none" stroke-width="1" fill="none" fill-rule="evenodd">
        <g id="[M]-Complete_soft_all-Copy" transform="translate(-34.000000, -877.000000)">
            <g id="img_10" transform="translate(34.000000, 877.000000)">
                <g id="Group-5">
                    <mask id="mask-2" fill="white">
                        <use xlink:href="#path-1"></use>
                    </mask>
                    <g id="Mask"></g>
                    <g id="Body-front" mask="url(#mask-2)">
                        <g transform="translate(-7.000000, 0.000000)">
                            <mask id="mask-4" fill="white">
                                <use xlink:href="#path-3"></use>
                            </mask>
                            <g id="Mask" stroke="none" fill="none"></g>
                            <g id="Body-front" stroke="none" stroke-width="1" fill="none" fill-rule="evenodd" mask="url(#mask-4)">
                                <g transform="translate(-0.235849, -82.405660)" id="Group-3">
                                    <g transform="translate(0.041539, 0.000000)">
                                        <path d="M37.6943105,112.971698 C38.8993745,112.971698 40.0893005,112.983734 41.2607928,113.007195 C41.2028113,113.216329 41.1665294,113.443888 41.1349282,113.691536 L41.0955861,114.012613 C41.0700794,114.213043 41.0375828,114.428047 40.9798416,114.657568 C40.9249232,114.875869 40.842274,115.091884 40.757166,115.305532 L40.7060083,115.433436 C40.4913668,115.970029 40.3028011,116.495629 40.3028011,116.995283 C40.3028011,117.389454 40.4263988,117.866041 40.5876807,118.406559 L40.6204141,118.515509 C40.7460666,118.931228 40.8871052,119.391583 40.9676223,119.887073 C41.0401636,120.333481 41.0308843,120.685078 41.0064089,120.989015 L40.981441,121.25741 C40.9467722,121.608985 40.9222296,121.921492 40.9643204,122.246526 C41.0197909,122.674882 41.216345,123.280048 41.56019,123.779047 C40.2922365,123.806594 39.0022006,123.820755 37.6943105,123.820755 C36.2884706,123.820755 34.9032593,123.804394 33.5439276,123.772632 C33.8857869,123.273845 34.081194,122.671038 34.1364806,122.247174 C34.1738997,121.960294 34.1587798,121.681008 34.1306074,121.374798 L34.1004126,121.058904 C34.0719212,120.738142 34.0550456,120.366405 34.1331876,119.887535 C34.1957535,119.504119 34.2955018,119.140777 34.3962952,118.802595 L34.4821028,118.519005 C34.6606946,117.932308 34.8028011,117.416063 34.8028011,116.995283 C34.8028011,116.527356 34.6361366,116.036597 34.4372789,115.535418 L34.397118,115.435047 C34.2940282,115.179292 34.1870892,114.9201 34.1210435,114.657568 C34.0627433,114.425825 34.0301969,114.208388 34.0047705,114.005826 L33.9810272,113.808242 C33.9465904,113.51673 33.9096808,113.252248 33.8451562,113.01325 C35.1077958,112.98575 36.3922159,112.971698 37.6943105,112.971698 Z" id="Path" fill-opacity="0.07" fill="url(#linearGradient-5)"></path>
                                        <path d="M58.4490275,57.3254717 C58.0056313,55.3726415 57.7037445,54.1462264 57.1329898,51.3349057 C56.9678954,47.9764151 56.8877067,46.8632075 56.8358199,45.3254717 C56.8594048,42.2971698 56.4018577,38.8066038 56.316952,37.1839623 C56.2131784,35.1839623 54.6046879,28.2216981 54.6046879,27.75 C54.6046879,27.4355346 54.3483986,23.6619497 53.8358199,16.4292453 C53.4678954,10.7688679 53.4867633,8.70754717 52.826386,7.66509434 C51.8499709,6.12264151 51.0244992,5.58490566 48.0197822,4.75943396 C47.3151179,4.51817252 46.6306012,4.22165377 45.9726124,3.87264151 C45.4160086,3.55660377 44.1518577,2.86792453 44.0009143,2.78301887 C42.8946186,2.15045176 42.0201089,1.18006007 41.5056313,0.0141509434 C41.0627289,0.35875301 40.5944139,0.669386211 40.1046879,0.943396226 C38.9112916,1.41509434 36.2131784,1.33490566 35.0009143,0.943396226 C34.5233151,0.689602972 34.0728676,0.387724119 33.6565747,0.0424528302 C33.0939511,1.19286183 32.2089738,2.15486496 31.1094048,2.81132075 C30.9443105,2.91509434 29.3452539,3.78773585 28.5433671,4.19811321 C28.1632354,4.37496208 27.7743701,4.53239743 27.3782728,4.66981132 L27.1801596,4.73584906 C24.062235,5.58490566 23.2320464,6.11320755 22.2414803,7.67924528 C21.576386,8.72169811 21.4726124,10.9811321 21.2320464,16.4433962 C20.7131784,23.6509434 20.4631784,27.509434 20.4631784,27.8301887 C20.4631784,28.3018868 18.9301596,35.0896226 18.7509143,37.0849057 C18.4431231,39.662178 18.269932,42.2537468 18.2320464,44.8490566 C18.1801596,46.2641509 18.2320464,47.759434 18.0999709,50.7122642 C17.4490275,53.9716981 17.1565747,55.2311321 16.6848765,57.3160377 C16.2131784,59.4009434 15.9065747,59.7311321 17.1565747,60.9716981 C17.5528011,61.3584906 17.821669,62.6226415 18.5386501,63.0849057 C19.5137507,63.5868136 20.5488091,63.962478 21.6188388,64.2028302 L21.7556313,64.240566 C21.8723921,64.2722644 21.9959443,64.2220714 22.0575181,64.1179245 C22.2933671,63.7185535 21.9789017,63.0896226 21.1141218,62.2311321 C20.8310003,61.9582999 20.5647827,61.6684536 20.316952,61.3632075 C19.8424135,60.7649656 19.6435889,59.9936632 19.7697822,59.240566 L20.0056313,57.8679245 C20.2084615,58.3867925 20.1141218,59.0613208 20.4018577,60.0424528 C20.5197822,60.4339623 21.1424237,61.5471698 21.4820464,61.3254717 C21.6895935,61.1839623 21.4820464,60.1839623 21.4820464,59.8537736 C21.4907739,58.8056611 21.4340598,57.7580261 21.312235,56.7169811 C21.1661379,56.020039 20.9658436,55.3355688 20.7131784,54.6698113 C20.6313506,53.7549708 20.6313506,52.8346519 20.7131784,51.9198113 C20.7131784,51.8773585 20.7131784,51.8301887 20.7131784,51.7735849 C20.8358199,50.6415094 21.5858199,48.1650943 22.4867633,43.754717 C23.0182099,41.9811321 23.7965118,39.3742138 24.821669,35.9339623 C25.3261841,34.1837 25.5693752,32.3685091 25.5433671,30.5471698 C25.5433671,28.5707547 26.2980841,24.0471698 27.1046879,18.9433962 C27.1046879,18.8962264 27.071669,18.8726415 27.1046879,18.9056604 C27.6046879,21.5424528 28.4207256,26.254717 28.581103,27.5754717 C29.0528011,31.7264151 27.8405369,33.9481132 26.6943105,38.2311321 C24.8735558,44.9292453 23.0528011,47.0188679 23.8641218,54.4811321 C24.2037445,57.5377358 24.4254426,60.4009434 24.9773294,63.8066038 C25.5292162,67.2122642 26.1235558,72.0707547 26.3924237,75.1650943 C26.602897,76.9243535 26.6455419,78.6996452 26.5197822,80.4669811 C26.4207256,83.1981132 25.9254426,86.5330189 26.1424237,91.3396226 C26.2697822,94.1698113 26.9301596,96.9245283 27.4490275,99.7264151 C28.2037445,103.768868 29.5292162,108.5 29.0103482,112.641509 C28.8829898,113.584906 28.6141218,114.481132 28.6141218,114.830189 C28.605625,115.722108 28.3456681,116.593536 27.8641218,117.34434 C27.316952,118.179245 26.2461973,120.174528 26.1377067,121.018868 C26.0292162,121.863208 25.8594048,122.216981 26.7131784,122.721698 C28.0704907,123.400582 29.5197872,123.877324 31.0150652,124.136792 C32.0009143,124.221698 30.9348765,124.160377 31.8924237,124.075472 C32.8499709,123.990566 33.3499709,122.806604 33.4348765,122.15566 C33.5197822,121.504717 33.2509143,120.900943 33.4348765,119.773585 C33.6188388,118.646226 34.0952539,117.679245 34.0952539,116.995283 C34.0952539,116.311321 33.6235558,115.580189 33.4348765,114.830189 C33.2461973,114.080189 33.2933671,113.466981 33.0952539,113 C32.7556313,112.207547 32.7980841,110.79717 32.7650652,109.929245 C32.6518577,107.264151 33.2886501,104.608491 33.4254426,101.95283 C33.5858199,98.8867925 34.331103,96.4575472 34.4395935,93.3254717 C34.5528011,90.0896226 34.1565747,86.0471698 34.2320464,83.8915094 C34.3075181,81.7358491 35.2792162,79.1745283 35.4348765,76.5424528 L35.4348765,76.2971698 L36.1612916,67.0707547 C36.1895935,66.4858491 36.6329898,58.4622642 37.4018577,51.2358491 L37.6943105,51.2358491 C38.4584615,58.4716981 38.9065747,66.495283 38.9348765,67.0707547 L39.6612916,76.2971698 L39.6612916,76.5424528 C39.812235,79.1650943 40.7886501,81.7924528 40.8641218,83.8915094 C40.9395935,85.990566 40.4443105,90.0990566 40.562235,93.3254717 C40.6707256,96.4575472 41.4631784,98.8867925 41.6235558,101.95283 C41.7320464,104.04717 42.1377067,106.141509 42.316952,108.226415 C42.4584615,109.825472 42.1848765,111.410377 42.0103482,113 C41.8075181,113.471698 41.8546879,114.080189 41.6660086,114.830189 C41.4773294,115.580189 41.0103482,116.311321 41.0103482,116.995283 C41.0103482,117.679245 41.4820464,118.641509 41.6660086,119.773585 C41.8499709,120.90566 41.581103,121.5 41.6660086,122.15566 C41.7509143,122.811321 42.2509143,123.990566 43.2084615,124.075472 C44.1660086,124.160377 43.1046879,124.221698 44.0858199,124.136792 C45.5814616,123.878781 47.0309668,123.40197 48.3877067,122.721698 C49.2414803,122.216981 49.076386,121.858491 48.9678954,121.018868 C48.8594048,120.179245 47.7886501,118.188679 47.2414803,117.34434 C46.759934,116.593536 46.4999771,115.722108 46.4914803,114.830189 C46.4914803,114.481132 46.2178954,113.575472 46.0952539,112.641509 C45.7792162,110.283019 46.3594048,107.636792 46.6848765,105.306604 C47.326386,100.740566 48.571669,96.2075472 48.7556313,91.5849057 C48.9678954,86.7783019 48.6754426,83.1981132 48.576386,80.4669811 C48.4506262,78.6996452 48.4932711,76.9243535 48.7037445,75.1650943 C48.9490275,72.0707547 49.5386501,67.2075472 50.0952539,63.8066038 C50.6518577,60.4056604 50.9018577,57.5377358 51.2084615,54.4811321 C51.5581095,51.7230602 51.4384963,48.925705 50.8546879,46.2075472 C50.3829898,43.5283019 49.0244992,40.8349057 48.2509143,38.2311321 C47.1848765,34.6509434 46.3641218,31.1556604 46.6329898,26.745283 C46.7226124,25.1650943 47.4301596,21.504717 47.8829898,19.0896226 C47.9160086,19.009434 47.8499709,19.1273585 47.8829898,19.0471698 C48.826386,24.3443396 49.5009143,28.5613208 49.5009143,30.5471698 C49.4749062,32.3685091 49.7180973,34.1837 50.2226124,35.9339623 C51.244625,39.3930818 52.0229269,42 52.5575181,43.754717 C53.4584615,48.1886792 54.2509143,50.6650943 54.3782728,51.7735849 C54.3756635,51.7970976 54.3756635,51.8208269 54.3782728,51.8443396 C54.4669114,52.7856538 54.4669114,53.7332141 54.3782728,54.6745283 C54.1315557,55.3418592 53.9329347,56.0259982 53.7839331,56.7216981 C53.6633772,57.7628158 53.6082375,58.8104698 53.6188388,59.8584906 C53.6188388,60.1886792 53.4112916,61.1886792 53.6188388,61.3301887 C53.9537445,61.5518868 54.562235,60.4386792 54.6943105,60.0471698 C54.9867633,59.0660377 54.8877067,58.3915094 55.0952539,57.8726415 L55.331103,59.245283 C55.4630804,60.0089277 55.2603263,60.7924522 54.7744992,61.3962264 C54.524936,61.7014279 54.2571521,61.9912647 53.9726124,62.2641509 C53.1078325,63.1100629 52.7933671,63.7389937 53.0292162,64.1509434 C53.0907899,64.2550902 53.2143421,64.3052833 53.331103,64.2735849 L53.4726124,64.2358491 C54.5423843,63.994616 55.5773333,63.6189913 56.5528011,63.1179245 C57.2697822,62.6462264 57.5386501,61.3915094 57.9348765,61.004717 C59.2226124,59.740566 58.9207256,59.4339623 58.4490275,57.3254717 Z" id="Path-Copy-2" fill-opacity="0.5" fill="#C4C8D4"></path>
                                        <polygon id="Mask" fill="url(#linearGradient-6)" points="0.194310507 82.4056604 75.1943105 82.4056604 75.1943105 124.292453 0.194310507 124.292453"></polygon>
                                        <path d="M23.487505,82.4056604 C23.2901619,92.0652744 23.7044701,98.8968446 24.7304293,102.900371 C25.7563886,106.903897 26.0313544,110.828912 25.5553268,114.675415 C26.0784907,115.175415 27.3516547,115.425415 29.3748186,115.425415 C31.3979826,115.425415 33.4211466,115.008748 35.4443105,114.175415 L34.9593913,104.83978 L35.474472,95.5041455 L36.3858067,82.4056604 L38.1554295,82.4056604 L39.3274428,95.4975261 L40.0108767,104.836471 L39.6943105,114.175415 C41.7743124,115.008748 43.8543142,115.425415 45.934316,115.425415 C48.0143179,115.425415 49.4276531,115.175415 50.1743216,114.675415 C49.8444325,111.118392 49.9621843,107.041255 50.5275769,102.444004 C51.0929695,97.8467521 51.4030314,91.1673043 51.4577626,82.4056604 L23.487505,82.4056604 Z" id="Path-2" fill-opacity="0.3" fill="url(#linearGradient-7)"></path>
                                    </g>
                                </g>
                            </g>
                        </g>
                    </g>
                </g>
            </g>
        </g>
    </g>
</svg>