<?xml version="1.0" encoding="UTF-8"?>
<svg width="62px" height="42px" viewBox="0 0 62 42" version="1.1" xmlns="http://www.w3.org/2000/svg" xmlns:xlink="http://www.w3.org/1999/xlink">
    <title>img_1</title>
    <defs>
        <rect id="path-1" x="0" y="0" width="62" height="42" rx="4"></rect>
        <path d="M6.17744753,0.328999411 C7.92988102,0.328999411 9.66030058,0.34650192 11.3639134,0.38061948 C11.2795952,0.684747168 11.2268332,1.01566905 11.180878,1.37580563 L11.1236657,1.84272279 C11.0865733,2.1341934 11.0393159,2.44685739 10.9553473,2.78063273 C10.8754836,3.09809098 10.7552931,3.41222628 10.6315269,3.72291815 L10.5571321,3.9089191 C10.2449952,4.6892453 9.97077833,5.45358561 9.97077833,6.18019501 C9.97077833,6.75340836 10.1505172,7.44647294 10.3850573,8.2325064 L10.432659,8.39094472 C10.6153859,8.99549393 10.8204877,9.66495338 10.9375775,10.3855063 C11.043069,11.0346843 11.0295748,11.5459851 10.9939821,11.9879781 L10.9576731,12.378284 C10.9072569,12.889554 10.8715665,13.3440089 10.9327759,13.8166817 C11.0134424,14.4396065 11.2992762,15.3196534 11.7993041,16.0453099 C9.95541505,16.0853704 8.07941331,16.1059629 6.17744753,16.1059629 C4.13304071,16.1059629 2.11863253,16.0821705 0.141859118,16.0359822 C0.638999372,15.310633 0.923165061,14.4340171 1.00356425,13.8176233 C1.05798005,13.4004355 1.03599224,12.9942915 0.995023343,12.5489925 L0.951113334,12.0896125 C0.90968032,11.6231522 0.885139447,11.0825638 0.998775467,10.386179 C1.08976034,9.82860499 1.23481673,9.3002249 1.38139305,8.80843238 L1.50617644,8.39602859 C1.7658891,7.54284022 1.97254377,6.7921039 1.97254377,6.18019501 C1.97254377,5.49972396 1.73017617,4.78604967 1.44099251,4.0572236 L1.3825895,3.91126171 C1.23267383,3.53933574 1.07716051,3.1624126 0.981115261,2.78063273 C0.896333698,2.44362601 0.849003902,2.12742446 0.81202816,1.83285303 L0.777500149,1.54552219 C0.727421263,1.12159762 0.673746394,0.736982111 0.579913103,0.389425556 C2.41607459,0.349433889 4.28390968,0.328999411 6.17744753,0.328999411 Z" id="path-3"></path>
        <linearGradient x1="49.9827671%" y1="100.016679%" x2="50%" y2="0%" id="linearGradient-5">
            <stop stop-color="#F1F5F7" stop-opacity="0" offset="0%"></stop>
            <stop stop-color="#F1F5F7" offset="100%"></stop>
        </linearGradient>
        <path d="M6.17744753,0.328999411 C7.92988102,0.328999411 9.66030058,0.34650192 11.3639134,0.38061948 C11.2795952,0.684747168 11.2268332,1.01566905 11.180878,1.37580563 L11.1236657,1.84272279 C11.0865733,2.1341934 11.0393159,2.44685739 10.9553473,2.78063273 C10.8754836,3.09809098 10.7552931,3.41222628 10.6315269,3.72291815 L10.5571321,3.9089191 C10.2449952,4.6892453 9.97077833,5.45358561 9.97077833,6.18019501 C9.97077833,6.75340836 10.1505172,7.44647294 10.3850573,8.2325064 L10.432659,8.39094472 C10.6153859,8.99549393 10.8204877,9.66495338 10.9375775,10.3855063 C11.043069,11.0346843 11.0295748,11.5459851 10.9939821,11.9879781 L10.9576731,12.378284 C10.9072569,12.889554 10.8715665,13.3440089 10.9327759,13.8166817 C11.0134424,14.4396065 11.2992762,15.3196534 11.7993041,16.0453099 C9.95541505,16.0853704 8.07941331,16.1059629 6.17744753,16.1059629 C4.13304071,16.1059629 2.11863253,16.0821705 0.141859118,16.0359822 C0.638999372,15.310633 0.923165061,14.4340171 1.00356425,13.8176233 C1.05798005,13.4004355 1.03599224,12.9942915 0.995023343,12.5489925 L0.951113334,12.0896125 C0.90968032,11.6231522 0.885139447,11.0825638 0.998775467,10.386179 C1.08976034,9.82860499 1.23481673,9.3002249 1.38139305,8.80843238 L1.50617644,8.39602859 C1.7658891,7.54284022 1.97254377,6.7921039 1.97254377,6.18019501 C1.97254377,5.49972396 1.73017617,4.78604967 1.44099251,4.0572236 L1.3825895,3.91126171 C1.23267383,3.53933574 1.07716051,3.1624126 0.981115261,2.78063273 C0.896333698,2.44362601 0.849003902,2.12742446 0.81202816,1.83285303 L0.777500149,1.54552219 C0.727421263,1.12159762 0.673746394,0.736982111 0.579913103,0.389425556 C2.41607459,0.349433889 4.28390968,0.328999411 6.17744753,0.328999411 Z" id="path-6"></path>
        <linearGradient x1="49.9962878%" y1="100.016679%" x2="50%" y2="77.3521156%" id="linearGradient-8">
            <stop stop-color="#F58E26" offset="0%"></stop>
            <stop stop-color="#F58E26" stop-opacity="0.2" offset="100%"></stop>
        </linearGradient>
    </defs>
    <g id="Mobile" stroke="none" stroke-width="1" fill="none" fill-rule="evenodd">
        <g id="[M]-Complete_soft_all-Copy" transform="translate(-34.000000, -157.000000)">
            <g id="img_1" transform="translate(34.000000, 157.000000)">
                <g id="Group-5">
                    <mask id="mask-2" fill="white">
                        <use xlink:href="#path-1"></use>
                    </mask>
                    <g id="Mask"></g>
                    <g mask="url(#mask-2)">
                        <g transform="translate(0.000000, -139.000000)">
                            <g id="Group-2" opacity="0.3" stroke-width="1" fill="none" transform="translate(24.973096, 163.936629)">
                                <mask id="mask-4" fill="white">
                                    <use xlink:href="#path-3"></use>
                                </mask>
                                <g id="Mask"></g>
                                <line x1="-5.14466202" y1="16.6247595" x2="14.5668947" y2="-3.08679721" id="Path-2" stroke="#F58E26" stroke-width="0.90889029" mask="url(#mask-4)"></line>
                                <line x1="-1.71488734" y1="16.6247595" x2="17.9966694" y2="-3.08679721" id="Path-2-Copy-4" stroke="#F58E26" stroke-width="0.90889029" mask="url(#mask-4)"></line>
                                <line x1="1.71488734" y1="16.6247595" x2="21.4264441" y2="-3.08679721" id="Path-2-Copy-5" stroke="#F58E26" stroke-width="0.90889029" mask="url(#mask-4)"></line>
                                <line x1="5.14466202" y1="16.6247595" x2="24.8562187" y2="-3.08679721" id="Path-2-Copy-6" stroke="#F58E26" stroke-width="0.90889029" mask="url(#mask-4)"></line>
                                <line x1="8.5744367" y1="16.6247595" x2="28.2859934" y2="-3.08679721" id="Path-2-Copy-7" stroke="#F58E26" stroke-width="0.90889029" mask="url(#mask-4)"></line>
                                <line x1="-8.5744367" y1="16.6247595" x2="11.13712" y2="-3.08679721" id="Path-2-Copy" stroke="#F58E26" stroke-width="0.90889029" mask="url(#mask-4)"></line>
                                <line x1="-12.0042114" y1="16.6247595" x2="7.70734535" y2="-3.08679721" id="Path-2-Copy-2" stroke="#F58E26" stroke-width="0.90889029" mask="url(#mask-4)"></line>
                                <line x1="-15.4339861" y1="16.6247595" x2="4.27757067" y2="-3.08679721" id="Path-2-Copy-3" stroke="#F58E26" stroke-width="0.90889029" mask="url(#mask-4)"></line>
                                <mask id="mask-7" fill="white">
                                    <use xlink:href="#path-6"></use>
                                </mask>
                                <use id="Mask" fill="url(#linearGradient-5)" xlink:href="#path-6"></use>
                            </g>
                            <g id="Group-4" stroke-width="1" fill="none" transform="translate(25.751185, 172.555647)">
                                <path d="M0.911670655,1.94466021 C2.33780943,2.28363104 3.76394821,2.45311645 5.19008699,2.45311645 C6.65734194,2.45311645 8.12459689,2.27371749 9.59185184,1.91491958" id="Path-4" stroke="#F58E26" stroke-width="0.90889029"></path>
                                <polyline id="Path-10" stroke="#F58E26" stroke-width="0.90889029" transform="translate(8.763323, 1.938650) rotate(-30.000000) translate(-8.763323, -1.938650) " points="7.91112702 0.342977468 9.74105776 2.17290822 7.78558855 3.53432303"></polyline>
                                <polyline id="Path-10-Copy" stroke="#F58E26" stroke-width="0.90889029" transform="translate(1.663690, 1.938650) scale(-1, 1) rotate(-30.000000) translate(-1.663690, -1.938650) " points="0.811493402 0.342977468 2.64142415 2.17290822 0.685954936 3.53432303"></polyline>
                            </g>
                            <path d="M61.3325604,83.3435247 C60.6877627,80.5036713 60.2487516,78.7201884 59.4187461,74.631897 C59.1786619,69.7478979 59.0620495,68.1290442 58.9865945,65.8928311 C59.0208923,61.4890005 58.355516,56.4129339 58.2320441,54.0532489 C58.081134,51.1448 55.7420277,41.0201052 55.7420277,40.3341502 C55.7420277,39.8768469 55.3693255,34.3892075 54.6239211,23.8712318 C54.0888763,15.6397725 54.1163145,12.6421495 53.1559776,11.1261891 C51.7360508,8.88311642 50.5356297,8.10112779 46.1660968,6.90070665 C45.1413567,6.54985837 44.1459158,6.11865354 43.1890523,5.61111138 C42.3796255,5.15152157 40.5412663,4.15002736 40.3217607,4.02655547 C38.7129584,3.10666091 37.441225,1.69549357 36.6930591,-1.29161079e-14 C36.0489797,0.501128756 35.3679445,0.952859156 34.6557729,1.35133122 C32.9203069,2.03728616 28.9966447,1.92067382 27.2337405,1.35133122 C26.539204,0.982258865 25.8841523,0.543259251 25.278769,0.0411572962 C24.4605881,1.71411021 23.1736324,3.11307869 21.5746123,4.06771277 C21.3345281,4.21862286 19.0091408,5.48763949 17.8430175,6.08442028 C17.2902206,6.34159823 16.7247231,6.57054457 16.1487088,6.77037522 L15.8606077,6.86640891 C11.3264456,8.10112779 10.1191649,8.86939732 8.67865951,11.1467677 C7.71146305,12.6627281 7.56055296,15.9484523 7.21071595,23.8918104 C6.45616552,34.3732018 6.0926094,39.9843132 6.0926094,40.4507626 C6.0926094,41.1367175 3.86325586,51.007609 3.60259298,53.9091984 C3.15499552,57.6571309 2.90313676,61.4258537 2.84804255,65.2000167 C2.77258751,67.2578815 2.84804255,69.4323586 2.65597517,73.7264365 C1.70935736,78.4663851 1.2840653,80.2978848 0.598110363,83.3298056 C-0.0878445727,86.3617264 -0.533715281,86.8418949 1.2840653,88.6459564 C1.86026745,89.2084394 2.25126176,91.0467986 3.29391326,91.7190345 C4.7119284,92.4489213 6.2171356,92.9952216 7.77319899,93.3447477 L7.97212592,93.3996241 C8.14192244,93.4457206 8.32159502,93.3727287 8.41113708,93.2212758 C8.75411455,92.6405006 8.29681126,91.725894 7.03922721,90.477456 C6.6275049,90.0806968 6.24036488,89.6591952 5.87996337,89.215299 C5.18987789,88.345321 4.90074226,87.2236741 5.08425564,86.1285017 L5.42723311,84.1323729 C5.72219373,84.8869233 5.58500275,85.8678389 6.00343526,87.2946251 C6.17492399,87.8639677 7.08038451,89.4828214 7.57427206,89.1604226 C7.87609223,88.9546361 7.57427206,87.5004116 7.57427206,87.0202432 C7.58696388,85.4960524 7.50448887,83.9725559 7.32732828,82.4586428 C7.11487023,81.4451326 6.82359737,80.4497592 6.45616552,79.4815984 C6.33716949,78.1512149 6.33716949,76.8128646 6.45616552,75.4824811 C6.45616552,75.4207452 6.45616552,75.3521497 6.45616552,75.2698351 C6.6345138,73.6235433 7.72518215,70.0222799 9.03535607,63.6086012 C9.80819864,61.0294106 10.9400243,57.2383664 12.430833,52.2354684 C13.1645113,49.6901942 13.5181657,47.0504992 13.4803441,44.401863 C13.4803441,41.5277118 14.577872,34.949404 15.7508549,27.5273716 C15.7508549,27.4587761 15.7028381,27.4244783 15.7508549,27.4724952 C16.4779671,31.3069833 17.6646692,38.1596731 17.8978938,40.0803469 C18.5838488,46.1167503 16.8209446,49.3475981 15.1540741,55.5760689 C12.5062881,65.316629 9.858502,68.3554094 11.0383445,79.2072164 C11.532232,83.6522044 11.8546309,87.8159509 12.6571981,92.7685455 C13.4597654,97.7211402 14.3240686,104.786476 14.7150629,109.28634 C15.0211384,111.844698 15.0831537,114.426371 14.9002708,116.996474 C14.7562202,120.968153 14.0359676,125.817854 14.3515068,132.807735 C14.5367147,136.923465 15.4970516,140.929442 16.251602,145.004014 C17.3491299,150.882648 19.2766633,157.762776 18.5221128,163.78546 C18.336905,165.15737 17.9459107,166.460684 17.9459107,166.968291 C17.9335544,168.265342 17.5555188,169.532594 16.8552423,170.624431 C16.0595346,171.838571 14.5024169,174.74016 14.3446473,175.96802 C14.1868776,177.195879 13.9399339,177.710345 15.1815123,178.444317 C17.155349,179.431567 19.2629514,180.124857 21.4374213,180.502182 C22.8710671,180.625654 21.320809,180.53648 22.7132975,180.413008 C24.105786,180.289536 24.8328982,178.567789 24.9563701,177.621171 C25.079842,176.674553 24.6888477,175.796531 24.9563701,174.157099 C25.2238926,172.517666 25.916707,171.111459 25.916707,170.116824 C25.916707,169.122189 25.2307521,168.058959 24.9563701,166.968291 C24.6819882,165.877623 24.7505837,164.985881 24.4624826,164.306786 C23.968595,163.154381 24.030331,161.103376 23.9823141,159.841219 C23.8176849,155.965574 24.7437241,152.103647 24.942651,148.241721 C25.1758757,143.783014 26.2596845,140.250346 26.4174541,135.695605 C26.5820833,130.989955 26.0058812,125.111321 26.115634,121.976507 C26.2253868,118.841693 27.6384539,115.116957 27.8648191,111.289329 L27.8648191,110.932632 L28.9211897,97.5153537 C28.962347,96.6647696 29.6071446,84.9966761 30.7252511,74.4878465 L31.1505432,74.4878465 C32.2617902,85.0103952 32.9134474,96.6784887 32.9546047,97.5153537 L34.0109753,110.932632 L34.0109753,111.289329 C34.2304809,115.103238 35.6504076,118.924007 35.7601604,121.976507 C35.8699132,125.029006 35.1496605,131.003674 35.3211492,135.695605 C35.4789189,140.250346 36.6313231,143.783014 36.8645478,148.241721 C37.0223175,151.287361 37.6122387,154.333001 37.8729016,157.364922 C38.0786881,159.690309 37.6808342,161.995118 37.4270309,164.306786 C37.1320702,164.992741 37.2006657,165.877623 36.9262838,166.968291 C36.6519018,168.058959 35.9728064,169.122189 35.9728064,170.116824 C35.9728064,171.111459 36.6587613,172.510807 36.9262838,174.157099 C37.1938062,175.803391 36.8028119,176.667694 36.9262838,177.621171 C37.0497557,178.574648 37.7768679,180.289536 39.1693564,180.413008 C40.5618449,180.53648 39.0184463,180.625654 40.4452326,180.502182 C42.6202312,180.126976 44.7281373,179.433586 46.7011416,178.444317 C47.94272,177.710345 47.7026358,177.189019 47.5448662,175.96802 C47.3870965,174.74702 45.8299788,171.85229 45.0342711,170.624431 C44.3339947,169.532594 43.955959,168.265342 43.9436028,166.968291 C43.9436028,166.460684 43.5457489,165.143651 43.3674006,163.78546 C42.9078108,160.355685 43.7515354,156.507478 44.2248443,153.118861 C45.157743,146.478817 46.968664,139.88679 47.2361865,133.164432 C47.5448662,126.174551 47.1195741,120.968153 46.9755236,116.996474 C46.7926407,114.426371 46.854656,111.844698 47.1607314,109.28634 C47.517428,104.786476 48.3748716,97.7142806 49.1842985,92.7685455 C49.9937253,87.8228104 50.3572814,83.6522044 50.8031521,79.2072164 C51.3116189,75.1963608 51.1376744,71.1283785 50.2886859,67.1755669 C49.602731,63.2793428 47.6271808,59.3625402 46.5022147,55.5760689 C44.9519565,50.3696709 43.7583949,45.2867449 44.1493892,38.8730662 C44.2797207,36.5751172 45.3086531,31.2521069 45.9671698,27.7400176 C46.0151867,27.6234053 45.919153,27.794894 45.9671698,27.6782817 C47.3390797,35.3815556 48.3199953,41.5139927 48.3199953,44.401863 C48.2821736,47.0504992 48.6358281,49.6901942 49.3695063,52.2354684 C50.855742,57.2658046 51.9875676,61.0568488 52.7649832,63.6086012 C54.0751572,70.0565776 55.2275615,73.657841 55.4127693,75.2698351 C55.4089749,75.3040279 55.4089749,75.3385356 55.4127693,75.3727284 C55.5416697,76.7416105 55.5416697,78.1195759 55.4127693,79.488458 C55.0539873,80.4589069 54.7651478,81.4537985 54.5484661,82.4655024 C54.3731507,83.9795213 54.2929652,85.5030453 54.3083818,87.0271027 C54.3083818,87.5072712 54.0065617,88.9614956 54.3083818,89.1672821 C54.7954098,89.4896809 55.6802917,87.8708273 55.8723591,87.3014847 C56.2976512,85.8746984 56.1536006,84.8937829 56.4554208,84.1392324 L56.7983983,86.1353613 C56.9903231,87.2458721 56.6954731,88.3852925 55.9889714,89.2633158 C55.6260506,89.7071473 55.2366326,90.128635 54.822848,90.5254729 C53.565264,91.7556187 53.1079607,92.6702253 53.4509382,93.2692926 C53.5404802,93.4207455 53.7201528,93.4937375 53.8899493,93.4476409 L54.0957358,93.3927645 C55.6514242,93.0419575 57.1564725,92.4957149 58.5750215,91.7670513 C59.617673,91.0810964 60.0086674,89.2564563 60.5848695,88.6939732 C62.4575265,86.855614 62.0185153,86.4097433 61.3325604,83.3435247 Z" id="Path-Copy" fill-opacity="0.4" fill="url(#linearGradient-8)"></path>
                        </g>
                    </g>
                </g>
            </g>
        </g>
    </g>
</svg>