<?xml version="1.0" encoding="UTF-8"?>
<svg width="62px" height="42px" viewBox="0 0 62 42" version="1.1" xmlns="http://www.w3.org/2000/svg" xmlns:xlink="http://www.w3.org/1999/xlink">
    <title>img_3_m</title>
    <defs>
        <rect id="path-1" x="0" y="0" width="62" height="42" rx="4"></rect>
        <linearGradient x1="33.4607747%" y1="49.9925572%" x2="66.5287892%" y2="50.0241218%" id="linearGradient-3">
            <stop stop-color="#F58E26" offset="0%"></stop>
            <stop stop-color="#F58E26" stop-opacity="0" offset="100%"></stop>
        </linearGradient>
        <linearGradient x1="-0.0653366123%" y1="50.0109914%" x2="100.014672%" y2="50.0109914%" id="linearGradient-4">
            <stop stop-color="#1E1E28" offset="0%"></stop>
            <stop stop-color="#0F0F19" offset="100%"></stop>
        </linearGradient>
        <linearGradient x1="50%" y1="99.8450413%" x2="50%" y2="0%" id="linearGradient-5">
            <stop stop-color="#FBD2AA" offset="0%"></stop>
            <stop stop-color="#EAB077" offset="100%"></stop>
        </linearGradient>
    </defs>
    <g id="Mobile" stroke="none" stroke-width="1" fill="none" fill-rule="evenodd">
        <g id="[M]-Complete_soft_all-Copy" transform="translate(-34.000000, -337.000000)">
            <g id="img_3_m" transform="translate(34.000000, 337.000000)">
                <g id="Group-5">
                    <mask id="mask-2" fill="white">
                        <use xlink:href="#path-1"></use>
                    </mask>
                    <g id="Mask"></g>
                    <g id="Group-10" mask="url(#mask-2)">
                        <g transform="translate(0.000000, -1.000000)">
                            <g id="Group-9" transform="translate(0.000000, 0.269565)" fill-opacity="0.07">
                                <path d="M1.6173913,0 L24.8,0 L24.8,0 L24.8,43.1304348 L1.6173913,43.1304348 C0.724130752,43.1304348 5.53482077e-16,42.406304 0,41.5130435 L0,1.6173913 C-1.09392868e-16,0.724130752 0.724130752,8.30223116e-16 1.6173913,0 Z" id="Rectangle" fill="url(#linearGradient-3)"></path>
                                <path d="M7.00869565,0 L30.1913043,0 L30.1913043,0 L30.1913043,43.1304348 L7.00869565,43.1304348 C6.1154351,43.1304348 5.39130435,42.406304 5.39130435,41.5130435 L5.39130435,1.6173913 C5.39130435,0.724130752 6.1154351,8.30223116e-16 7.00869565,0 Z" id="Rectangle-Copy-3" fill="url(#linearGradient-3)"></path>
                                <path d="M12.4,0 L35.5826087,0 L35.5826087,0 L35.5826087,43.1304348 L12.4,43.1304348 C11.5067394,43.1304348 10.7826087,42.406304 10.7826087,41.5130435 L10.7826087,1.6173913 C10.7826087,0.724130752 11.5067394,8.30223116e-16 12.4,0 Z" id="Rectangle-Copy-4" fill="url(#linearGradient-3)"></path>
                            </g>
                            <g id="Group-9-Copy" transform="translate(44.000000, 22.269565) scale(-1, 1) translate(-44.000000, -22.269565) translate(26.000000, 0.269565)" fill-opacity="0.07">
                                <path d="M1.6173913,0 L24.8,0 L24.8,0 L24.8,43.1304348 L1.6173913,43.1304348 C0.724130752,43.1304348 5.53482077e-16,42.406304 0,41.5130435 L0,1.6173913 C-1.09392868e-16,0.724130752 0.724130752,8.30223116e-16 1.6173913,0 Z" id="Rectangle" fill="url(#linearGradient-3)"></path>
                                <path d="M7.00869565,0 L30.1913043,0 L30.1913043,0 L30.1913043,43.1304348 L7.00869565,43.1304348 C6.1154351,43.1304348 5.39130435,42.406304 5.39130435,41.5130435 L5.39130435,1.6173913 C5.39130435,0.724130752 6.1154351,8.30223116e-16 7.00869565,0 Z" id="Rectangle-Copy-3" fill="url(#linearGradient-3)"></path>
                                <path d="M12.4,0 L35.5826087,0 L35.5826087,0 L35.5826087,43.1304348 L12.4,43.1304348 C11.5067394,43.1304348 10.7826087,42.406304 10.7826087,41.5130435 L10.7826087,1.6173913 C10.7826087,0.724130752 11.5067394,8.30223116e-16 12.4,0 Z" id="Rectangle-Copy-4" fill="url(#linearGradient-3)"></path>
                            </g>
                            <g id="blue-4model" transform="translate(24.260870, 0.000000)">
                                <g id="Group-3" transform="translate(0.808696, 5.121739)">
                                    <path d="M11.3075836,18.9381739 C11.1896891,18.4701739 11.1094205,18.1762609 10.9576628,17.5025217 C10.9137659,16.6976522 10.8924446,16.4308696 10.8786484,16.0623478 C10.8849194,15.3366087 10.7632623,14.500087 10.7406868,14.1112174 C10.7130945,13.631913 10.2854135,11.9633913 10.2854135,11.8503478 C10.2854135,11.7749855 10.2172688,10.8706377 10.0809795,9.13730435 C9.98315219,7.78078261 9.98816897,7.28678261 9.81258148,7.03695652 C9.55296282,6.66730435 9.33347846,6.53843478 8.53455536,6.3406087 C8.34719242,6.28278987 8.16518653,6.2117285 7.99023412,6.12808696 C7.84223895,6.05234783 7.50611432,5.88730435 7.46598003,5.86695652 C7.17182748,5.71536044 6.93930441,5.48280396 6.80251014,5.2033913 C6.684747,5.28597594 6.56022689,5.36041986 6.43001381,5.42608696 C6.11270213,5.53913043 5.39530179,5.51991304 5.07297332,5.42608696 C4.94598464,5.36526485 4.82621531,5.29291893 4.71552735,5.21017391 C4.56593158,5.48587193 4.33062529,5.71641807 4.0382613,5.87373913 C3.99436442,5.8986087 3.56919185,6.10773913 3.35597846,6.20608696 C3.25490538,6.24846917 3.15151012,6.2861989 3.04619195,6.31913043 L2.99351571,6.33495652 C2.16449189,6.53843478 1.94375333,6.66504348 1.68037209,7.04034783 C1.5035304,7.29017391 1.47593807,7.83165217 1.41197406,9.14069565 C1.27401246,10.868 1.20754005,11.7926957 1.20754005,11.8695652 C1.20754005,11.9826087 0.799926221,13.6093043 0.752266758,14.0874783 C0.670428273,14.7051272 0.624378551,15.3262023 0.614305155,15.9481739 C0.600508995,16.2873043 0.614305155,16.6456522 0.579187656,17.3533043 C0.406108554,18.1344348 0.328348378,18.4362609 0.202928739,18.935913 C0.0775091001,19.4355652 -0.0040136652,19.5146957 0.328348378,19.812 C0.433700875,19.9046957 0.505190069,20.2076522 0.69582792,20.3184348 C0.955097061,20.4387181 1.23030835,20.5287469 1.51481816,20.5863478 L1.55118986,20.5953913 C1.58223536,20.6029879 1.6150866,20.590959 1.63145843,20.566 C1.69416825,20.4702899 1.61055515,20.3195652 1.38061915,20.1138261 C1.30534006,20.0484413 1.23455558,19.978979 1.16865996,19.9058261 C1.04248509,19.7624561 0.989619688,19.5776118 1.02317318,19.3971304 L1.085883,19.0681739 C1.13981344,19.1925217 1.11472951,19.3541739 1.19123549,19.5893043 C1.2225904,19.6831304 1.38814433,19.949913 1.47844647,19.8967826 C1.53363111,19.8628696 1.47844647,19.6232174 1.47844647,19.544087 C1.48076703,19.2929045 1.46568735,19.0418365 1.4332954,18.7923478 C1.39444968,18.6253241 1.3411935,18.4612894 1.27401246,18.3017391 C1.25225528,18.0824956 1.25225528,17.8619392 1.27401246,17.6426957 C1.27401246,17.6325217 1.27401246,17.6212174 1.27401246,17.6076522 C1.30662156,17.3363478 1.50603879,16.7428696 1.7455903,15.685913 C1.88689642,15.2608696 2.09383883,14.6361159 2.36641751,13.8116522 C2.50056286,13.392198 2.56522484,12.9571836 2.55830956,12.5206957 C2.55830956,12.0470435 2.75898098,10.9629565 2.97344856,9.73982609 C2.97344856,9.72852174 2.96466919,9.72286957 2.97344856,9.73078261 C3.10639338,10.3626957 3.32336936,11.492 3.36601203,11.8085217 C3.49143167,12.8033043 3.1691032,13.3357391 2.86433348,14.3621739 C2.38021367,15.9673913 2.13196343,16.4681739 2.34768521,18.2565217 C2.43798735,18.9890435 2.49693458,19.6752174 2.64367556,20.4913913 C2.79041653,21.3075652 2.71257571,22.471913 2.78406491,23.2134783 C2.84002758,23.6350885 2.85136642,24.0605411 2.81792821,24.484087 C2.79159009,25.1386087 2.65989947,25.9378261 2.7175925,27.0897391 C2.7514558,27.768 2.9270433,28.4281739 3.0650049,29.0996522 C3.26567632,30.0684348 3.61810551,31.2022609 3.48014391,32.1947826 C3.4462806,32.4208696 3.37479141,32.6356522 3.37479141,32.7193043 C3.37253219,32.9330548 3.30341235,33.1418944 3.17537418,33.3218261 C3.0298874,33.521913 2.74518482,34.000087 2.7163383,34.2024348 C2.68749179,34.4047826 2.64234072,34.4895652 2.86935026,34.6105217 C3.23024553,34.7732178 3.61559844,34.8874701 4.01317737,34.9496522 C4.27530442,34.97 3.99185603,34.9553043 4.2464579,34.9349565 C4.50105977,34.9146087 4.63400458,34.6308696 4.65658012,34.4748696 C4.67915565,34.3188696 4.60766646,34.1741739 4.65658012,33.904 C4.70549378,33.6338261 4.83216761,33.402087 4.83216761,33.2381739 C4.83216761,33.0742609 4.70674797,32.8990435 4.65658012,32.7193043 C4.60641226,32.5395652 4.61895423,32.3926087 4.56627798,32.2806957 C4.47597584,32.0907826 4.48726361,31.7527826 4.47848423,31.5447826 C4.44838352,30.906087 4.61770003,30.2696522 4.65407173,29.6332174 C4.6967144,28.8984348 4.89487743,28.3162609 4.92372395,27.5656522 C4.95382466,26.7901739 4.84847217,25.8213913 4.86853931,25.3047826 C4.88860645,24.7881739 5.14697091,24.1743478 5.18835939,23.5435652 L5.18835939,23.4847826 L5.38150563,21.2736522 C5.38903081,21.1334783 5.50692527,20.5584348 5.71135928,18.8266087 L5.78911946,18.8266087 C5.99229927,20.5606957 6.11144793,21.1357391 6.11897311,21.2736522 L6.31211935,23.4847826 L6.31211935,23.5435652 C6.35225364,24.172087 6.61187229,24.8017391 6.63193943,25.3047826 C6.65200657,25.8078261 6.52031595,26.7924348 6.55167086,27.5656522 C6.58051738,28.3162609 6.79122237,28.8984348 6.83386505,29.6332174 C6.86271157,30.1351304 6.97057246,30.6370435 7.01823192,31.1366957 C7.05585781,31.519913 6.98311442,31.8997391 6.93670915,32.2806957 C6.88277871,32.3937391 6.89532067,32.5395652 6.84515282,32.7193043 C6.79498496,32.8990435 6.67081952,33.0742609 6.67081952,33.2381739 C6.67081952,33.402087 6.79623916,33.6326957 6.84515282,33.904 C6.89406648,34.1753043 6.82257728,34.3177391 6.84515282,34.4748696 C6.86772835,34.632 7.00067317,34.9146087 7.25527504,34.9349565 C7.5098769,34.9553043 7.22768272,34.97 7.48855557,34.9496522 C7.88623117,34.8878193 8.2716396,34.7735505 8.63238267,34.6105217 C8.85939222,34.4895652 8.81549535,34.4036522 8.78664883,34.2024348 C8.75780231,34.0012174 8.47309973,33.5241739 8.32761295,33.3218261 C8.19957478,33.1418944 8.13045494,32.9330548 8.12819572,32.7193043 C8.12819572,32.6356522 8.05545233,32.4186087 8.02284323,32.1947826 C7.93881207,31.6295652 8.09307823,30.9953913 8.17961778,30.4369565 C8.35018849,29.3426957 8.68129633,28.2563478 8.73020999,27.1485217 C8.78664883,25.9966087 8.70888865,25.1386087 8.68255053,24.484087 C8.64911232,24.0605411 8.66045116,23.6350885 8.71641383,23.2134783 C8.78163204,22.471913 8.70253703,21.3064348 8.8505322,20.4913913 C8.99852738,19.6763478 9.06499978,18.9890435 9.14652255,18.2565217 C9.23949035,17.5955438 9.20768643,16.9251516 9.05245782,16.2737391 C8.92703818,15.6316522 8.80169919,14.9861739 8.59601098,14.3621739 C8.31256259,13.5041739 8.09433242,12.6665217 8.16582162,11.6095652 C8.18965135,11.2308696 8.37778081,10.3536522 8.49818366,9.77486957 C8.50696303,9.75565217 8.48940429,9.78391304 8.49818366,9.76469565 C8.74902294,11.0341739 8.92837302,12.0447826 8.92837302,12.5206957 C8.92145774,12.9571836 8.98611972,13.392198 9.12026507,13.8116522 C9.39200762,14.6406377 9.59895002,15.2653913 9.74109228,15.685913 C9.98064379,16.7485217 10.1913488,17.342 10.2252121,17.6076522 C10.2245183,17.6132871 10.2245183,17.6189738 10.2252121,17.6246087 C10.2487802,17.8501967 10.2487802,18.0772816 10.2252121,18.3028696 C10.1596126,18.4627969 10.1068013,18.6267523 10.0671833,18.7934783 C10.0351288,19.0429844 10.0204677,19.2940569 10.0232865,19.5452174 C10.0232865,19.6243478 9.96810183,19.864 10.0232865,19.897913 C10.1123344,19.9510435 10.2741257,19.6842609 10.3092432,19.5904348 C10.3870034,19.3553043 10.3606653,19.1936522 10.4158499,19.0693043 L10.4785598,19.3982609 C10.5136512,19.58127 10.459741,19.7690433 10.3305646,19.9137391 C10.2642083,19.9868813 10.1930073,20.0563413 10.1173512,20.1217391 C9.88741519,20.3244638 9.8038021,20.4751884 9.86651192,20.573913 C9.88288374,20.5988721 9.91573498,20.6109009 9.94678049,20.6033043 L9.98440638,20.5942609 C10.2688476,20.5364488 10.5440299,20.4464296 10.8033966,20.3263478 C10.9940345,20.2133043 11.0655237,19.9126087 11.1708762,19.819913 C11.5132718,19.5169565 11.4330032,19.4434783 11.3075836,18.9381739 Z" id="Path" fill="#FBD2AA"></path>
                                    <path d="M5.76195824,5.14234783 C6.66630607,5.14234783 6.23849404,4.25876769 6.44988534,3.55337639 C6.64092882,2.91128943 7.37734954,2.60678261 7.37734954,2.04495652 C7.37734954,0.863652174 6.85056694,0 5.77665389,0 C4.70274085,0 4.1940452,0.904347826 4.1940452,2.08904348 C4.1940452,2.68817391 4.76983277,2.9045038 5.14400668,3.68224293 C5.5181806,4.45998206 4.90621911,5.14234783 5.76195824,5.14234783 Z" id="Path" fill="url(#linearGradient-4)"></path>
                                    <path d="M6.86526259,3.46365217 C6.67761041,3.94597101 6.58378433,4.30997101 6.58378433,4.55565217 C6.58378433,4.80133333 6.88514476,5.16684058 7.07279693,5.65217391 L4.42950112,5.65217391 C4.54956004,5.29916202 4.87018584,4.93136486 4.89039302,4.55904348 C4.87046222,4.18595076 4.7993325,3.81736945 4.67900172,3.46365217 L6.86526259,3.46365217 Z" id="Path" fill="url(#linearGradient-5)"></path>
                                    <path d="M5.82187128,0.635304348 C6.82908867,0.653391304 7.15465389,1.26721739 7.18856694,2.21113043 L7.18856694,2.21113043 C7.3660452,2.22921739 7.44065389,2.44965217 7.35813215,2.72208696 C7.2948278,2.93008696 7.20213215,3.08495652 7.09134954,3.13921739 C7.04726259,3.30878261 6.99413215,3.47834783 6.94100172,3.6366087 C6.81665389,4.00626087 6.12934954,4.49913043 5.75178433,4.49234783 C5.41265389,4.48556522 4.6360452,4.04921739 4.55465389,3.588 C4.53317563,3.47495652 4.49247998,3.28843478 4.4540452,3.0973913 C4.33308867,3.05104348 4.23700172,2.88486957 4.17708867,2.65878261 C4.10474085,2.38408696 4.18726259,2.16704348 4.36474085,2.1546087 L4.37491476,2.1546087 C4.44839302,1.24347826 4.8180452,0.617217391 5.82187128,0.635304348 Z" id="Path" fill="#FBD2AA"></path>
                                </g>
                                <g id="Group-3-Copy" transform="translate(0.084885, 0.000000)"></g>
                            </g>
                        </g>
                    </g>
                </g>
            </g>
        </g>
    </g>
</svg>