<?xml version="1.0" encoding="UTF-8"?>
<svg width="62px" height="42px" viewBox="0 0 62 42" version="1.1" xmlns="http://www.w3.org/2000/svg" xmlns:xlink="http://www.w3.org/1999/xlink">
    <title>img_4_f</title>
    <defs>
        <rect id="path-1" x="0" y="0" width="62" height="42" rx="4"></rect>
        <linearGradient x1="50%" y1="17.2426735%" x2="49.9962878%" y2="1.41176854%" id="linearGradient-3">
            <stop stop-color="#FFFFFF" offset="0%"></stop>
            <stop stop-color="#FBD2AA" offset="100%"></stop>
            <stop stop-color="#FBD2AA" offset="100%"></stop>
        </linearGradient>
        <linearGradient x1="-0.0653366123%" y1="50.0109914%" x2="100.014672%" y2="50.0109914%" id="linearGradient-4">
            <stop stop-color="#1E1E28" offset="0%"></stop>
            <stop stop-color="#0F0F19" offset="100%"></stop>
        </linearGradient>
        <linearGradient x1="50%" y1="99.8450413%" x2="50%" y2="0%" id="linearGradient-5">
            <stop stop-color="#FBD2AA" offset="0%"></stop>
            <stop stop-color="#EAB077" offset="100%"></stop>
        </linearGradient>
    </defs>
    <g id="Mobile" stroke="none" stroke-width="1" fill="none" fill-rule="evenodd">
        <g id="[M]-Complete_soft_all-Copy" transform="translate(-34.000000, -397.000000)">
            <g id="img_4_f" transform="translate(34.000000, 397.000000)">
                <g id="Group-5">
                    <mask id="mask-2" fill="white">
                        <use xlink:href="#path-1"></use>
                    </mask>
                    <g id="Mask"></g>
                    <g id="Group-3" mask="url(#mask-2)">
                        <g transform="translate(4.000000, 0.000000)">
                            <path d="M53.2012801,100.362739 C52.6443347,97.9098091 52.2651379,96.3693219 51.5482189,92.8380513 C51.3408456,88.6194865 51.2401214,87.2211982 51.174947,85.2896643 C51.2045717,81.485846 50.6298515,77.1013825 50.5232024,75.0631995 C50.3928535,72.5510204 48.3724453,63.8057933 48.3724453,63.2132982 C48.3724453,62.8183015 48.050523,58.078341 47.4066784,48.9934167 C46.9445322,41.883476 46.968232,39.2942725 46.1387389,37.9848585 C44.9122742,36.0473996 43.8754078,35.3719552 40.1012143,34.3350889 C39.2160928,34.0320429 38.3562786,33.6595888 37.5297857,33.2211982 C36.8306415,32.8242265 35.2427547,31.9591837 35.0531563,31.8525346 C33.6635499,31.0579736 32.5650874,29.8390748 31.9188574,28.3745885 C31.3625324,28.8074396 30.7742868,29.1976227 30.1591471,29.5418038 C28.6601346,30.1342989 25.2710628,30.0335747 23.7483505,29.5418038 C23.1484431,29.2230168 22.5826407,28.8438299 22.0597396,28.4101382 C21.3530341,29.855155 20.2414233,31.063517 18.8602663,31.8880843 C18.652893,32.0184332 16.6443347,33.114549 15.6370931,33.6300197 C15.1596136,33.8521578 14.671164,34.0499107 14.1736303,34.2225148 L13.9247824,34.3054641 C10.00839,35.3719552 8.96559871,36.0355497 7.72135908,38.0026333 C6.88594104,39.3120474 6.75559213,42.1500987 6.45341965,49.0111916 C5.80167508,58.0645161 1.81418331,62.9111257 1.81418331,63.3140224 C1.81418331,63.9065174 3.56204374,72.4325214 3.33689562,74.9387755 C2.95028234,78.1760603 2.73273879,81.4313028 2.68515105,84.6912442 C2.61997659,86.4687294 2.68515105,88.3469388 2.51925243,92.0559579 C1.70160925,96.1500987 1.33426231,97.7320606 0.741767246,100.350889 C0.149272184,102.969717 -0.235849607,103.384463 1.33426231,104.942725 C1.83195816,105.428571 2.16968035,107.016458 3.07027284,107.597103 C4.29508649,108.227545 5.59521247,108.699413 6.9392656,109.001317 L7.11108917,109.048716 C7.25775128,109.088532 7.41294386,109.025485 7.49028601,108.894668 C7.78653354,108.393022 7.39153683,107.603028 6.30529588,106.524687 C5.94966985,106.181986 5.61527681,105.817913 5.30397923,105.434496 C4.7079164,104.683051 4.45817487,103.714226 4.61668496,102.768269 L4.91293249,101.044108 C5.16770536,101.695853 5.04920635,102.54312 5.41062834,103.77551 C5.5587521,104.267281 6.34084559,105.665569 6.76744203,105.387097 C7.02813986,105.209348 6.76744203,103.953259 6.76744203,103.538512 C6.77840461,102.221989 6.70716665,100.906066 6.55414381,99.59842 C6.3706327,98.7229983 6.11904514,97.8632424 5.80167508,97.0269914 C5.698892,95.8778698 5.698892,94.7218669 5.80167508,93.5727452 C5.80167508,93.5194207 5.80167508,93.4601712 5.80167508,93.3890718 C5.9557238,91.9670836 6.89779095,88.8564845 8.02945652,83.3166557 C8.69700095,81.0888743 9.67461781,77.8143515 10.9623071,73.4930876 C11.5960233,71.2946015 8.22802363,69.0145592 8.19535513,66.7267939 C8.19535513,64.2442396 12.8168166,58.562212 13.8299832,52.1514154 C13.8299832,52.0921659 13.7885085,52.0625411 13.8299832,52.1040158 C14.4580279,55.4160632 15.4830444,61.3350889 15.6844927,62.994075 C16.2769878,68.2080316 14.7542755,70.9986833 13.3145125,76.3785385 C11.0274815,84.7919684 8.74045059,87.4167215 9.7595421,96.7899934 C10.1861385,100.629361 10.4646112,104.225806 11.1578304,108.503621 C11.8510497,112.781435 12.5975934,118.884134 12.9353156,122.770902 C13.199689,124.980689 13.2532548,127.210614 13.0952893,129.430546 C12.9708653,132.861093 12.3487455,137.050033 12.6212933,143.087558 C12.7812669,146.642528 13.61076,150.102699 14.2625046,153.62212 C15.2104967,158.699803 16.8754078,164.642528 16.2236632,169.844635 C16.0636896,171.029625 15.7259674,172.155365 15.7259674,172.593812 C15.7152946,173.714143 15.3887655,174.808734 14.7839002,175.75181 C14.096606,176.800527 12.7516422,179.306781 12.6153683,180.367347 C12.4790944,181.427913 12.2657962,181.872284 13.3382123,182.506254 C15.043118,183.358993 16.8635642,183.957824 18.7417672,184.283739 C19.9800819,184.390388 18.6410431,184.313364 19.8438081,184.206715 C21.046573,184.100066 21.6746178,182.612903 21.7812669,181.79526 C21.887916,180.977617 21.5501938,180.219223 21.7812669,178.80316 C22.01234,177.387097 22.61076,176.172482 22.61076,175.313364 C22.61076,174.454246 22.0182649,173.535879 21.7812669,172.593812 C21.5442689,171.651745 21.6035184,170.881501 21.3546705,170.294931 C20.928074,169.299539 20.9813986,167.527979 20.9399239,166.437788 C20.7977251,163.090191 21.5975934,159.754444 21.769417,156.418697 C21.9708653,152.567479 22.9070075,149.516129 23.0432814,145.581962 C23.1854802,141.517446 22.6877844,136.439763 22.7825836,133.732061 C22.8773828,131.024358 24.0979226,127.80711 24.293446,124.500987 L24.293446,124.19289 L25.2058884,112.603687 C25.2414381,111.868993 25.7983834,101.790652 26.7641504,92.7136274 L27.1314973,92.7136274 C28.0913393,101.802502 28.6542096,111.880843 28.6897593,112.603687 L29.6022017,124.19289 L29.6022017,124.500987 C29.7918002,127.79526 31.0182649,131.095458 31.1130642,133.732061 C31.2078634,136.368664 30.5857435,141.529296 30.7338673,145.581962 C30.8701412,149.516129 31.8655329,152.567479 32.0669812,156.418697 C32.2032551,159.049375 32.7128008,161.680053 32.9379489,164.298881 C33.1156975,166.307439 32.7720503,168.298223 32.5528272,170.294931 C32.2980543,170.887426 32.3573038,171.651745 32.1203058,172.593812 C31.8833077,173.535879 31.2967376,174.454246 31.2967376,175.313364 C31.2967376,176.172482 31.8892327,177.381172 32.1203058,178.80316 C32.3513788,180.225148 32.0136566,180.971692 32.1203058,181.79526 C32.2269549,182.618828 32.8549996,184.100066 34.0577646,184.206715 C35.2605296,184.313364 33.9274157,184.390388 35.1598054,184.283739 C37.0384652,183.959654 38.8591736,183.360737 40.5633604,182.506254 C41.6357765,181.872284 41.4284032,181.421988 41.2921293,180.367347 C41.1558555,179.312706 39.8108917,176.812377 39.1235974,175.75181 C38.5187321,174.808734 38.192203,173.714143 38.1815302,172.593812 C38.1815302,172.155365 37.8378831,171.017775 37.6838344,169.844635 C37.2868627,166.882159 38.0156316,163.558262 38.4244532,160.631336 C39.2302465,154.895984 40.7944335,149.202107 41.0255065,143.395655 C41.2921293,137.35813 40.9247824,132.861093 40.8003584,129.430546 C40.6423929,127.210614 40.6959588,124.980689 40.9603321,122.770902 C41.2684295,118.884134 42.0090484,112.77551 42.7081925,108.503621 C43.4073367,104.231731 43.7213591,100.629361 44.1064809,96.7899934 C44.5456702,93.3256082 44.3954252,89.8118797 43.6621096,86.39763 C43.0696145,83.0322581 41.3632287,79.6491113 40.3915368,76.3785385 C39.052498,71.881501 38.0215566,67.4911126 38.3592788,61.9512837 C38.4718528,59.9664253 39.3605954,55.3686636 39.9293907,52.3350889 C39.9708653,52.2343647 39.887916,52.3824885 39.9293907,52.2817643 C41.1143808,58.9354839 41.9616487,64.2323897 41.9616487,66.7267939 C41.9289803,69.0145592 42.23445,71.2946015 42.8681662,73.4930876 C44.1519055,77.8380513 45.1295223,81.1125741 45.8010168,83.3166557 C46.9326823,88.8861093 47.928074,91.9967084 48.0880477,93.3890718 C48.0847703,93.4186059 48.0847703,93.4484119 48.0880477,93.477946 C48.1993857,94.6603209 48.1993857,95.8505415 48.0880477,97.0329164 C47.7781489,97.8711437 47.5286632,98.7304836 47.3415039,99.604345 C47.1900749,100.912082 47.1208145,102.228029 47.1341306,103.544437 C47.1341306,103.959184 46.8734328,105.215273 47.1341306,105.393022 C47.5548021,105.671494 48.3191208,104.273206 48.4850194,103.781435 C48.8523663,102.549045 48.7279424,101.701777 48.9886402,101.050033 L49.2848877,102.774194 C49.4506632,103.7334 49.1959859,104.717577 48.5857435,105.475971 C48.2722698,105.859331 47.9359092,106.223392 47.5785019,106.566162 C46.492261,107.628703 46.0972643,108.418697 46.3935118,108.936142 C46.470854,109.06696 46.6260465,109.130007 46.7727087,109.090191 L46.9504572,109.042791 C48.2941864,108.739781 49.5941751,108.267963 50.8194499,107.638578 C51.7200424,107.046083 52.0577646,105.470046 52.5554605,104.9842 C54.172972,103.396313 53.7937751,103.011192 53.2012801,100.362739 Z" id="Path" fill="url(#linearGradient-3)"></path>
                            <g id="Group-9" stroke-width="1" fill="none" transform="translate(14.522319, 0.000000)">
                                <path d="M11.3824178,28.7867357 C16.1223783,28.7867357 17.8998635,25.3739641 19.0078292,21.6767949 C20.0091459,18.311423 19.8491722,15.4970714 19.8491722,12.552371 C19.8491722,6.36079756 17.0881452,1.83413529 11.4594421,1.83413529 C5.83073905,1.83413529 3.16451127,6.57409579 3.16451127,12.783444 C3.16451127,15.9236679 2.42389244,18.9513176 4.3850511,23.0276837 C6.34620975,27.1040497 6.89723016,28.7867357 11.3824178,28.7867357 Z" id="Path" fill="url(#linearGradient-4)" transform="translate(11.442969, 15.310435) rotate(-13.000000) translate(-11.442969, -15.310435) "></path>
                                <path d="M6.80865207,19.2560895 L18.2675066,19.2560895 C17.2839648,21.7840685 16.7921939,23.6919026 16.7921939,24.9795918 C16.7921939,26.2672811 17.2839648,28.1830151 18.2675066,30.7267939 L6.80865207,30.7267939 C7.4379172,28.8765518 7.81070589,26.9488157 7.91661783,24.9973667 C7.81215449,23.0418749 7.43934208,21.1100288 6.80865207,19.2560895 L6.80865207,19.2560895 Z" id="Path" fill="url(#linearGradient-5)"></path>
                                <path d="M11.6878887,5.167565 C16.9670197,5.26236421 18.6734055,8.4796124 18.851154,13.4269462 L18.851154,13.4269462 C19.7813713,13.5217454 20.172418,14.6771108 19.7398966,16.1050239 C19.4080994,17.1952148 18.9222535,18.006933 18.3416083,18.2913306 C18.1105352,19.1800732 17.8320625,20.0688158 17.5535899,20.8983089 C16.9018453,22.8357678 13.2994753,25.4190462 11.3205418,25.3834965 C9.54305661,25.3479468 5.47261553,23.0609159 5.04601909,20.643536 C4.93344502,20.051041 4.7201468,19.0734241 4.51869848,18.0721075 C3.88472876,17.8291845 3.38110796,16.9582167 3.06708558,15.7732266 C2.68788874,14.3334636 3.12041013,13.1958731 4.05062738,13.1306986 L4.10395194,13.1306986 C4.48907373,8.35518844 6.42653258,5.07276579 11.6878887,5.167565 Z" id="Path" fill="#FBD2AA" transform="translate(11.422862, 15.274712) rotate(-13.000000) translate(-11.422862, -15.274712) "></path>
                            </g>
                        </g>
                    </g>
                </g>
            </g>
        </g>
    </g>
</svg>