<?xml version="1.0" encoding="UTF-8"?>
<svg width="62px" height="42px" viewBox="0 0 62 42" version="1.1" xmlns="http://www.w3.org/2000/svg" xmlns:xlink="http://www.w3.org/1999/xlink">
    <title>img_11</title>
    <defs>
        <rect id="path-1" x="0" y="0" width="62" height="42" rx="4"></rect>
        <linearGradient x1="49.9684355%" y1="100.016679%" x2="49.9684355%" y2="1.61273724%" id="linearGradient-3">
            <stop stop-color="#F58E26" offset="0%"></stop>
            <stop stop-color="#F58E26" stop-opacity="0.4" offset="100%"></stop>
        </linearGradient>
        <linearGradient x1="49.9684355%" y1="100.016679%" x2="49.9684355%" y2="1.61273724%" id="linearGradient-4">
            <stop stop-color="#F58E26" stop-opacity="0.4" offset="0%"></stop>
            <stop stop-color="#F58E26" offset="100%"></stop>
        </linearGradient>
    </defs>
    <g id="Mobile" stroke="none" stroke-width="1" fill="none" fill-rule="evenodd">
        <g id="[M]-Complete_soft_all-Copy" transform="translate(-34.000000, -937.000000)">
            <g id="img_11" transform="translate(34.000000, 937.000000)">
                <g id="Group-5">
                    <mask id="mask-2" fill="white">
                        <use xlink:href="#path-1"></use>
                    </mask>
                    <g id="Mask"></g>
                    <g id="Group-3" mask="url(#mask-2)">
                        <g transform="translate(22.000000, 0.000000)">
                            <path d="M16.4995487,19.5201683 C16.3339249,18.8635047 16.9667219,18.4511073 16.7535252,17.5057656 C16.6918568,16.3764312 16.6619036,16.0021013 16.642522,15.4850184 C16.6513318,14.466714 16.4804221,13.2929676 16.4487069,12.7473341 C16.4099439,12.0748091 15.809117,9.73366083 15.809117,9.57504645 C15.809117,9.46930353 15.7133841,8.20038846 15.5219183,5.76830125 C15.3844857,3.86492865 14.6459714,3.17178379 14.3992976,2.82124601 C14.0345728,2.30257697 13.7262306,2.12175658 12.6038649,1.84418141 C12.3406484,1.76305423 12.0849577,1.6633461 11.8391761,1.54598637 C11.6312654,1.43971473 11.1590613,1.20813773 11.1026787,1.17958714 C10.689439,0.966878547 10.3627794,0.640572218 10.1706042,0.24852071 C10.0051648,0.36439746 9.83023298,0.468851754 9.64730337,0.560991045 C9.20152861,0.719605428 8.19369,0.692640983 7.74086741,0.560991045 C7.56246758,0.475649893 7.39420985,0.374139357 7.23871006,0.258037573 C7.02855071,0.644876972 6.69798107,0.96836254 6.28725403,1.189104 C6.22558558,1.22399917 5.62828263,1.51743578 5.32875018,1.65543029 C5.18675783,1.71489793 5.04150319,1.76783753 4.89354715,1.81404467 L4.81954501,1.83625069 C3.65489235,2.12175658 3.34478817,2.29940469 2.97477749,2.82600444 C2.72634175,3.17654223 1.94201659,3.93630512 1.85215686,5.77305968 C1.65834174,8.19668746 1.56495809,9.49415311 1.56495809,9.60201089 C1.56495809,9.76062528 0.992322522,12.0430863 0.925368209,12.7140251 C0.810397557,13.5806651 0.745704685,14.4521125 0.731553092,15.3248178 C0.712171581,15.800661 0.731553092,16.3034686 0.682218335,17.2963946 C0.439068462,18.39242 0.329827214,18.8159204 0.153631653,19.516996 C-0.0225639075,20.2180716 -0.137091022,20.3291016 0.329827214,20.7462575 C0.477831485,20.8763213 0.578262955,21.3014078 0.846080207,21.4568499 C1.21031401,21.6256227 1.59694411,21.7519446 1.99663722,21.832766 L2.04773393,21.8454551 C2.09134816,21.8561141 2.13749916,21.8392361 2.16049909,21.8042154 C2.24859687,21.6699219 2.13113316,21.458436 1.80810797,21.1697579 C1.70235227,21.0780146 1.60291082,20.9805502 1.51033747,20.8779074 C1.33308093,20.6767411 1.25881306,20.417381 1.30595062,20.1641427 L1.3940484,19.7025748 C1.46981249,19.8770506 1.43457338,20.1038692 1.54205267,20.4337871 C1.58610156,20.5654371 1.8186797,20.939767 1.94554051,20.8652183 C2.02306655,20.8176339 1.94554051,20.4813714 1.94554051,20.3703414 C1.94880055,20.0179005 1.92761588,19.6656201 1.8821101,19.3155557 C1.82753776,19.0812002 1.75272092,18.8510386 1.65834174,18.6271693 C1.62777622,18.3195427 1.62777622,18.010074 1.65834174,17.7024474 C1.65834174,17.6881722 1.65834174,17.6723107 1.65834174,17.653277 C1.70415259,17.2726025 1.98430353,16.439877 2.32083705,14.9568325 C2.51935072,14.3604424 2.81007339,13.4838336 3.19300508,12.327006 C3.38145893,11.7384585 3.47229921,11.1280778 3.46258428,10.5156297 C3.46258428,9.85103547 3.99301789,8.32992354 4.2943123,6.61371591 C4.2943123,6.59785447 4.77902003,6.58992375 4.79135372,6.60102676 C4.97812101,7.48768116 5.28293933,9.07223885 5.34284583,9.51635913 C5.51904139,10.9121657 5.06621879,11.6592394 4.63806358,13.099458 C3.95794872,15.3517823 3.6091948,16.054444 3.91225116,18.5637235 C4.03911197,19.5915448 4.12192388,20.5543341 4.32807269,21.6995299 C4.53422149,22.8447258 4.42486695,24.4784539 4.52529842,25.5189643 C4.60391749,26.1105371 4.61984684,26.7075011 4.57287122,27.3017899 C4.53587016,28.2201672 4.35086482,29.3415709 4.43191478,30.9578515 C4.47948758,31.9095378 4.72616136,32.8358458 4.91997648,33.7780152 C5.20188938,35.1373405 5.6969989,36.7282427 5.50318379,38.120877 C5.45561098,38.4381058 5.35517951,38.7394731 5.35517951,38.8568477 C5.35200566,39.1567669 5.25490277,39.4497953 5.07502857,39.7022624 C4.87064172,39.9830099 4.4706778,40.6539487 4.43015282,40.9378685 C4.38962784,41.2217882 4.32619744,41.340749 4.6451114,41.5104664 C5.15211449,41.7387496 5.69347686,41.8990601 6.25201492,41.9863095 C6.62026364,42.0148601 6.22206167,41.9942402 6.57973866,41.9656897 C6.93741565,41.9371391 7.12418294,41.539017 7.15589815,41.3201291 C7.18761335,41.1012413 7.08718188,40.8982149 7.15589815,40.5191265 C7.22461441,40.1400381 7.40257193,39.8148786 7.40257193,39.5848878 C7.40257193,39.3548969 7.22637637,39.1090446 7.15589815,38.8568477 C7.08541992,38.6046509 7.10303948,38.3984522 7.02903734,38.2414239 C6.90217654,37.9749518 6.91803414,37.5006948 6.90570045,37.2088443 C6.86341351,36.312673 7.10127752,35.4196741 7.15237423,34.5266751 C7.21228072,33.4956816 7.49066971,32.6788175 7.53119469,31.625618 C7.57348162,30.5375233 7.42547735,29.1781981 7.45366864,28.4533303 C7.48185993,27.7284626 7.84482279,26.8671865 7.90296732,25.9821183 L7.90296732,25.8996388 L8.17430849,22.7971414 C8.18488022,22.6004596 8.35050405,21.7936004 8.63770281,19.3636281 L8.74694406,19.3636281 C9.03238087,21.7967727 9.19976665,22.6036319 9.21033838,22.7971414 L9.48167955,25.8996388 L9.48167955,25.9821183 C9.53806213,26.8640142 9.90278694,27.7474963 9.93097823,28.4533303 C9.95916952,29.1591644 9.77416418,30.5406956 9.81821307,31.625618 C9.85873805,32.6788175 10.1547466,33.4956816 10.2146531,34.5266751 C10.2551781,35.2309229 10.4067062,35.9351708 10.4736606,36.6362464 C10.5265192,37.1739491 10.4243258,37.7068935 10.3591334,38.2414239 C10.2833693,38.4000383 10.3009889,38.6046509 10.2305107,38.8568477 C10.1600325,39.1090446 9.98559885,39.3548969 9.98559885,39.5848878 C9.98559885,39.8148786 10.1617944,40.138452 10.2305107,40.5191265 C10.2992269,40.899801 10.1987955,41.0996551 10.2305107,41.3201291 C10.2622259,41.5406031 10.4489932,41.9371391 10.8066702,41.9656897 C11.1643472,41.9942402 10.7679071,42.0148601 11.1343939,41.9863095 C11.6930678,41.8995501 12.2345081,41.7392165 12.7412974,41.5104664 C13.0602114,41.340749 12.9985429,41.2202021 12.958018,40.9378685 C12.917493,40.6555349 12.5175291,39.9861822 12.3131422,39.7022624 C12.133268,39.4497953 12.0361651,39.1567669 12.0329913,38.8568477 C12.0329913,38.7394731 11.9307978,38.4349335 11.884987,38.120877 C11.766936,37.3278051 11.9836565,36.4379784 12.1052314,35.6544233 C12.3448574,34.1190361 12.8100137,32.5947519 12.87873,31.0403309 C12.958018,29.4240504 12.8487767,28.2201672 12.8117756,27.3017899 C12.7648,26.7075011 12.7807294,26.1105371 12.8593484,25.5189643 C12.9509701,24.4784539 12.8398536,22.8431396 13.0477644,21.6995299 C13.2556752,20.5559202 13.3490588,19.5915448 13.4635859,18.5637235 C13.5941916,17.6362874 13.5495119,16.6956418 13.3314393,15.7816273 C13.1552437,14.8806976 12.9791614,13.9750094 12.6902007,13.099458 C12.2919987,11.8955749 11.9854185,10.7202423 12.0858499,9.23719781 C12.1193271,8.70583963 12.3836204,7.47499201 12.5527682,6.66288637 C12.5651019,6.63592193 13.0586827,6.66933182 13.0710164,6.64236737 C13.4234075,8.4236069 13.9026811,9.84786319 13.9026811,10.5156297 C13.8929662,11.1280778 13.9838064,11.7384585 14.1722603,12.327006 C14.5540173,13.4901781 14.84474,14.366787 15.0444283,14.9568325 C15.3809618,16.4478077 15.6769704,17.2805332 15.7245432,17.653277 C15.7235685,17.6611834 15.7235685,17.6691627 15.7245432,17.6770691 C15.7576528,17.9935978 15.7576528,18.3122268 15.7245432,18.6287554 C15.6323858,18.8531538 15.558194,19.0832041 15.5025368,19.3171419 C15.457505,19.6672307 15.4369084,20.0195175 15.4408683,20.3719275 C15.4408683,20.4829576 15.3633423,20.8192201 15.4408683,20.8668044 C15.5659672,20.9413532 15.7932594,20.5670232 15.8425942,20.4353733 C15.9518354,20.1054554 15.9148344,19.8786368 15.9923604,19.704161 L16.0804582,20.1657288 C16.1297563,20.4225139 16.0540207,20.6859838 15.8725474,20.8890104 C15.779327,20.9916382 15.6793004,21.0890995 15.573015,21.1808609 C15.2499898,21.4653093 15.1325261,21.6767952 15.2206239,21.8153184 C15.2436238,21.8503391 15.2897748,21.8672171 15.333389,21.8565581 L15.3862477,21.843869 C15.7858445,21.7627514 16.1724338,21.6364429 16.5368047,21.4679529 C16.804622,21.3093385 16.9050534,20.8874243 17.0530577,20.7573605 C17.5340716,20.3322739 16.6757443,20.2291746 16.4995487,19.5201683 Z" id="Path" fill-opacity="0.5" fill="#C4C8D4"></path>
                            <path d="M2.73231474,17.025937 C3.4276834,20.1850295 3.78859312,22.4023437 3.81504388,23.6778796 C3.87801037,26.7143148 3.73007166,29.0954402 3.9645412,30.7220966 C4.34675354,33.3737338 4.4491897,35.9733707 4.27184967,38.5210074 C4.46674992,38.8521701 4.94105624,39.0177515 5.69476864,39.0177515 C6.44848104,39.0177515 7.20219344,38.7417826 7.95590584,38.1898447 L7.95590584,32.0044245 L8.42384165,25.9696762 C8.57132238,23.8054328 8.66425694,22.2328442 8.7026453,21.2519106 C8.75283802,22.2487071 8.84059292,23.8212957 8.96591,25.9696762 L9.27853011,32.0044245 L9.53920692,38.1898447 C10.3140938,38.7417826 11.0889807,39.0177515 11.8638675,39.0177515 C12.6387544,39.0177515 13.1652803,38.8521701 13.4434453,38.5210074 C13.3205479,36.1651011 13.3644153,33.4647096 13.5750475,30.419833 C13.69902,28.627699 13.5169785,26.4255003 13.5750475,23.6778796 C13.6021085,22.3974465 13.9109209,20.1801324 14.5014848,17.025937 C12.5229655,17.2634628 10.5554157,17.3878332 8.59883522,17.3990481 C6.64225475,17.410263 4.68674793,17.2858926 2.73231474,17.025937 Z" id="Path-2" fill-opacity="0.3" fill="url(#linearGradient-3)"></path>
                            <path d="M15.9041575,5.83015107 C15.8801755,5.46335708 15.0869699,2.91609223 14.7597165,2.55588092 C14.2640902,2.01033968 13.734948,1.65707846 12.4781313,1.31182228 C12.274463,1.24176686 12.0768233,1.15645717 11.8865292,1.05663762 C11.7507705,0.980180229 11.5036912,0.845355058 11.3338482,0.75270022 C11.2779759,0.722220833 11.2356352,0.699131318 11.2178978,0.68930255 C10.9504106,0.537221068 10.7389696,0.303880438 10.6145775,0.0235266457 C10.5657895,-0.0864313818 9.77575507,0.626508219 9.32609869,0.636962977 C9.01088372,0.740081656 8.38944081,0.713423048 8.06290421,0.626508219 C7.61652028,0.626508219 6.87966198,-0.100402217 6.8245039,0.0117632357 C6.68275201,0.300019525 6.45956478,0.540825044 6.17171347,0.71190499 C6.11884487,0.744954721 5.6129074,1.01832972 5.34886276,1.1531878 C5.24088941,1.20285361 5.13050962,1.24718794 5.01814747,1.28607673 L4.9696704,1.30214728 C3.66545953,1.65675819 3.04802505,1.91441429 2.63675224,2.56105692 C2.38735197,2.94981184 1.58389264,3.7729879 1.49233873,5.83667891 C1.43840108,6.58216715 3.1910309,7.56906154 4.76812761,7.86716413 C4.77576218,7.86860721 4.80430691,9.39764533 4.28816223,11.3754025 C3.77400459,13.3455457 2.91701411,15.5620607 2.75884696,16.5622175 C3.70721111,17.0878344 12.4514819,16.9287976 14.4982352,16.5622175 C14.4982352,15.691708 13.6360112,13.3613396 13.0947907,11.3041953 C12.5845436,9.36477884 12.5947649,7.86864804 12.6025789,7.86716413 C14.1776803,7.56804594 15.9574409,6.57790678 15.9041575,5.83015107 Z" id="Path-Copy" fill-opacity="0.3" fill="url(#linearGradient-4)"></path>
                        </g>
                    </g>
                </g>
            </g>
        </g>
    </g>
</svg>