<?xml version="1.0" encoding="UTF-8"?>
<svg width="62px" height="42px" viewBox="0 0 62 42" version="1.1" xmlns="http://www.w3.org/2000/svg" xmlns:xlink="http://www.w3.org/1999/xlink">
    <title>img_5_f</title>
    <defs>
        <rect id="path-1" x="0" y="0" width="62" height="42" rx="4"></rect>
        <linearGradient x1="50%" y1="21.6543472%" x2="50%" y2="8.18668182%" id="linearGradient-3">
            <stop stop-color="#FFFFFF" offset="0%"></stop>
            <stop stop-color="#FBD2AA" offset="100%"></stop>
            <stop stop-color="#FBD2AA" offset="100%"></stop>
        </linearGradient>
        <linearGradient x1="-0.0653366123%" y1="50.0109914%" x2="100.014672%" y2="50.0109914%" id="linearGradient-4">
            <stop stop-color="#1E1E28" offset="0%"></stop>
            <stop stop-color="#0F0F19" offset="100%"></stop>
        </linearGradient>
    </defs>
    <g id="Mobile" stroke="none" stroke-width="1" fill="none" fill-rule="evenodd">
        <g id="[M]-Complete_soft_all-Copy" transform="translate(-34.000000, -517.000000)">
            <g id="img_5_f" transform="translate(34.000000, 517.000000)">
                <g id="Group-5">
                    <mask id="mask-2" fill="white">
                        <use xlink:href="#path-1"></use>
                    </mask>
                    <g id="Mask"></g>
                    <g id="Group-15-+-Group-15-Copy-+-Group-15-Copy-2-Mask" mask="url(#mask-2)">
                        <g transform="translate(13.000000, -9.000000)">
                            <path d="M21.2252171,25.5093188 C20.8410324,29.9019759 20.64894,32.3936765 20.64894,32.9844205 C20.64894,33.7485444 21.3897559,36.0649683 22.1787387,37.8107723 C23.1185789,39.4392821 25.6302096,42.9535737 26.1493654,47.4821559 C26.4529529,50.1303416 25.42462,56.9603765 23.0643666,67.9722607 C22.9714722,73.2248191 23.7912615,75.0372154 24.5113501,77.1781565 C25.2314387,79.3190975 28.2735303,81.6370525 28.2735303,88.0813809 C28.2735303,94.997607 26.1493654,97.1938511 26.1493654,103.579925 C26.1493654,108.680837 23.7584404,117.862938 23.0643666,129.991716 C24.0792052,134.549955 23.8110496,137.716485 24.001003,139.628222 C24.6196931,145.854872 23.1388469,153.635037 21.8610203,163.498107 L21.8610203,163.993176 C22.736302,167.692601 23.4566984,169.232012 22.5980051,172.785 C8.74982905,174.495541 3.90203106,173.304775 3.90203106,171.196377 C3.90203106,169.087978 12.5382914,168.238743 17.3263631,164.272967 L15.9402049,132.968975 C12.3734779,116.618638 10.5901144,105.752522 10.5901144,100.370627 C10.5901144,97.0134228 10.9628477,94.0782775 11.4157566,91.3185328 C9.37030331,83.1351042 9.50663317,76.5362431 8.76825908,68.817871 C8.01649537,60.9595344 6.19954461,61.0706682 6.19954461,54.4549642 C6.19954461,48.447374 10.6680942,46.6656779 13.246095,38.5954224 L13.2345653,38.594653 L13.2777599,38.4952324 C13.4222217,38.0332019 13.5530256,37.5460687 13.6681641,37.0313793 L13.673134,37.028607 C13.7839825,36.247427 13.7798995,35.4526037 13.8384707,34.6519801 C13.7791677,33.8284095 13.6266298,33.0109337 13.3830837,32.2081126 C15.136477,31.793679 16.6064972,30.9572543 17.7931445,29.6988384 C18.9797917,28.4404225 20.1238159,27.043916 21.2252171,25.5093188 Z" id="Path" fill="url(#linearGradient-3)"></path>
                            <g id="Group-9" stroke-width="1" fill="none" transform="translate(23.170917, 22.801190) rotate(-12.000000) translate(-23.170917, -22.801190) translate(3.670917, 3.801190)">
                                <path d="M8.64024524,28.4599644 C4.70996919,28.0622007 4.21073005,26.4584266 3.47044252,25.5096442 C-0.375252751,14.1121808 3.04739748,11.777577 4.45980735,8.20564179 C5.8722172,4.63370655 10.8877577,4.2629895 13.5763075,4.84073469 C20.7025004,6.37208957 23.4692527,13.1603773 20.2946406,18.6500206 C19.5075213,20.011133 18.4366436,21.2054138 17.0172212,22.5807946 L16.9329348,22.6717282 C16.7563049,22.8647503 16.6179813,23.0065375 16.5179639,23.0970896 C14.9210125,24.5429125 13.6203079,25.5745243 12.7040886,26.20612 C11.8675291,26.7828022 10.5129146,27.5340837 8.64024524,28.4599644 Z" id="Path" fill="#FBD2AA"></path>
                                <path d="M11.7238608,37.7305648 C15.2834385,34.9161266 18.7184543,33.8850857 17.900919,28.990877 C17.3448199,25.6617661 21.7257819,24.0007636 23.9751066,19.5612164 C25.0325699,17.4740749 26.7434329,16.1879122 27.127847,10.6387999 C27.127847,4.89566963 22.5534584,1.57170963 20.6179229,0.92560829 C17.8051847,-0.0133122597 17.1281527,-0.25267087 15.6481816,1.12472081 C19.06975,3.88938937 16.2011504,6.93336555 16.4167915,8.54481758 C16.6784925,10.5004674 19.535943,11.0307225 19.1484019,12.661561 C18.4415277,15.6362075 14.9480974,16.1349946 16.7672133,19.9161176 C17.4090155,21.2501356 17.5424308,21.236626 16.3489381,25.9112546 C15.1554454,30.5858832 9.96736077,32.5355138 11.7238608,37.7305648 Z" id="Path" fill="url(#linearGradient-4)" transform="translate(19.246103, 18.943523) rotate(-46.000000) translate(-19.246103, -18.943523) "></path>
                                <rect id="Rectangle" stroke="#FFFFFF" stroke-width="1.09916368" fill="#F2BF8E" transform="translate(23.340794, 25.863321) rotate(-29.000000) translate(-23.340794, -25.863321) " x="21.692048" y="24.7641577" width="3.29749104" height="2.19832736" rx="1.09916368"></rect>
                            </g>
                        </g>
                    </g>
                </g>
            </g>
        </g>
    </g>
</svg>